<svg width="20" height="18" viewBox="0 0 20 18" fill="none" xmlns="http://www.w3.org/2000/svg">
<g clip-path="url(#clip0_86_30143)">
<path d="M3.97157 0.251953H16.0271C17.8549 0.251953 19.3327 1.6726 19.3327 3.42972V14.5706C19.3327 16.3277 17.8549 17.7484 16.0271 17.7484H3.97157C2.14379 17.7484 0.666016 16.3277 0.666016 14.5706V3.42972C0.666016 1.6726 2.14379 0.251953 3.97157 0.251953Z" fill="#330000"/>
<path d="M9.71196 10.7496H6.81863L6.22751 12.5067C6.21196 12.574 6.14974 12.6188 6.07974 12.6114H4.61751C4.53196 12.6114 4.50863 12.5665 4.53196 12.4768L7.0364 5.5455C7.05974 5.47073 7.08307 5.38848 7.11418 5.29875C7.14529 5.14173 7.16085 4.97724 7.16085 4.81274C7.15307 4.77535 7.18418 4.73797 7.22307 4.73049H9.23751C9.29974 4.73049 9.33085 4.75292 9.33862 4.79031L12.1775 12.4917C12.2008 12.574 12.1775 12.6114 12.0997 12.6114H10.4742C10.4197 12.6188 10.3653 12.5814 10.3497 12.5291L9.71196 10.7496ZM7.26974 9.23171H9.24529C9.19863 9.07469 9.1364 8.88776 9.0664 8.69335C8.9964 8.49147 8.9264 8.27464 8.8564 8.05032C8.77863 7.81853 8.70863 7.59422 8.63085 7.36243C8.55307 7.13064 8.48307 6.9138 8.42085 6.69697C8.35862 6.48761 8.30418 6.29321 8.24974 6.11376H8.23418C8.16418 6.43527 8.07863 6.75679 7.96974 7.0783C7.85307 7.4372 7.7364 7.81106 7.61196 8.18491C7.50307 8.56624 7.3864 8.91767 7.26974 9.23171ZM13.8731 6.00908C13.6164 6.01655 13.3675 5.91935 13.1808 5.74738C13.002 5.56045 12.9086 5.31371 12.9164 5.05948C12.9086 4.80526 13.0097 4.566 13.1964 4.39402C13.3831 4.22205 13.632 4.13232 13.8886 4.13232C14.192 4.13232 14.4253 4.22205 14.5964 4.39402C14.7675 4.57347 14.8608 4.81274 14.8531 5.05948C14.8608 5.31371 14.7675 5.56045 14.5808 5.74738C14.402 5.92683 14.1375 6.02403 13.8731 6.00908ZM13.002 12.4992V6.74183C13.002 6.66706 13.0331 6.63715 13.1031 6.63715H14.6431C14.7131 6.63715 14.7442 6.67454 14.7442 6.74183V12.4992C14.7442 12.5814 14.7131 12.6188 14.6431 12.6188H13.1186C13.0408 12.6188 13.002 12.574 13.002 12.4992Z" fill="#FF9A00"/>
</g>
<defs>
<clipPath id="clip0_86_30143">
<rect width="18.6667" height="17.5" fill="white" transform="translate(0.666016 0.25)"/>
</clipPath>
</defs>
</svg>
