<svg width="18" height="18" viewBox="0 0 18 18" fill="none" xmlns="http://www.w3.org/2000/svg">
<g clip-path="url(#clip0_86_30166)">
<path d="M3.34897 0.251465H14.651C16.3646 0.251465 17.75 1.67214 17.75 3.42924V14.5701C17.75 16.3272 16.3646 17.7479 14.651 17.7479H3.34897C1.63544 17.7479 0.25 16.3272 0.25 14.5701V3.42924C0.25 1.67214 1.63544 0.251465 3.34897 0.251465Z" fill="#00005B"/>
<path d="M7.27926 10.7197H4.56676L4.01257 12.4843C3.99801 12.5516 3.93963 12.5964 3.87404 12.589H2.50323C2.42301 12.589 2.40117 12.5441 2.42301 12.4544L4.77095 5.55299C4.79279 5.4782 4.8147 5.41094 4.84389 5.32121C4.87308 5.16423 4.88764 4.99971 4.88764 4.83519C4.88036 4.79779 4.90948 4.76039 4.94595 4.75293H6.83448C6.88551 4.75293 6.92198 4.77533 6.92926 4.81272L9.59073 12.4394C9.61264 12.5216 9.59073 12.559 9.51779 12.559H7.99382C7.94279 12.5665 7.89176 12.5291 7.87713 12.4768L7.27919 10.6823V10.7197L7.27926 10.7197ZM4.9897 9.2318H6.84176C6.79801 9.07481 6.7397 8.88783 6.67404 8.69344C6.60838 8.4916 6.54279 8.27475 6.4772 8.05044C6.40426 7.81866 6.33867 7.59435 6.26573 7.36257C6.19279 7.13079 6.1272 6.91394 6.06889 6.69709C6.01058 6.48771 5.95955 6.29333 5.90845 6.11388H5.89389C5.82823 6.43538 5.74808 6.75689 5.64595 7.07846C5.53661 7.43736 5.4272 7.81119 5.31051 8.1851C5.21573 8.56639 5.09904 8.91783 4.9897 9.23187V9.2318ZM13.8855 10.0468H11.574C11.6032 10.2786 11.6761 10.5103 11.8001 10.7123C11.9313 10.9141 12.1136 11.0712 12.3324 11.1609C12.624 11.288 12.9449 11.3553 13.2657 11.3478C13.5209 11.3403 13.7761 11.3179 14.024 11.2655C14.25 11.2356 14.4688 11.1758 14.6729 11.0936C14.7094 11.0636 14.7313 11.0786 14.7313 11.1533V12.2974C14.7313 12.3273 14.724 12.3572 14.7167 12.3871C14.7021 12.4096 14.6875 12.4245 14.6657 12.4394C14.4324 12.5441 14.1917 12.6189 13.9365 12.6637C13.5938 12.731 13.251 12.7609 12.901 12.7535C12.3468 12.7535 11.8802 12.6637 11.501 12.4918C11.1438 12.3347 10.8302 12.088 10.5823 11.7814C10.349 11.4899 10.1813 11.1608 10.0792 10.8019C9.97713 10.4505 9.92603 10.0841 9.92603 9.71028C9.92603 9.30652 9.98434 8.91022 10.1083 8.52139C10.225 8.14756 10.4073 7.80359 10.6552 7.49701C10.8958 7.1979 11.1947 6.95866 11.5374 6.78668C11.8802 6.61469 12.2885 6.5549 12.7552 6.5549C13.1416 6.54743 13.5281 6.62223 13.8854 6.78668C14.1843 6.92126 14.4468 7.12318 14.651 7.38482C14.8406 7.63907 14.9938 7.92317 15.0885 8.23721C15.1833 8.53632 15.2271 8.84282 15.2271 9.14939C15.2271 9.32884 15.2198 9.4859 15.2125 9.62795C15.1979 9.77 15.1906 9.87473 15.1833 9.94199C15.176 9.99432 15.1323 10.0392 15.0813 10.0392C15.0375 10.0392 14.9573 10.0466 14.8406 10.0541C14.7239 10.069 14.5854 10.0766 14.4177 10.0766C14.2499 10.0766 14.0749 10.0466 13.8854 10.0466L13.8855 10.0468ZM11.574 8.95515H13.1126C13.3021 8.95515 13.4407 8.95515 13.5282 8.94769C13.5865 8.94022 13.6449 8.92522 13.6959 8.8879V8.8131C13.6959 8.71591 13.6813 8.62619 13.6521 8.53646C13.5209 8.11777 13.1344 7.83359 12.7042 7.84859C12.3032 7.82612 11.924 8.04297 11.7344 8.41688C11.6469 8.58886 11.5959 8.76831 11.574 8.95523L11.574 8.95515Z" fill="#9999FF"/>
</g>
<defs>
<clipPath id="clip0_86_30166">
<rect width="17.5" height="17.5" fill="white" transform="translate(0.25 0.25)"/>
</clipPath>
</defs>
</svg>
