<svg width="22" height="13" viewBox="0 0 22 13" fill="none" xmlns="http://www.w3.org/2000/svg">
<g clip-path="url(#clip0_86_29788)">
<path d="M6.29876 4.58977C6.29876 4.83813 6.32582 5.0395 6.37318 5.18717C6.4273 5.33485 6.49496 5.49594 6.58968 5.67047C6.62351 5.72417 6.63704 5.77787 6.63704 5.82485C6.63704 5.89198 6.59644 5.9591 6.50849 6.02623L6.08226 6.30815C6.02137 6.34842 5.96048 6.36856 5.90635 6.36856C5.8387 6.36856 5.77104 6.335 5.70338 6.27459C5.60867 6.1739 5.52748 6.0665 5.45982 5.9591C5.39217 5.84499 5.32451 5.71746 5.25009 5.56307C4.72237 6.18061 4.05934 6.48939 3.261 6.48939C2.69269 6.48939 2.2394 6.32829 1.90788 6.00609C1.57637 5.68389 1.40723 5.2543 1.40723 4.7173C1.40723 4.14674 1.61019 3.68359 2.0229 3.33454C2.4356 2.98549 2.98361 2.81097 3.68047 2.81097C3.9105 2.81097 4.14729 2.83111 4.39762 2.86467C4.64795 2.89823 4.90504 2.95193 5.17567 3.01234V2.52233C5.17567 2.01219 5.06742 1.65643 4.85768 1.44834C4.64118 1.24026 4.27584 1.13957 3.75489 1.13957C3.51809 1.13957 3.27453 1.16642 3.02421 1.22683C2.77388 1.28725 2.53032 1.36108 2.29352 1.45506C2.18527 1.50204 2.10408 1.52889 2.05672 1.54232C2.00937 1.55574 1.97554 1.56246 1.94847 1.56246C1.85376 1.56246 1.8064 1.49533 1.8064 1.35437V1.02546C1.8064 0.918061 1.81993 0.837512 1.85376 0.790525C1.88758 0.743538 1.94847 0.696551 2.04319 0.649564C2.27999 0.52874 2.56414 0.428053 2.89566 0.347504C3.22717 0.260242 3.57898 0.219968 3.95109 0.219968C4.7562 0.219968 5.34481 0.401204 5.72368 0.763675C6.09579 1.12615 6.28523 1.67657 6.28523 2.41494V4.58977H6.29876ZM3.55192 5.61006C3.77519 5.61006 4.00522 5.56978 4.24878 5.48923C4.49234 5.40868 4.70884 5.26101 4.89151 5.05964C4.99976 4.9321 5.08095 4.79114 5.12154 4.63004C5.16214 4.46894 5.1892 4.27428 5.1892 4.04606V3.76414C4.993 3.71715 4.78326 3.67687 4.56676 3.65002C4.35026 3.62317 4.14053 3.60975 3.9308 3.60975C3.4775 3.60975 3.14599 3.69701 2.92272 3.87825C2.69946 4.05948 2.59121 4.31456 2.59121 4.65018C2.59121 4.96566 2.67239 5.2006 2.84153 5.3617C3.00391 5.52951 3.2407 5.61006 3.55192 5.61006ZM8.9847 6.335C8.86292 6.335 8.78173 6.31486 8.72761 6.26788C8.67348 6.2276 8.62612 6.13363 8.58553 6.00609L6.99561 0.817375C6.95502 0.683126 6.93472 0.595864 6.93472 0.548877C6.93472 0.441478 6.98885 0.381066 7.0971 0.381066H7.76013C7.88867 0.381066 7.97663 0.401204 8.02399 0.448191C8.07811 0.488465 8.1187 0.58244 8.1593 0.709976L9.29592 5.15361L10.3514 0.709976C10.3852 0.575727 10.4258 0.488465 10.4799 0.448191C10.534 0.407916 10.6287 0.381066 10.7505 0.381066H11.2918C11.4203 0.381066 11.5083 0.401204 11.5624 0.448191C11.6165 0.488465 11.6639 0.58244 11.6909 0.709976L12.7599 5.20731L13.9304 0.709976C13.9709 0.575727 14.0183 0.488465 14.0657 0.448191C14.1198 0.407916 14.2077 0.381066 14.3295 0.381066H14.9587C15.067 0.381066 15.1279 0.434766 15.1279 0.548877C15.1279 0.58244 15.1211 0.616002 15.1143 0.656276C15.1076 0.696551 15.094 0.750251 15.067 0.824087L13.4365 6.0128C13.3959 6.14705 13.3485 6.23431 13.2944 6.27459C13.2403 6.31486 13.1523 6.34171 13.0373 6.34171H12.4555C12.3269 6.34171 12.239 6.32157 12.1848 6.27459C12.1307 6.2276 12.0833 6.14034 12.0563 6.00609L11.0076 1.67657L9.96571 5.99938C9.93189 6.13363 9.89129 6.22089 9.83717 6.26788C9.78304 6.31486 9.68832 6.335 9.56654 6.335H8.9847ZM17.6785 6.51624C17.3267 6.51624 16.9749 6.47596 16.6366 6.39541C16.2983 6.31486 16.0345 6.2276 15.8586 6.12691C15.7503 6.0665 15.6759 5.99938 15.6488 5.93897C15.6218 5.87855 15.6082 5.81143 15.6082 5.75102V5.40868C15.6082 5.26772 15.6623 5.2006 15.7638 5.2006C15.8044 5.2006 15.845 5.20731 15.8856 5.22074C15.9262 5.23416 15.9871 5.26101 16.0548 5.28786C16.2848 5.38855 16.5351 5.4691 16.799 5.52279C17.0696 5.57649 17.3335 5.60334 17.6041 5.60334C18.0303 5.60334 18.3618 5.52951 18.5919 5.38183C18.8219 5.23416 18.9437 5.01936 18.9437 4.74415C18.9437 4.5562 18.8828 4.40182 18.761 4.27428C18.6392 4.14674 18.4092 4.03263 18.0777 3.92523L17.0967 3.62317C16.6028 3.46879 16.2374 3.24057 16.0142 2.93851C15.7909 2.64316 15.6759 2.31425 15.6759 1.9652C15.6759 1.68328 15.7368 1.43492 15.8586 1.22012C15.9803 1.00532 16.1427 0.817375 16.3457 0.669701C16.5486 0.515315 16.7787 0.401204 17.0493 0.320654C17.3199 0.240105 17.6041 0.206543 17.9018 0.206543C18.0506 0.206543 18.2062 0.213255 18.3551 0.233393C18.5107 0.25353 18.6527 0.28038 18.7948 0.30723C18.9301 0.340792 19.0587 0.374354 19.1805 0.414629C19.3022 0.454903 19.397 0.495178 19.4646 0.535452C19.5593 0.589152 19.627 0.642852 19.6676 0.703263C19.7082 0.756963 19.7285 0.8308 19.7285 0.924774V1.24026C19.7285 1.38122 19.6744 1.45506 19.5729 1.45506C19.5187 1.45506 19.4308 1.42821 19.3158 1.37451C18.9301 1.19998 18.4971 1.11272 18.0168 1.11272C17.6311 1.11272 17.3267 1.17313 17.117 1.30067C16.9072 1.42821 16.799 1.62287 16.799 1.89808C16.799 2.08603 16.8666 2.24712 17.0019 2.37466C17.1373 2.5022 17.3876 2.62973 17.7462 2.74384L18.7069 3.0459C19.194 3.20029 19.5458 3.41509 19.7555 3.6903C19.9653 3.96551 20.0668 4.28099 20.0668 4.63004C20.0668 4.91868 20.0059 5.18046 19.8909 5.40868C19.7691 5.63691 19.6067 5.83828 19.397 5.99938C19.1872 6.16719 18.9369 6.28801 18.646 6.37527C18.3415 6.46925 18.0235 6.51624 17.6785 6.51624Z" fill="#252F3E"/>
<path fill-rule="evenodd" clip-rule="evenodd" d="M18.9565 9.77826C16.7306 11.4094 13.4967 12.2753 10.716 12.2753C6.81901 12.2753 3.30766 10.8455 0.655549 8.46933C0.445815 8.28139 0.635252 8.02631 0.885579 8.17399C3.75419 9.82525 7.2926 10.8254 10.9528 10.8254C13.4222 10.8254 16.1352 10.3153 18.6318 9.26811C19.0039 9.1003 19.3218 9.50976 18.9565 9.77826Z" fill="#FF9900"/>
<path fill-rule="evenodd" clip-rule="evenodd" d="M19.8831 8.73114C19.5989 8.36867 18.0022 8.55662 17.2783 8.64388C17.0618 8.67073 17.028 8.48278 17.2242 8.34182C18.4961 7.45578 20.5867 7.71085 20.8302 8.0062C21.0738 8.30826 20.7626 10.3824 19.5718 11.3758C19.3892 11.5302 19.2133 11.4497 19.2945 11.2483C19.5651 10.5838 20.1672 9.0869 19.8831 8.73114Z" fill="#FF9900"/>
</g>
<defs>
<clipPath id="clip0_86_29788">
<rect width="20.7586" height="12.069" fill="white" transform="translate(0.380859 0.206543)"/>
</clipPath>
</defs>
</svg>
