<svg width="20" height="22" viewBox="0 0 20 22" fill="none" xmlns="http://www.w3.org/2000/svg">
<g clip-path="url(#clip0_86_29734)">
<path d="M19.6226 6.62707C19.6224 6.27087 19.5445 5.95612 19.3869 5.68598C19.2321 5.42034 19.0003 5.1977 18.6894 5.02166C16.1229 3.57481 13.5538 2.13239 10.9881 0.684061C10.2964 0.293642 9.62576 0.307875 8.93919 0.703899C7.91763 1.29292 2.80302 4.15779 1.27894 5.02085C0.651278 5.37609 0.345858 5.91976 0.345707 6.62641C0.344727 9.53611 0.345707 12.4457 0.344727 15.3555C0.344877 15.7039 0.419479 16.0125 0.570114 16.2786C0.724974 16.5523 0.960018 16.7811 1.27811 16.9611C2.80227 17.8241 7.91755 20.6888 8.93889 21.278C9.62576 21.6742 10.2964 21.6884 10.9883 21.2978C13.5541 19.8494 16.1233 18.407 18.6902 16.9602C19.0083 16.7802 19.2434 16.5513 19.3982 16.2779C19.5486 16.0118 19.6234 15.7032 19.6235 15.3547C19.6235 15.3547 19.6235 9.53685 19.6226 6.62707Z" fill="#5C8DBC"/>
<path d="M10.0129 10.9624L0.569336 16.2784C0.724196 16.5521 0.959239 16.7809 1.27733 16.9609C2.80149 17.8239 7.91677 20.6886 8.93811 21.2777C9.62498 21.674 10.2956 21.6882 10.9876 21.2976C13.5534 19.8492 16.1225 18.4068 18.6895 16.96C19.0075 16.78 19.2426 16.5511 19.3975 16.2777L10.0129 10.9624Z" fill="#1A4674"/>
<path d="M7.2168 12.5371C7.76631 13.475 8.79934 14.1076 9.98436 14.1076C11.1767 14.1076 12.2156 13.4669 12.7623 12.519L10.0139 10.9624L7.2168 12.5371Z" fill="#1A4674"/>
<path d="M19.6226 6.62664C19.6225 6.27044 19.5445 5.95568 19.387 5.68555L10.0137 10.9622L19.3983 16.2774C19.5487 16.0114 19.6234 15.7027 19.6236 15.3543C19.6236 15.3543 19.6236 9.53641 19.6226 6.62664Z" fill="#1B598E"/>
<path d="M19.1063 11.3421H18.373V12.0592H17.6395V11.3421H16.9062V10.6252H17.6395V9.9082H18.373V10.6252H19.1063V11.3421ZM16.4304 11.3421H15.6971V12.0592H14.9638V11.3421H14.2305V10.6252H14.9638V9.9082H15.6971V10.6252H16.4304V11.3421Z" fill="white"/>
<path d="M12.7622 12.5189C12.2155 13.4669 11.1766 14.1075 9.98424 14.1075C8.79922 14.1075 7.76619 13.4749 7.21668 12.537C6.94062 12.0664 6.79565 11.5332 6.79622 10.9907C6.79622 9.26934 8.2236 7.8739 9.98424 7.8739C11.1616 7.8739 12.1892 8.49861 12.7415 9.42694L15.528 7.85819C14.4204 5.98899 12.3526 4.73145 9.98424 4.73145C6.44834 4.73145 3.58203 7.53385 3.58203 10.9907C3.58203 12.1248 3.89062 13.1883 4.42995 14.1056C5.53471 15.9847 7.60839 17.25 9.98424 17.25C12.3645 17.25 14.4414 15.9796 15.5446 14.095L12.7622 12.5189Z" fill="white"/>
</g>
<defs>
<clipPath id="clip0_86_29734">
<rect width="19.3103" height="21.2414" fill="white" transform="translate(0.344727 0.378906)"/>
</clipPath>
</defs>
</svg>
