<svg width="14" height="24" viewBox="0 0 14 24" fill="none" xmlns="http://www.w3.org/2000/svg">
<g clip-path="url(#clip0_86_30128)">
<path d="M7.29297 11.9996C7.29297 9.95927 8.79436 8.30518 10.6465 8.30518C12.4985 8.30518 14 9.95927 14 11.9996C14 14.04 12.4985 15.6941 10.6465 15.6941C8.79436 15.6941 7.29297 14.04 7.29297 11.9996Z" fill="#1ABCFE"/>
<path d="M0.584961 19.3888C0.584961 17.3484 2.08636 15.6943 3.93846 15.6943H7.29195V19.3888C7.29195 21.4292 5.79056 23.0832 3.93846 23.0832C2.08636 23.0832 0.584961 21.4292 0.584961 19.3888Z" fill="#0ACF83"/>
<path d="M7.29297 0.916504V8.30534H10.6465C12.4986 8.30534 14 6.6513 14 4.6109C14 2.5705 12.4986 0.916504 10.6465 0.916504H7.29297Z" fill="#FF7262"/>
<path d="M0.584961 4.61095C0.584961 6.65135 2.08636 8.30539 3.93846 8.30539H7.29195V0.916504H3.93846C2.08636 0.916504 0.584961 2.5706 0.584961 4.61095Z" fill="#F24E1E"/>
<path d="M0.584961 11.9996C0.584961 14.04 2.08636 15.6941 3.93846 15.6941H7.29195V8.30518H3.93846C2.08636 8.30518 0.584961 9.95927 0.584961 11.9996Z" fill="#A259FF"/>
</g>
<defs>
<clipPath id="clip0_86_30128">
<rect width="13.4167" height="22.1667" fill="white" transform="translate(0.583984 0.916504)"/>
</clipPath>
</defs>
</svg>
