<svg width="18" height="22" viewBox="0 0 18 22" fill="none" xmlns="http://www.w3.org/2000/svg">
<g clip-path="url(#clip0_86_29934)">
<path d="M3.92136 14.1217L0.792969 10.9994L10.9508 0.862305H17.2068M17.2068 10.2168H10.9508L8.60738 12.5556L11.7358 15.6779" fill="#42A5F5" fill-opacity="0.8"/>
<path d="M8.60742 18.7992L10.9508 21.138H17.2068L11.7358 15.6777" fill="#0D47A1"/>
<path d="M5.48633 15.6797L8.60979 12.5615L11.7333 15.6789L8.60979 18.797L5.48633 15.6797Z" fill="#42A5F5"/>
<path d="M8.61035 18.797L11.7338 15.6797L12.1698 16.1148L9.04636 19.2322L8.61035 18.797Z" fill="url(#paint0_linear_86_29934)"/>
<path d="M8.60742 18.799L13.2491 17.1986L11.7358 15.6768" fill="url(#paint1_linear_86_29934)"/>
</g>
<defs>
<linearGradient id="paint0_linear_86_29934" x1="10.1727" y1="17.2378" x2="10.6079" y2="17.6738" gradientUnits="userSpaceOnUse">
<stop offset="0.2" stop-opacity="0.15"/>
<stop offset="0.85" stop-color="#616161" stop-opacity="0.01"/>
</linearGradient>
<linearGradient id="paint1_linear_86_29934" x1="8.60853" y1="17.238" x2="13.2501" y2="17.238" gradientUnits="userSpaceOnUse">
<stop offset="0.2" stop-opacity="0.55"/>
<stop offset="0.85" stop-color="#616161" stop-opacity="0.01"/>
</linearGradient>
<clipPath id="clip0_86_29934">
<rect width="16.4138" height="20.2759" fill="white" transform="translate(0.792969 0.862305)"/>
</clipPath>
</defs>
</svg>
