<svg width="20" height="20" viewBox="0 0 20 20" fill="none" xmlns="http://www.w3.org/2000/svg">
<g clip-path="url(#clip0_86_29777)">
<path d="M18.825 9.18366L10.8155 1.17457C10.3545 0.713295 9.60639 0.713295 9.14483 1.17457L7.48162 2.83778L9.59149 4.94765C10.0818 4.78198 10.644 4.89312 11.0349 5.28395C11.4275 5.67729 11.5379 6.24433 11.3682 6.7362L13.4016 8.76961C13.8935 8.60014 14.4611 8.70978 14.854 9.10333C15.4031 9.65224 15.4031 10.5419 14.854 11.0912C14.3047 11.6405 13.4151 11.6405 12.8655 11.0912C12.4525 10.6777 12.3504 10.0711 12.5596 9.56224L10.6633 7.66598L10.6631 12.6561C10.8005 12.7241 10.9261 12.8139 11.0349 12.922C11.584 13.4709 11.584 14.3606 11.0349 14.9103C10.4856 15.4594 9.5955 15.4594 9.04702 14.9103C8.49789 14.3606 8.49789 13.471 9.04702 12.9221C9.17861 12.7904 9.335 12.6861 9.50714 12.6153V7.57863C9.33475 7.50826 9.17827 7.40393 9.04702 7.27186C8.63096 6.85638 8.53093 6.24591 8.74411 5.73505L6.66427 3.65499L1.17229 9.14661C0.7108 9.60831 0.7108 10.3565 1.17229 10.8179L9.18195 18.8271C9.64308 19.2884 10.3911 19.2884 10.8528 18.8271L18.825 10.855C19.2863 10.3936 19.2864 9.64493 18.825 9.18366Z" fill="#DE4C36"/>
</g>
<defs>
<clipPath id="clip0_86_29777">
<rect width="18.3448" height="18.3448" fill="white" transform="translate(0.826172 0.826172)"/>
</clipPath>
</defs>
</svg>
