<svg width="80" height="80" viewBox="0 0 80 80" fill="none" xmlns="http://www.w3.org/2000/svg">
<path d="M73.75 21.25H68.75C68.4185 21.25 68.1005 21.1183 67.8661 20.8839C67.6317 20.6495 67.5 20.3315 67.5 20V15C67.5 14.6685 67.6317 14.3505 67.8661 14.1161C68.1005 13.8817 68.4185 13.75 68.75 13.75H73.75C74.7446 13.75 75.6984 14.1451 76.4016 14.8483C77.1049 15.5516 77.5 16.5054 77.5 17.5C77.5 18.4946 77.1049 19.4484 76.4016 20.1517C75.6984 20.8549 74.7446 21.25 73.75 21.25ZM70 18.75H73.75C74.0815 18.75 74.3995 18.6183 74.6339 18.3839C74.8683 18.1495 75 17.8315 75 17.5C75 17.1685 74.8683 16.8505 74.6339 16.6161C74.3995 16.3817 74.0815 16.25 73.75 16.25H70V18.75Z" fill="#FAB400"/>
<path d="M63.75 21.25H58.75C57.7554 21.25 56.8016 20.8549 56.0984 20.1517C55.3951 19.4484 55 18.4946 55 17.5C55 16.5054 55.3951 15.5516 56.0984 14.8483C56.8016 14.1451 57.7554 13.75 58.75 13.75H63.75C64.0815 13.75 64.3995 13.8817 64.6339 14.1161C64.8683 14.3505 65 14.6685 65 15V20C65 20.3315 64.8683 20.6495 64.6339 20.8839C64.3995 21.1183 64.0815 21.25 63.75 21.25ZM58.75 16.25C58.4185 16.25 58.1005 16.3817 57.8661 16.6161C57.6317 16.8505 57.5 17.1685 57.5 17.5C57.5 17.8315 57.6317 18.1495 57.8661 18.3839C58.1005 18.6183 58.4185 18.75 58.75 18.75H62.5V16.25H58.75Z" fill="#FAB400"/>
<path d="M26.25 23.3337V21.25C26.25 20.587 25.9866 19.9511 25.5178 19.4822C25.0489 19.0134 24.413 18.75 23.75 18.75C23.087 18.75 22.4511 19.0134 21.9822 19.4822C21.5134 19.9511 21.25 20.587 21.25 21.25V24.1325C21.2499 24.7243 21.4598 25.2969 21.8423 25.7485C22.2247 26.2001 22.755 26.5014 23.3387 26.5987L34.0963 28.3912C34.3613 28.4354 34.6327 28.4212 34.8917 28.3498C35.1507 28.2784 35.391 28.1515 35.596 27.9778C35.801 27.8041 35.9656 27.5879 36.0786 27.3441C36.1915 27.1003 36.25 26.8349 36.25 26.5663C36.2498 26.1286 36.0944 25.7053 35.8116 25.3714C35.5287 25.0375 35.1366 24.8146 34.705 24.7425L26.25 23.3337Z" fill="#206193"/>
<path d="M56.25 33.75H76.25V76.25H56.25V33.75Z" fill="#00D27E"/>
<path d="M30 43.75H50V76.25H30V43.75Z" fill="#00D27E"/>
<path d="M3.75 53.75H23.75V76.25H3.75V53.75Z" fill="#00D27E"/>
<path d="M67.5 21.25H65L62.5 33.75H70L67.5 21.25Z" fill="#FAB400"/>
<path d="M60 13.75H72.5V17.5C72.5 19.1576 71.8415 20.7473 70.6694 21.9194C69.4973 23.0915 67.9076 23.75 66.25 23.75C64.5924 23.75 63.0027 23.0915 61.8306 21.9194C60.6585 20.7473 60 19.1576 60 17.5V13.75Z" fill="#FAB400"/>
<path d="M22.5 16.25C25.2614 16.25 27.5 14.0114 27.5 11.25C27.5 8.48858 25.2614 6.25 22.5 6.25C19.7386 6.25 17.5 8.48858 17.5 11.25C17.5 14.0114 19.7386 16.25 22.5 16.25Z" fill="#206193"/>
<path d="M17.9103 53.75C17.544 53.75 17.1818 53.6726 16.8474 53.5231C16.513 53.3736 16.2139 53.1552 15.9696 52.8823C15.7253 52.6093 15.5413 52.2879 15.4296 51.939C15.318 51.5901 15.2811 51.2216 15.3216 50.8575L17.5003 31.25H25.0003L20.4541 51.71C20.3255 52.2887 20.0033 52.8063 19.5409 53.1772C19.0784 53.5481 18.5032 53.7502 17.9103 53.75Z" fill="#206193"/>
<path d="M27.5 31.25V21.25C27.5 19.9239 26.9732 18.6521 26.0355 17.7145C25.0978 16.7768 23.8261 16.25 22.5 16.25H19.8412C19.1083 16.2499 18.3842 16.411 17.7204 16.7219C17.0566 17.0327 16.4693 17.4857 16 18.0488L12.0625 22.775C11.5284 23.4165 11.1632 24.1814 11 25L9.19748 34.0125C9.14395 34.2842 9.15125 34.5643 9.21886 34.8328C9.28647 35.1013 9.41271 35.3515 9.5885 35.5654C9.7643 35.7794 9.98529 35.9517 10.2356 36.0701C10.4859 36.1884 10.7593 36.2499 11.0362 36.25C11.4543 36.25 11.8604 36.1102 12.1899 35.8529C12.5194 35.5956 12.7535 35.2356 12.855 34.83L14.9112 26.6025C14.9698 26.3718 15.0894 26.1611 15.2575 25.9925C15.4412 25.8089 15.6753 25.6838 15.9301 25.6331C16.1848 25.5825 16.4489 25.6085 16.6889 25.7079C16.9289 25.8073 17.1341 25.9756 17.2784 26.1916C17.4228 26.4076 17.4999 26.6615 17.5 26.9213V31.25C17.5 32.5761 18.0268 33.8479 18.9645 34.7855C19.9021 35.7232 21.1739 36.25 22.5 36.25H31.25V41.25C31.25 41.913 31.5134 42.5489 31.9822 43.0178C32.4511 43.4866 33.0869 43.75 33.75 43.75C34.413 43.75 35.0489 43.4866 35.5177 43.0178C35.9866 42.5489 36.25 41.913 36.25 41.25V33.75C36.25 33.087 35.9866 32.4511 35.5177 31.9822C35.0489 31.5134 34.413 31.25 33.75 31.25H27.5Z" fill="#206193"/>
<path d="M71.25 7.5H72.5V8.75C72.5 9.08152 72.6317 9.39946 72.8661 9.63388C73.1005 9.8683 73.4185 10 73.75 10C74.0815 10 74.3995 9.8683 74.6339 9.63388C74.8683 9.39946 75 9.08152 75 8.75V7.5H76.25C76.5815 7.5 76.8995 7.3683 77.1339 7.13388C77.3683 6.89946 77.5 6.58152 77.5 6.25C77.5 5.91848 77.3683 5.60054 77.1339 5.36612C76.8995 5.1317 76.5815 5 76.25 5H75V3.75C75 3.41848 74.8683 3.10054 74.6339 2.86612C74.3995 2.6317 74.0815 2.5 73.75 2.5C73.4185 2.5 73.1005 2.6317 72.8661 2.86612C72.6317 3.10054 72.5 3.41848 72.5 3.75V5H71.25C70.9185 5 70.6005 5.1317 70.3661 5.36612C70.1317 5.60054 70 5.91848 70 6.25C70 6.58152 70.1317 6.89946 70.3661 7.13388C70.6005 7.3683 70.9185 7.5 71.25 7.5Z" fill="#FAB400"/>
<path d="M53.75 25H52.5V23.75C52.5 23.4185 52.3683 23.1005 52.1339 22.8661C51.8995 22.6317 51.5815 22.5 51.25 22.5C50.9185 22.5 50.6005 22.6317 50.3661 22.8661C50.1317 23.1005 50 23.4185 50 23.75V25H48.75C48.4185 25 48.1005 25.1317 47.8661 25.3661C47.6317 25.6005 47.5 25.9185 47.5 26.25C47.5 26.5815 47.6317 26.8995 47.8661 27.1339C48.1005 27.3683 48.4185 27.5 48.75 27.5H50V28.75C50 29.0815 50.1317 29.3995 50.3661 29.6339C50.6005 29.8683 50.9185 30 51.25 30C51.5815 30 51.8995 29.8683 52.1339 29.6339C52.3683 29.3995 52.5 29.0815 52.5 28.75V27.5H53.75C54.0815 27.5 54.3995 27.3683 54.6339 27.1339C54.8683 26.8995 55 26.5815 55 26.25C55 25.9185 54.8683 25.6005 54.6339 25.3661C54.3995 25.1317 54.0815 25 53.75 25Z" fill="#FAB400"/>
<path d="M51.25 10H52.5V11.25C52.5 11.5815 52.6317 11.8995 52.8661 12.1339C53.1005 12.3683 53.4185 12.5 53.75 12.5C54.0815 12.5 54.3995 12.3683 54.6339 12.1339C54.8683 11.8995 55 11.5815 55 11.25V10H56.25C56.5815 10 56.8995 9.8683 57.1339 9.63388C57.3683 9.39946 57.5 9.08152 57.5 8.75C57.5 8.41848 57.3683 8.10054 57.1339 7.86612C56.8995 7.6317 56.5815 7.5 56.25 7.5H55V6.25C55 5.91848 54.8683 5.60054 54.6339 5.36612C54.3995 5.1317 54.0815 5 53.75 5C53.4185 5 53.1005 5.1317 52.8661 5.36612C52.6317 5.60054 52.5 5.91848 52.5 6.25V7.5H51.25C50.9185 7.5 50.6005 7.6317 50.3661 7.86612C50.1317 8.10054 50 8.41848 50 8.75C50 9.08152 50.1317 9.39946 50.3661 9.63388C50.6005 9.8683 50.9185 10 51.25 10Z" fill="#FAB400"/>
</svg>
