<svg width="25" height="20" viewBox="0 0 25 20" fill="none" xmlns="http://www.w3.org/2000/svg">
<g clip-path="url(#clip0_86_29724)">
<path d="M2.71587 7.38311C2.68342 7.38311 2.65097 7.33278 2.68342 7.28245L2.91056 6.77917C2.94301 6.72884 2.97546 6.67851 3.04036 6.67851H7.12891C7.16136 6.67851 7.19381 6.72884 7.16136 6.77917L6.96666 7.23212C6.93422 7.28245 6.90177 7.33278 6.83687 7.33278L2.71587 7.38311ZM0.996085 8.99363C0.963636 8.99363 0.931187 8.9433 0.963636 8.89297L1.19078 8.38969C1.22323 8.33936 1.25568 8.28903 1.32057 8.28903H6.54483C6.57728 8.28903 6.60973 8.33936 6.60973 8.38969L6.51238 8.89297C6.51238 8.9433 6.44748 8.99363 6.41503 8.99363H0.996085ZM3.75423 10.6545C3.72178 10.6545 3.68933 10.6042 3.72178 10.5538L3.88403 10.1009C3.91648 10.0505 3.94893 10.0002 4.01382 10.0002H6.28524C6.31769 10.0002 6.35014 10.0505 6.35014 10.1009L6.31769 10.5035C6.31769 10.5538 6.28524 10.6042 6.25279 10.6042L3.75423 10.6545ZM15.6305 7.03081L13.716 7.78574C13.5538 7.83607 13.5213 7.8864 13.3915 7.58443C13.2293 7.28245 13.0995 7.08114 12.8399 6.93015C12.126 6.37653 11.4121 6.52752 10.7632 7.18179C9.9844 7.93673 9.59502 9.09429 9.59502 10.5538C9.59502 11.963 10.244 13.1206 11.1526 13.3219C11.9313 13.4729 12.5803 13.0703 13.0995 12.1643C13.1968 11.963 13.2942 11.7617 13.424 11.5101H11.2175C10.9903 11.5101 10.9254 11.2584 10.9903 10.9565C11.1526 10.4028 11.4121 9.49692 11.5744 9.04396C11.6068 8.9433 11.7042 8.74199 11.8664 8.74199H16.0199C15.9874 9.24527 15.9874 9.69823 15.955 10.2015C15.8252 11.4597 15.5331 12.6676 15.014 13.6742C14.2027 15.3351 13.1319 16.392 11.7691 16.6939C10.6334 16.9456 9.59502 16.5933 8.68645 15.5364C7.84278 14.5298 7.35605 13.2212 7.22625 11.6107C7.06401 9.69823 7.4534 7.93673 8.19972 6.42686C9.01094 4.76601 10.0817 3.70911 11.4121 3.35681C12.483 3.05484 13.5213 3.25615 14.4299 4.2124C15.0464 4.81634 15.4682 5.67193 15.7603 6.72884C15.7927 6.93015 15.7603 6.98048 15.6305 7.03081Z" fill="#00ACD7"/>
<path d="M19.3943 16.8451C18.3559 16.7947 17.4149 16.3418 16.6037 15.2849C15.9223 14.379 15.5004 13.2214 15.3706 11.8625C15.1759 9.84938 15.5329 8.08787 16.3116 6.52768C17.1553 4.81651 18.1612 3.96092 19.5241 3.55829C20.6922 3.25632 21.7955 3.4073 22.769 4.4642C23.6775 5.42045 24.2292 6.729 24.3914 8.44018C24.5861 10.856 24.1318 12.7684 23.0934 14.4293C22.3471 15.6372 21.4061 16.3418 20.3677 16.6941C20.0108 16.7947 19.6863 16.7947 19.3943 16.8451ZM22.12 9.69839C22.12 9.44675 22.12 9.29576 22.0875 9.09445C21.8928 7.33294 20.8545 6.32637 19.7512 6.729C18.6804 7.0813 17.999 8.1382 17.7394 9.79905C17.5447 11.1579 17.9665 12.5671 18.7778 13.1711C19.3943 13.5737 20.0433 13.5234 20.6273 13.0704C21.5684 12.3658 22.0551 11.2083 22.12 9.69839Z" fill="#00ACD7"/>
</g>
<defs>
<clipPath id="clip0_86_29724">
<rect x="0.930664" y="0.827637" width="23.6552" height="18.3448" rx="1" fill="white"/>
</clipPath>
</defs>
</svg>
