<svg width="21" height="17" viewBox="0 0 21 17" fill="none" xmlns="http://www.w3.org/2000/svg">
<g clip-path="url(#clip0_86_29809)">
<path d="M13.1149 5.0477H13.7042L15.3829 3.37888L15.4655 2.6708C12.3419 -0.0698049 7.57361 0.225498 4.81672 3.3306C4.0502 4.19318 3.49413 5.21909 3.19141 6.32949C3.37838 6.25305 3.58559 6.24098 3.78066 6.29409L7.13733 5.74372C7.13733 5.74372 7.30812 5.4629 7.39635 5.4806C8.88973 3.8504 11.403 3.6605 13.127 5.0477H13.1149Z" fill="#EA4335"/>
<path d="M17.7742 6.32933C17.3881 4.91719 16.5965 3.64747 15.4949 2.67627L13.1394 5.01777C14.1342 5.82563 14.7008 7.04305 14.6765 8.32001V8.73601C15.8348 8.73601 16.7729 9.66939 16.7729 10.82C16.7729 11.9715 15.834 12.904 14.6765 12.904H10.4829L10.0645 13.3257V15.8257L10.4829 16.2417H14.6765C17.0805 16.2602 19.2133 14.7113 19.9272 12.4293C20.6395 10.1465 19.7654 7.66825 17.7742 6.32933Z" fill="#4285F4"/>
<path d="M6.28296 16.2187H10.4766V12.8818H6.28296C5.98428 12.8818 5.68884 12.8183 5.41688 12.6943L4.82762 12.8754L3.13755 14.5442L2.99023 15.13C3.93807 15.8413 5.09473 16.2235 6.28296 16.2187Z" fill="#34A853"/>
<path d="M6.28342 5.39261C3.9539 5.40629 1.89069 6.88924 1.14764 9.08349C0.404595 11.2777 1.14521 13.6997 2.9915 15.111L5.42381 12.6931C4.36833 12.2192 3.89967 10.9849 4.37642 9.9356C4.85317 8.88635 6.09482 8.42047 7.15031 8.8944C7.61491 9.10361 7.98725 9.47374 8.1977 9.9356L10.63 7.51766C9.59476 6.17311 7.98644 5.38698 6.28342 5.39261Z" fill="#FBBC05"/>
</g>
<defs>
<clipPath id="clip0_86_29809">
<rect width="19.3103" height="15.4483" fill="white" transform="translate(0.862305 0.793457)"/>
</clipPath>
</defs>
</svg>
