<svg width="80" height="80" viewBox="0 0 80 80" fill="none" xmlns="http://www.w3.org/2000/svg">
<path d="M39.0354 39.262V63.9318H21.2607V39.262C21.2607 38.1017 22.2013 37.1611 23.361 37.1611H36.9346C38.0949 37.1611 39.0354 38.1017 39.0354 39.262Z" fill="#F44545"/>
<path d="M56.8098 22.9419V63.9319H39.0352V22.9419C39.0352 21.7816 39.9757 20.8411 41.136 20.8411H54.709C55.8693 20.8411 56.8098 21.7816 56.8098 22.9419Z" fill="#FFB52D"/>
<path d="M74.5845 7.21436V59.8115L65.5891 61.8976L56.8098 63.932V7.21436C56.8098 6.05408 57.7504 5.11353 58.9106 5.11353H72.4843C73.6439 5.11353 74.5845 6.05408 74.5845 7.21436Z" fill="#2476ED"/>
<path d="M39.035 39.262V63.9318H30.0391V39.262C30.0391 38.1017 30.9814 37.1611 32.1399 37.1611H36.9342C38.0945 37.1611 39.035 38.1017 39.035 39.262Z" fill="#FB5858"/>
<path d="M56.8098 22.9419V63.9319H47.8145V22.9419C47.8145 21.7816 48.7562 20.8411 49.9147 20.8411H54.709C55.8693 20.8411 56.8098 21.7816 56.8098 22.9419Z" fill="#FFC14F"/>
<path d="M74.5845 7.21436V59.8115L65.5891 61.8977V7.21436C65.5891 6.05408 66.5309 5.11353 67.6899 5.11353H72.4843C73.6439 5.11353 74.5845 6.05408 74.5845 7.21436Z" fill="#5596FB"/>
<path d="M6.48975 32.5463C5.83607 32.5463 5.29713 32.0257 5.27882 31.3684C5.25989 30.7 5.78602 30.1428 6.45374 30.1226C6.49403 30.1214 10.5596 29.9615 16.0308 27.3992C21.079 25.0354 28.399 20.0793 34.6026 9.8919C34.9505 9.32 35.6963 9.13873 36.2676 9.48663C36.8395 9.83514 37.0208 10.5804 36.6723 11.1523C30.1165 21.9189 22.3174 27.1569 16.9292 29.6551C11.032 32.3889 6.70582 32.5402 6.52454 32.5457C6.51295 32.5457 6.50135 32.5463 6.48975 32.5463Z" fill="#00D27E"/>
<path d="M30.5086 7.13188L41.4889 2.68424C41.758 2.57499 42.0443 2.79838 42.004 3.08646L40.3658 14.8193C40.3256 15.1074 39.9892 15.2435 39.7598 15.0646L30.4177 7.77946C30.1888 7.60124 30.2389 7.24113 30.5086 7.13188Z" fill="#00D27E"/>
<path d="M78.3413 61.6798L50.5769 75.757C46.8465 78.1306 42.101 78.0898 38.4297 75.7253C36.7067 74.6144 36.1653 74.507 27.104 70.0264C23.0775 68.0568 19.4093 67.4293 13.4297 66.692V49.3013H33.2582C34.4899 49.3013 35.6697 49.7908 36.5407 50.6617C36.8129 50.9346 34.7316 48.8533 45.4598 59.579C46.2746 60.3938 46.678 61.4815 46.6481 62.5581L46.8391 62.4275L75.9414 55.1008C79.7976 54.6132 81.5249 59.6589 78.3413 61.6798Z" fill="#F2BB88"/>
<path d="M45.5708 65.1533C44.0401 66.736 41.5224 66.7604 39.9611 65.2028L32.5453 57.7852C32.1498 57.3897 31.6127 57.1669 31.053 57.1669H13.4297V49.3013H33.2588C34.4905 49.3013 35.6703 49.7908 36.5407 50.6611C36.8129 50.9334 34.7316 48.8527 45.4598 59.5784C46.9728 61.0914 47.0809 63.5902 45.5708 65.1533Z" fill="#F2D1A5"/>
<path d="M14.422 48.8185V70.3194C14.422 70.6252 14.3927 70.9254 14.3396 71.2166C14.3396 71.2166 14.3396 71.2166 14.3378 71.2166C13.9142 73.4914 11.9074 75.2284 9.51295 75.2284H4.90906C2.20886 75.2284 0 73.0196 0 70.3194V48.8185C0 46.4125 1.75354 44.3977 4.04603 43.9869C4.3274 43.9351 4.61487 43.9094 4.90906 43.9094H9.51295C12.2131 43.9094 14.422 46.1183 14.422 48.8185Z" fill="#919196"/>
<path d="M14.4225 48.8185V70.3194C14.4225 70.6252 14.3932 70.9254 14.3401 71.2166C14.3401 71.2166 14.3401 71.2166 14.3383 71.2166C14.0569 71.2679 13.7694 71.2941 13.474 71.2941H8.87195C6.17176 71.2941 3.96289 69.0852 3.96289 66.385V44.8842C3.96289 44.5784 3.99158 44.2781 4.04651 43.9869C4.32788 43.9351 4.61536 43.9094 4.90955 43.9094H9.51343C12.2136 43.9094 14.4225 46.1183 14.4225 48.8185Z" fill="#A0A0A5"/>
<path d="M10.1145 67.4952C10.1145 69.0986 8.81507 70.3987 7.21106 70.3987C5.60767 70.3987 4.30762 69.0986 4.30762 67.4952C4.30762 65.8918 5.60767 64.5918 7.21106 64.5918C8.81507 64.5918 10.1145 65.8918 10.1145 67.4952Z" fill="#5A5F64"/>
</svg>
