<svg width="26" height="24" viewBox="0 0 26 24" fill="none" xmlns="http://www.w3.org/2000/svg">
<g clip-path="url(#clip0_86_29817)">
<path d="M8.67075 22.7391C8.11011 22.7391 7.58068 22.5035 7.22247 22.0764L1.77211 15.6699C1.41391 15.2427 1.27379 14.6979 1.41391 14.1676L3.3605 6.17057C3.48506 5.64035 3.85882 5.21322 4.37278 4.97763L12.2526 1.41346C12.5018 1.29576 12.7821 1.23682 13.0624 1.23682C13.3428 1.23682 13.623 1.29567 13.8722 1.41355L21.7521 4.96292C22.266 5.19851 22.6397 5.62564 22.7643 6.15585L24.7109 14.1529C24.8355 14.6831 24.7109 15.228 24.3528 15.6552L18.9022 22.0617C18.544 22.474 18.0146 22.7244 17.4539 22.7244L8.67094 22.7391H8.67075Z" fill="#326DE6"/>
<path d="M13.0479 1.60532C13.266 1.60532 13.484 1.64946 13.6865 1.73783L21.5664 5.2872C21.9712 5.47865 22.2827 5.83212 22.3761 6.24454L24.3227 14.2416C24.4317 14.6687 24.3227 15.1106 24.0268 15.4492L18.5764 21.8558C18.296 22.1945 17.86 22.3859 17.4084 22.3859H8.67199C8.22035 22.3859 7.78435 22.1945 7.50403 21.8558L2.05358 15.4492C1.77325 15.1106 1.66416 14.6687 1.7577 14.2416L3.70429 6.24454C3.81329 5.81741 4.10917 5.46394 4.51404 5.2872L12.394 1.72321C12.5965 1.64955 12.83 1.60541 13.048 1.60541L13.0479 1.60532ZM13.0479 0.913086C12.7209 0.913086 12.3939 0.986741 12.0824 1.11925L4.20261 4.68342C3.57964 4.96324 3.14365 5.47865 2.98788 6.11194L1.04129 14.1091C0.88562 14.7424 1.04129 15.3904 1.47738 15.9059L6.92783 22.3124C7.34836 22.8131 7.98679 23.0929 8.65643 23.0929H17.3928C18.0624 23.0929 18.7009 22.8131 19.1214 22.3124L24.5719 15.9058C25.0079 15.4051 25.1637 14.7424 25.0079 14.109L23.0613 6.11194C22.9056 5.47865 22.4696 4.96324 21.8467 4.68342L13.9979 1.11916C13.702 0.986741 13.375 0.913086 13.0479 0.913086Z" fill="white"/>
<path d="M20.9429 13.608C20.9273 13.608 20.9273 13.608 20.9429 13.608H20.9273C20.9118 13.608 20.8962 13.608 20.8962 13.5933C20.8651 13.5933 20.834 13.5786 20.8028 13.5786C20.6938 13.5639 20.6003 13.5491 20.5069 13.5491C20.4601 13.5491 20.4135 13.5491 20.3511 13.5343H20.3356C20.0086 13.5049 19.7438 13.4755 19.4946 13.4018C19.3856 13.3576 19.3545 13.2988 19.3233 13.2398C19.3233 13.2251 19.3077 13.2251 19.3077 13.2104L19.1053 13.1515C19.2009 12.4587 19.164 11.7553 18.9963 11.0748C18.8263 10.3887 18.5312 9.73586 18.1242 9.14552L18.28 9.01301V8.98359C18.28 8.90993 18.2955 8.83628 18.3578 8.76262C18.5447 8.6006 18.7783 8.46809 19.0586 8.30606C19.1053 8.27664 19.152 8.26192 19.1987 8.23241C19.2922 8.18827 19.3701 8.14413 19.4635 8.08519C19.4791 8.07047 19.5102 8.05576 19.5414 8.02633C19.5569 8.01153 19.5725 8.01153 19.5725 7.99682C19.7905 7.82008 19.8373 7.52555 19.6815 7.33401C19.6036 7.23093 19.4635 7.17207 19.3233 7.17207C19.1988 7.17207 19.0897 7.21621 18.9807 7.28987L18.9496 7.3193C18.9185 7.33401 18.9029 7.36352 18.8717 7.37824C18.7939 7.45189 18.7315 7.51075 18.6693 7.5844C18.6382 7.61383 18.6071 7.65806 18.5603 7.68748C18.3422 7.90845 18.1398 8.08519 17.9373 8.21769C17.8907 8.24712 17.844 8.26192 17.7972 8.26192C17.7661 8.26192 17.7349 8.26192 17.7038 8.24712H17.6727L17.4857 8.36501C17.2833 8.15884 17.0653 7.9821 16.8473 7.80537C15.9086 7.11145 14.7789 6.68714 13.5925 6.58292L13.577 6.39147L13.5458 6.36204C13.4991 6.31781 13.4368 6.27367 13.4212 6.17059C13.4056 5.93491 13.4368 5.66981 13.468 5.37528V5.36056C13.468 5.31633 13.4835 5.25748 13.4991 5.21325C13.5146 5.12497 13.5302 5.03651 13.5458 4.93343V4.80092C13.5458 4.53582 13.3278 4.31494 13.0631 4.31494C12.9384 4.31494 12.8139 4.37379 12.7204 4.46216C12.6271 4.55053 12.5803 4.66833 12.5803 4.80092V4.91872C12.5803 5.0218 12.5959 5.11017 12.627 5.19854C12.6426 5.24277 12.6426 5.28691 12.6581 5.34585V5.36056C12.6892 5.65509 12.736 5.9202 12.7049 6.15588C12.6893 6.25896 12.627 6.3031 12.5803 6.34733L12.5492 6.37676L12.5336 6.56821C12.2532 6.59763 11.9729 6.62706 11.6926 6.686C10.4935 6.93639 9.43457 7.51084 8.60926 8.33549L8.45349 8.23241H8.42238C8.39126 8.23241 8.36005 8.24712 8.32894 8.24712C8.28217 8.24712 8.2355 8.23241 8.18873 8.20298C7.98629 8.07047 7.78385 7.87893 7.56586 7.65806C7.53474 7.62863 7.50363 7.5844 7.45686 7.55498C7.39454 7.48132 7.33221 7.42238 7.25433 7.34881C7.23877 7.33401 7.20766 7.31938 7.17654 7.28987C7.16098 7.27516 7.14542 7.27516 7.14542 7.26044C7.04894 7.18506 6.92793 7.14342 6.80278 7.14256C6.66257 7.14256 6.52246 7.2015 6.44458 7.30458C6.28881 7.49603 6.33558 7.79057 6.55357 7.9673C6.56913 7.9673 6.56913 7.98211 6.58469 7.98211C6.6158 7.99682 6.63146 8.02624 6.66257 8.04096C6.75601 8.09981 6.83389 8.14404 6.92733 8.18827C6.9741 8.20298 7.02077 8.23241 7.06754 8.26192C7.34777 8.42386 7.58142 8.55646 7.7683 8.71848C7.84618 8.79205 7.84618 8.8657 7.84618 8.93936V8.96878L8.00185 9.10138C7.97073 9.14552 7.93962 9.17504 7.92397 9.21918C7.14533 10.3827 6.84945 11.7524 7.05189 13.1073L6.84945 13.1662C6.84945 13.181 6.83389 13.181 6.83389 13.1956C6.80278 13.2545 6.75601 13.3135 6.66257 13.3576C6.42902 13.4313 6.1487 13.4608 5.8217 13.4902H5.80605C5.75938 13.4902 5.69705 13.4902 5.65038 13.5049C5.55694 13.5049 5.4635 13.5196 5.3545 13.5343C5.32339 13.5343 5.29227 13.5491 5.26106 13.5491C5.24551 13.5491 5.22995 13.5491 5.2143 13.5639C4.93397 13.6227 4.76265 13.8731 4.80942 14.1087C4.85619 14.315 5.05862 14.4475 5.30774 14.4475C5.3545 14.4475 5.38562 14.4475 5.43239 14.4327C5.44794 14.4327 5.4635 14.4327 5.4635 14.418C5.49462 14.418 5.52573 14.4033 5.55685 14.4033C5.66594 14.3739 5.74382 14.3445 5.83726 14.3002C5.88393 14.2855 5.93061 14.256 5.97737 14.2414H5.99293C6.28881 14.1382 6.55357 14.0498 6.80278 14.0204H6.83389C6.92733 14.0204 6.98966 14.0646 7.03633 14.0941C7.05189 14.0941 7.05189 14.1088 7.06745 14.1088L7.28554 14.0794C7.6593 15.1691 8.37561 16.1412 9.32557 16.8481C9.54357 17.0101 9.76156 17.1427 9.99521 17.2753L9.90177 17.4666C9.90177 17.4814 9.91733 17.4814 9.91733 17.496C9.94844 17.555 9.97956 17.6286 9.94844 17.7317C9.85509 17.9527 9.71489 18.1736 9.54356 18.424V18.4387C9.51245 18.4829 9.48133 18.5123 9.45022 18.5565C9.38789 18.6301 9.34113 18.7038 9.2788 18.7921C9.26324 18.8069 9.24769 18.8363 9.23213 18.8658C9.23213 18.8805 9.21657 18.8952 9.21657 18.8952C9.09202 19.1456 9.18546 19.4254 9.41901 19.5285C9.48124 19.5579 9.54357 19.5727 9.60589 19.5727C9.79277 19.5727 9.97965 19.4549 10.0731 19.2928C10.0731 19.2781 10.0886 19.2634 10.0886 19.2634C10.1042 19.234 10.1198 19.2046 10.1353 19.1898C10.1821 19.0867 10.1976 19.013 10.2288 18.9247L10.2755 18.7921C10.3845 18.4976 10.4624 18.2619 10.6025 18.0558C10.6648 17.9674 10.7427 17.9527 10.805 17.9232C10.8205 17.9232 10.8205 17.9232 10.8361 17.9085L10.9452 17.717C11.6304 17.9674 12.3779 18.0999 13.1253 18.0999C13.577 18.0999 14.0442 18.0558 14.4802 17.9527C14.7547 17.8947 15.0251 17.8209 15.29 17.7317L15.3833 17.8937C15.399 17.8937 15.399 17.8937 15.4146 17.9085C15.4924 17.9232 15.5547 17.9527 15.617 18.0411C15.7415 18.2472 15.835 18.4976 15.944 18.7774V18.7921L15.9907 18.9247C16.0219 19.013 16.0374 19.1014 16.0841 19.1898C16.0997 19.2192 16.1153 19.234 16.1309 19.2634C16.1309 19.2781 16.1465 19.2928 16.1465 19.2928C16.2399 19.4696 16.4267 19.5727 16.6136 19.5727C16.6759 19.5727 16.7383 19.5579 16.8005 19.5285C16.9095 19.4697 17.0029 19.3812 17.0341 19.2634C17.0653 19.1456 17.0653 19.013 17.003 18.8952C17.003 18.8805 16.9874 18.8805 16.9874 18.8658C16.9718 18.8364 16.9563 18.8069 16.9407 18.7921C16.8939 18.7038 16.8317 18.6301 16.7694 18.5565C16.7383 18.5123 16.7072 18.4829 16.676 18.4388V18.424C16.5046 18.1736 16.3489 17.9527 16.2711 17.7317C16.24 17.6286 16.2711 17.5698 16.2866 17.4961C16.2866 17.4814 16.3022 17.4814 16.3022 17.4667L16.2243 17.29C17.0497 16.8334 17.7505 16.1853 18.28 15.3901C18.5603 14.9777 18.7783 14.5211 18.934 14.0646L19.1209 14.094C19.1365 14.094 19.1365 14.0793 19.152 14.0793C19.2143 14.0498 19.2611 14.0057 19.3545 14.0057H19.3856C19.6348 14.0351 19.8995 14.1234 20.1955 14.2266H20.211C20.2577 14.2413 20.3044 14.2707 20.3511 14.2854C20.4446 14.3297 20.5225 14.3591 20.6315 14.3886C20.6626 14.3886 20.6937 14.4033 20.7249 14.4033C20.7405 14.4033 20.756 14.4033 20.7716 14.418C20.8183 14.4327 20.8494 14.4327 20.8962 14.4327C21.1298 14.4327 21.3322 14.2855 21.3945 14.0941C21.3945 13.9173 21.2232 13.6817 20.9429 13.6081V13.608ZM13.7326 12.8863L13.0474 13.1957L12.3622 12.8863L12.191 12.1942L12.6581 11.6346H13.4212L13.8884 12.1942L13.7327 12.8863H13.7326ZM17.7972 11.3547C17.918 11.8417 17.9548 12.344 17.9062 12.8421L15.5235 12.1942C15.3056 12.1353 15.181 11.9291 15.2277 11.7229C15.2432 11.664 15.2744 11.605 15.3211 11.5609L17.2055 9.95555C17.4701 10.368 17.6726 10.8393 17.7972 11.3547ZM16.458 9.07195L14.4179 10.4416C14.2466 10.5447 14.0129 10.5152 13.8728 10.3533C13.8262 10.309 13.8106 10.2501 13.795 10.1912L13.6548 7.79057C14.7154 7.90606 15.7034 8.35771 16.458 9.07195ZM11.9418 7.86413C12.1131 7.83471 12.2688 7.80528 12.4401 7.77585L12.3 10.1322C12.2844 10.3384 12.1131 10.5151 11.8795 10.5151C11.8172 10.5151 11.7394 10.5004 11.6926 10.471L9.62145 9.07195C10.26 8.46809 11.0542 8.05558 11.9418 7.86413ZM8.87393 9.95546L10.7271 11.5166C10.8984 11.6492 10.914 11.8995 10.7738 12.0615C10.7271 12.1204 10.6648 12.1646 10.587 12.1794L8.17317 12.8421C8.07973 11.8406 8.31329 10.8244 8.87393 9.95546ZM8.4534 13.9467L10.9296 13.549C11.132 13.5343 11.3189 13.6669 11.3656 13.8583C11.3812 13.9466 11.3812 14.0203 11.35 14.094L10.4001 16.2589C9.52801 15.7287 8.82716 14.9186 8.4534 13.9467ZM14.1376 16.8775C13.7794 16.9511 13.4212 16.9953 13.0474 16.9953C12.5024 16.9953 11.9729 16.907 11.4747 16.7597L12.7049 14.6536C12.8294 14.521 13.0319 14.4622 13.2032 14.5505C13.2759 14.5927 13.3394 14.6476 13.3901 14.7125L14.5891 16.7597C14.449 16.8038 14.2933 16.8333 14.1375 16.8775H14.1376ZM17.1743 14.8304C16.7849 15.4194 16.271 15.8907 15.6793 16.2589L14.6982 14.035C14.6515 13.8583 14.7294 13.6669 14.9162 13.5784C14.9785 13.549 15.0563 13.5343 15.1342 13.5343L17.6259 13.932C17.5325 14.2559 17.3767 14.5505 17.1743 14.8304Z" fill="white"/>
</g>
<defs>
<clipPath id="clip0_86_29817">
<rect width="24.1379" height="22.2069" fill="white" transform="translate(0.931641 0.896484)"/>
</clipPath>
</defs>
</svg>
