<svg width="170" height="42" viewBox="0 0 170 42" fill="none" xmlns="http://www.w3.org/2000/svg">
<g clip-path="url(#clip0_111_471)">
<path d="M51.8594 28.6385H63.8114V25.0385H56.1074V11.4785H51.8594V28.6385Z" fill="#340E0E"/>
<path d="M70.8938 26.2377C69.1898 26.2377 68.3018 24.7497 68.3018 22.5177C68.3018 20.2857 69.1898 18.7737 70.8938 18.7737C72.5978 18.7737 73.5098 20.2857 73.5098 22.5177C73.5098 24.7497 72.5978 26.2377 70.8938 26.2377ZM70.9178 29.0217C74.8778 29.0217 77.4698 26.2137 77.4698 22.5177C77.4698 18.8217 74.8778 16.0137 70.9178 16.0137C66.9818 16.0137 64.3418 18.8217 64.3418 22.5177C64.3418 26.2137 66.9818 29.0217 70.9178 29.0217Z" fill="#340E0E"/>
<path d="M84.3245 32.8862C86.1485 32.8862 87.7565 32.4782 88.8365 31.5182C89.8205 30.6302 90.4685 29.2862 90.4685 27.4382V16.3502H86.7245V17.6702H86.6765C85.9565 16.6382 84.8526 15.9902 83.2206 15.9902C80.1726 15.9902 78.0605 18.5342 78.0605 22.1342C78.0605 25.9022 80.6285 27.9662 83.3885 27.9662C84.8765 27.9662 85.8125 27.3662 86.5325 26.5502H86.6285V27.7742C86.6285 29.2622 85.9326 30.1262 84.2766 30.1262C82.9806 30.1262 82.3325 29.5742 82.1165 28.9262H78.3245C78.7085 31.4942 80.9405 32.8862 84.3245 32.8862ZM84.3005 25.0622C82.8365 25.0622 81.8765 23.8622 81.8765 22.0142C81.8765 20.1422 82.8365 18.9422 84.3005 18.9422C85.9325 18.9422 86.7965 20.3342 86.7965 21.9902C86.7965 23.7182 86.0045 25.0622 84.3005 25.0622Z" fill="#340E0E"/>
<path d="M98.1653 26.2377C96.4613 26.2377 95.5733 24.7497 95.5733 22.5177C95.5733 20.2857 96.4613 18.7737 98.1653 18.7737C99.8693 18.7737 100.781 20.2857 100.781 22.5177C100.781 24.7497 99.8693 26.2377 98.1653 26.2377ZM98.1893 29.0217C102.149 29.0217 104.741 26.2137 104.741 22.5177C104.741 18.8217 102.149 16.0137 98.1893 16.0137C94.2533 16.0137 91.6133 18.8217 91.6133 22.5177C91.6133 26.2137 94.2533 29.0217 98.1893 29.0217Z" fill="#340E0E"/>
<path d="M105.885 28.6385H109.797V16.3505H105.885V28.6385ZM105.885 14.6465H109.797V11.4785H105.885V14.6465Z" fill="#340E0E"/>
<path d="M111.494 32.6942H115.406V27.3662H115.454C116.222 28.3982 117.35 29.0222 118.934 29.0222C122.15 29.0222 124.286 26.4782 124.286 22.4942C124.286 18.7982 122.294 15.9902 119.03 15.9902C117.35 15.9902 116.15 16.7342 115.31 17.8382H115.238V16.3502H111.494V32.6942ZM117.926 25.9982C116.246 25.9982 115.286 24.6302 115.286 22.6382C115.286 20.6462 116.15 19.1342 117.854 19.1342C119.534 19.1342 120.326 20.5262 120.326 22.6382C120.326 24.7262 119.414 25.9982 117.926 25.9982Z" fill="#340E0E"/>
<path d="M130.656 29.0222C133.872 29.0222 136.248 27.6302 136.248 24.9422C136.248 21.7982 133.704 21.2462 131.544 20.8862C129.984 20.5982 128.592 20.4782 128.592 19.6142C128.592 18.8462 129.336 18.4862 130.296 18.4862C131.376 18.4862 132.12 18.8222 132.264 19.9262H135.864C135.672 17.5022 133.8 15.9902 130.32 15.9902C127.416 15.9902 125.016 17.3342 125.016 19.9262C125.016 22.8062 127.296 23.3822 129.432 23.7422C131.064 24.0302 132.552 24.1502 132.552 25.2542C132.552 26.0462 131.808 26.4782 130.632 26.4782C129.336 26.4782 128.52 25.8782 128.376 24.6542H124.68C124.8 27.3662 127.056 29.0222 130.656 29.0222Z" fill="#340E0E"/>
<path d="M141.56 28.9976C143.264 28.9976 144.344 28.3256 145.232 27.1256H145.304V28.6376H149.048V16.3496H145.136V23.2136C145.136 24.6776 144.32 25.6856 142.976 25.6856C141.728 25.6856 141.128 24.9416 141.128 23.5976V16.3496H137.24V24.4136C137.24 27.1496 138.728 28.9976 141.56 28.9976Z" fill="#340E0E"/>
<path d="M150.75 28.6382H154.662V21.7502C154.662 20.2862 155.382 19.2542 156.606 19.2542C157.782 19.2542 158.334 20.0222 158.334 21.3422V28.6382H162.246V21.7502C162.246 20.2862 162.942 19.2542 164.19 19.2542C165.366 19.2542 165.918 20.0222 165.918 21.3422V28.6382H169.83V20.6462C169.83 17.8862 168.438 15.9902 165.654 15.9902C164.07 15.9902 162.75 16.6622 161.79 18.1502H161.742C161.118 16.8302 159.894 15.9902 158.286 15.9902C156.51 15.9902 155.334 16.8302 154.566 18.1022H154.494V16.3502H150.75V28.6382Z" fill="#340E0E"/>
<path fill-rule="evenodd" clip-rule="evenodd" d="M20.6836 40.6386C31.7293 40.6386 40.6836 31.6843 40.6836 20.6386C40.6836 9.59298 31.7293 0.638672 20.6836 0.638672C9.63788 0.638672 0.683594 9.59298 0.683594 20.6386C0.683594 31.6843 9.63788 40.6386 20.6836 40.6386ZM26.9229 9.95551C27.2266 8.87672 26.1797 8.2388 25.2236 8.91997L11.8767 18.4282C10.8398 19.1669 11.0029 20.6386 12.1217 20.6386H15.6363V20.6114H22.4861L16.9048 22.5807L14.4443 31.3218C14.1406 32.4006 15.1874 33.0385 16.1436 32.3573L29.4905 22.8491C30.5274 22.1104 30.3642 20.6386 29.2455 20.6386H23.9157L26.9229 9.95551Z" fill="#F15757"/>
</g>
<defs>
<clipPath id="clip0_111_471">
<rect width="170" height="41" fill="white" transform="translate(0 0.5)"/>
</clipPath>
</defs>
</svg>
