<svg width="170" height="42" viewBox="0 0 170 42" fill="none" xmlns="http://www.w3.org/2000/svg">
<g clip-path="url(#clip0_111_483)">
<path d="M51.2773 29.8241H63.2293V26.2241H55.5253V12.6641H51.2773V29.8241Z" fill="#2F234F"/>
<path d="M70.3098 27.4232C68.6058 27.4232 67.7178 25.9352 67.7178 23.7032C67.7178 21.4712 68.6058 19.9592 70.3098 19.9592C72.0138 19.9592 72.9258 21.4712 72.9258 23.7032C72.9258 25.9352 72.0138 27.4232 70.3098 27.4232ZM70.3338 30.2072C74.2938 30.2072 76.8858 27.3992 76.8858 23.7032C76.8858 20.0072 74.2938 17.1992 70.3338 17.1992C66.3978 17.1992 63.7578 20.0072 63.7578 23.7032C63.7578 27.3992 66.3978 30.2072 70.3338 30.2072Z" fill="#2F234F"/>
<path d="M83.7406 34.0718C85.5646 34.0718 87.1726 33.6638 88.2526 32.7038C89.2366 31.8158 89.8846 30.4718 89.8846 28.6238V17.5358H86.1406V18.8558H86.0926C85.3726 17.8238 84.2686 17.1758 82.6366 17.1758C79.5886 17.1758 77.4766 19.7198 77.4766 23.3198C77.4766 27.0878 80.0446 29.1518 82.8046 29.1518C84.2926 29.1518 85.2286 28.5518 85.9486 27.7358H86.0446V28.9598C86.0446 30.4478 85.3486 31.3118 83.6926 31.3118C82.3966 31.3118 81.7486 30.7598 81.5326 30.1118H77.7406C78.1246 32.6798 80.3566 34.0718 83.7406 34.0718ZM83.7166 26.2478C82.2526 26.2478 81.2926 25.0478 81.2926 23.1998C81.2926 21.3278 82.2526 20.1278 83.7166 20.1278C85.3486 20.1278 86.2126 21.5198 86.2126 23.1758C86.2126 24.9038 85.4206 26.2478 83.7166 26.2478Z" fill="#2F234F"/>
<path d="M97.5832 27.4232C95.8792 27.4232 94.9912 25.9352 94.9912 23.7032C94.9912 21.4712 95.8792 19.9592 97.5832 19.9592C99.2872 19.9592 100.199 21.4712 100.199 23.7032C100.199 25.9352 99.2872 27.4232 97.5832 27.4232ZM97.6072 30.2072C101.567 30.2072 104.159 27.3992 104.159 23.7032C104.159 20.0072 101.567 17.1992 97.6072 17.1992C93.6712 17.1992 91.0312 20.0072 91.0312 23.7032C91.0312 27.3992 93.6712 30.2072 97.6072 30.2072Z" fill="#2F234F"/>
<path d="M105.303 29.8241H109.215V17.5361H105.303V29.8241ZM105.303 15.8321H109.215V12.6641H105.303V15.8321Z" fill="#2F234F"/>
<path d="M110.91 33.8798H114.822V28.5518H114.87C115.638 29.5838 116.766 30.2078 118.35 30.2078C121.566 30.2078 123.702 27.6638 123.702 23.6798C123.702 19.9838 121.71 17.1758 118.446 17.1758C116.766 17.1758 115.566 17.9198 114.726 19.0238H114.654V17.5358H110.91V33.8798ZM117.342 27.1838C115.662 27.1838 114.702 25.8158 114.702 23.8238C114.702 21.8318 115.566 20.3198 117.27 20.3198C118.95 20.3198 119.742 21.7118 119.742 23.8238C119.742 25.9118 118.83 27.1838 117.342 27.1838Z" fill="#2F234F"/>
<path d="M130.072 30.2078C133.288 30.2078 135.664 28.8158 135.664 26.1278C135.664 22.9838 133.12 22.4318 130.96 22.0718C129.4 21.7838 128.008 21.6638 128.008 20.7998C128.008 20.0318 128.752 19.6718 129.712 19.6718C130.792 19.6718 131.536 20.0078 131.68 21.1118H135.28C135.088 18.6878 133.216 17.1758 129.736 17.1758C126.832 17.1758 124.432 18.5198 124.432 21.1118C124.432 23.9918 126.712 24.5678 128.848 24.9278C130.48 25.2158 131.968 25.3358 131.968 26.4398C131.968 27.2318 131.224 27.6638 130.048 27.6638C128.752 27.6638 127.936 27.0638 127.792 25.8398H124.096C124.216 28.5518 126.472 30.2078 130.072 30.2078Z" fill="#2F234F"/>
<path d="M140.978 30.1832C142.682 30.1832 143.762 29.5112 144.65 28.3112H144.722V29.8232H148.466V17.5352H144.554V24.3992C144.554 25.8632 143.738 26.8712 142.394 26.8712C141.146 26.8712 140.546 26.1272 140.546 24.7832V17.5352H136.658V25.5992C136.658 28.3352 138.146 30.1832 140.978 30.1832Z" fill="#2F234F"/>
<path d="M150.168 29.8238H154.08V22.9358C154.08 21.4718 154.8 20.4398 156.024 20.4398C157.2 20.4398 157.752 21.2078 157.752 22.5278V29.8238H161.664V22.9358C161.664 21.4718 162.36 20.4398 163.608 20.4398C164.784 20.4398 165.336 21.2078 165.336 22.5278V29.8238H169.248V21.8318C169.248 19.0718 167.856 17.1758 165.072 17.1758C163.488 17.1758 162.168 17.8478 161.208 19.3358H161.16C160.536 18.0158 159.312 17.1758 157.704 17.1758C155.928 17.1758 154.752 18.0158 153.984 19.2878H153.912V17.5358H150.168V29.8238Z" fill="#2F234F"/>
<path fill-rule="evenodd" clip-rule="evenodd" d="M20.1015 40.8222C31.1473 40.8222 40.1015 31.8679 40.1015 20.8222C40.1015 9.77656 31.1473 0.822266 20.1015 0.822266C9.05585 0.822266 0.101562 9.77656 0.101562 20.8222C0.101562 31.8679 9.05585 40.8222 20.1015 40.8222ZM23.1885 16.2748C24.8933 14.5699 24.8933 11.8058 23.1885 10.1009C21.4836 8.39604 18.7195 8.39604 17.0146 10.1009C15.3098 11.8058 15.3098 14.5699 17.0146 16.2748L20.1015 19.3617L23.1885 16.2748ZM24.649 23.9092C26.3539 25.6141 29.118 25.6141 30.8229 23.9092C32.5277 22.2043 32.5277 19.4402 30.8229 17.7353C29.118 16.0305 26.3539 16.0305 24.649 17.7353L21.5621 20.8223L24.649 23.9092ZM23.1885 31.5436C24.8933 29.8387 24.8933 27.0746 23.1885 25.3697L20.1015 22.2828L17.0146 25.3697C15.3098 27.0746 15.3098 29.8387 17.0146 31.5436C18.7195 33.2485 21.4836 33.2485 23.1885 31.5436ZM9.38019 23.9092C7.67535 22.2043 7.67535 19.4402 9.38019 17.7353C11.0851 16.0305 13.8492 16.0305 15.5541 17.7353L18.641 20.8223L15.5541 23.9092C13.8492 25.6141 11.0851 25.6141 9.38019 23.9092Z" fill="#7F57F1"/>
</g>
<defs>
<clipPath id="clip0_111_483">
<rect width="170" height="41" fill="white" transform="translate(0 0.5)"/>
</clipPath>
</defs>
</svg>
