<svg width="106" height="42" viewBox="0 0 106 42" fill="none" xmlns="http://www.w3.org/2000/svg">
<path d="M21.6035 21.2914C21.6035 19.7946 22.4815 18.752 23.8232 18.752C25.165 18.752 26.0429 19.7946 26.0429 21.2914C26.0429 22.7715 25.165 23.8309 23.8232 23.8309C22.4815 23.8309 21.6035 22.7715 21.6035 21.2914Z" fill="#152C4F"/>
<path d="M32.9513 18.6836C31.6758 18.6836 30.8145 19.6926 30.8145 21.0717C30.8145 22.4676 31.6923 23.5103 32.9513 23.5103C34.3427 23.5103 35.2703 22.4508 35.2703 21.0717C35.2703 19.7095 34.3427 18.6836 32.9513 18.6836Z" fill="#152C4F"/>
<path d="M40.3438 21.2914C40.3438 19.7946 41.2217 18.752 42.5635 18.752C43.9052 18.752 44.7831 19.7946 44.7831 21.2914C44.7831 22.7715 43.9052 23.8309 42.5635 23.8309C41.2217 23.8309 40.3438 22.7715 40.3438 21.2914Z" fill="#152C4F"/>
<path d="M53.8438 21.3071C53.8438 19.8103 54.7382 18.7676 56.1462 18.7676C57.5542 18.7676 58.399 19.8271 58.399 21.3071C58.399 22.787 57.5542 23.8297 56.1462 23.8297C54.7382 23.8297 53.8438 22.8038 53.8438 21.3071Z" fill="#152C4F"/>
<path fill-rule="evenodd" clip-rule="evenodd" d="M53.0006 38.8849C81.1457 38.8849 103.962 30.7565 103.962 20.7296C103.962 10.7026 81.1457 2.57422 53.0006 2.57422C24.8553 2.57422 2.03906 10.7026 2.03906 20.7296C2.03906 30.7565 24.8553 38.8849 53.0006 38.8849ZM18.3292 25.4612V12.9487H16.3083V25.4612H18.3292ZM19.5661 21.2903C19.5661 23.8466 21.2557 25.663 23.8232 25.663C26.3908 25.663 28.0804 23.8466 28.0804 21.2903C28.0804 18.734 26.3908 16.9177 23.8232 16.9177C21.2557 16.9177 19.5661 18.734 19.5661 21.2903ZM32.6031 25.293C30.3006 25.293 28.76 23.544 28.76 21.1222C28.76 18.6836 30.3337 16.8841 32.6693 16.8841C33.8786 16.8841 34.9055 17.4055 35.4025 18.28L35.5184 17.1531H37.3074V25.0408C37.3074 27.7821 35.6179 29.5479 32.9675 29.5479C30.7147 29.5479 29.0748 28.1352 28.8098 25.9657H30.8472C30.9631 27.0589 31.8246 27.6812 33.0834 27.6812C34.4914 27.6812 35.3363 26.773 35.3363 25.4107V23.9981C34.8227 24.8053 33.7957 25.293 32.6031 25.293ZM38.3075 21.2903C38.3075 23.8466 39.9972 25.663 42.5647 25.663C45.1322 25.663 46.8218 23.8466 46.8218 21.2903C46.8218 18.734 45.1322 16.9177 42.5647 16.9177C39.9972 16.9177 38.3075 18.734 38.3075 21.2903ZM50.2181 14.2269C50.2181 14.9164 49.6715 15.4546 49.0089 15.4546C48.3297 15.4546 47.8162 14.9164 47.8162 14.2269C47.8162 13.5541 48.3297 13.016 49.0089 13.016C49.6715 13.016 50.2181 13.5541 50.2181 14.2269ZM50.0193 17.1531V25.4612H47.9985V17.1531H50.0193ZM51.7898 29.3124H53.761V24.3176C54.2745 25.1753 55.3843 25.6798 56.6102 25.6798C59.0286 25.6798 60.4697 23.7962 60.4366 21.2062C60.3869 18.5995 58.9126 16.9009 56.5936 16.9009C55.3512 16.9009 54.2248 17.4559 53.7279 18.4145L53.6119 17.1531H51.7898V29.3124ZM64.2295 25.6798C62.2749 25.6798 61.016 24.6203 60.9497 22.9721H62.7884C62.7884 23.6953 63.3019 24.1157 64.1964 24.1157C64.9418 24.1157 65.5547 23.8131 65.5547 23.1571C65.5547 22.6862 65.2234 22.4339 64.6933 22.2826L63.2688 21.9126C61.6951 21.4922 61.0822 20.6008 61.0822 19.5245C61.0822 17.9436 62.3909 16.9009 64.1467 16.9009C65.9191 16.9009 67.1283 17.9436 67.1946 19.5918H65.356C65.356 18.8686 64.859 18.4313 64.097 18.4313C63.3682 18.4313 62.9209 18.8349 62.9209 19.4068C62.9209 19.945 63.335 20.1635 63.9479 20.3317L65.3891 20.6849C66.7308 21.0212 67.4596 21.8285 67.4596 23.0226C67.4596 24.6371 66.151 25.6798 64.2295 25.6798ZM71.6516 25.6798C72.7611 25.6798 73.8211 25.1584 74.3016 24.3848L74.4345 25.4612H76.3227V17.1531H74.3016V21.509C74.3016 23.0058 73.7384 23.8466 72.4134 23.8466C71.3867 23.8466 70.6743 23.3421 70.6743 21.6267V17.1531H68.6532V22.3499C68.6532 24.3344 69.7133 25.6798 71.6516 25.6798ZM80.1274 20.6849V25.4612H78.1063V17.1531H79.9613L80.061 18.095C80.5415 17.355 81.4029 16.9009 82.3633 16.9009C83.7215 16.9009 84.6162 17.5063 85.0635 18.4818C85.4613 17.5063 86.4386 16.9009 87.681 16.9009C89.6688 16.9009 90.7119 18.1118 90.7119 20.029V25.4612H88.7572V20.4999C88.7572 19.3227 88.1283 18.7004 87.151 18.7004C86.1899 18.7004 85.4281 19.3395 85.4281 20.7017V25.4612H83.4565V20.4999C83.4565 19.3227 82.8276 18.7004 81.8665 18.7004C80.9062 18.7004 80.1274 19.3395 80.1274 20.6849Z" fill="#152C4F"/>
</svg>
