<svg width="22" height="16" viewBox="0 0 22 16" fill="none" xmlns="http://www.w3.org/2000/svg">
<g clip-path="url(#clip0_86_29662)">
<path d="M10.88 15.6791C10.8081 15.6791 10.741 15.6563 10.6787 15.6165L10.0411 15.1674C9.94517 15.1048 9.99312 15.082 10.0219 15.0707C10.1513 15.0195 10.1753 15.0081 10.3095 14.9172C10.3239 14.9058 10.3431 14.9115 10.3575 14.9228L10.8465 15.2697C10.8657 15.2811 10.8897 15.2811 10.904 15.2697L12.8169 13.9562C12.8361 13.9448 12.8457 13.922 12.8457 13.8937V11.2724C12.8457 11.2439 12.8361 11.2212 12.8169 11.2098L10.904 9.902C10.8848 9.89059 10.8609 9.89059 10.8465 9.902L8.9336 11.2098C8.91443 11.2212 8.90481 11.2496 8.90481 11.2723V13.8936C8.90481 13.9164 8.91443 13.9448 8.9336 13.9562L9.45618 14.3144C9.73905 14.485 9.91642 14.286 9.91642 14.087V11.4998C9.91642 11.4657 9.9404 11.4315 9.97396 11.4315H10.2184C10.2472 11.4315 10.276 11.46 10.276 11.4998V14.087C10.276 14.5361 10.0698 14.7977 9.71026 14.7977C9.6 14.7977 9.51372 14.7977 9.26918 14.6555L8.7658 14.3144C8.64115 14.2291 8.56445 14.0699 8.56445 13.8993V11.278C8.56445 11.1075 8.64115 10.9482 8.7658 10.8629L10.6787 9.54945C10.7986 9.46985 10.9616 9.46985 11.0814 9.54945L12.9943 10.8629C13.119 10.9482 13.1957 11.1075 13.1957 11.278V13.8993C13.1957 14.0699 13.119 14.2291 12.9943 14.3144L11.0814 15.6279C11.0191 15.662 10.9472 15.6791 10.88 15.6791ZM11.4697 13.8766C10.6308 13.8766 10.4582 13.4217 10.4582 13.0351C10.4582 13.0009 10.4821 12.9668 10.5157 12.9668H10.765C10.7938 12.9668 10.8177 12.9895 10.8177 13.0237C10.8561 13.325 10.9664 13.4729 11.4746 13.4729C11.8773 13.4729 12.0499 13.3648 12.0499 13.1089C12.0499 12.9611 12.0019 12.8531 11.3739 12.7792C10.8513 12.7166 10.5253 12.5802 10.5253 12.0855C10.5253 11.6249 10.8513 11.3519 11.3979 11.3519C12.0115 11.3519 12.3136 11.6022 12.3519 12.148C12.3519 12.1651 12.3471 12.1821 12.3375 12.1992C12.3279 12.2105 12.3136 12.2219 12.2992 12.2219H12.0499C12.0259 12.2219 12.0019 12.1992 11.9971 12.1707C11.9396 11.858 11.791 11.7556 11.3979 11.7556C10.9568 11.7556 10.904 11.9376 10.904 12.0741C10.904 12.239 10.9664 12.2901 11.5608 12.3811C12.1505 12.4721 12.4286 12.6029 12.4286 13.0919C12.4238 13.5923 12.0786 13.8766 11.4697 13.8766Z" fill="#539E43"/>
<path d="M4.94518 5.42706C4.94518 5.32473 4.89722 5.228 4.82052 5.17684L2.78776 3.78944C2.75416 3.76666 2.71583 3.7553 2.6775 3.74959H2.6583C2.61997 3.74959 2.5816 3.76666 2.54804 3.78944L0.515277 5.17684C0.438536 5.228 0.390625 5.32468 0.390625 5.42706L0.395437 9.15713C0.395437 9.20829 0.419413 9.25946 0.457742 9.28224C0.496113 9.31068 0.544024 9.31068 0.577624 9.28224L1.78577 8.46343C1.86247 8.41226 1.91043 8.31559 1.91043 8.21326V6.4676C1.91043 6.36527 1.95834 6.2686 2.03508 6.21743L2.54804 5.86487C2.58641 5.83644 2.62955 5.82502 2.67269 5.82502C2.71583 5.82502 2.75897 5.83644 2.79257 5.86487L3.30553 6.21743C3.38228 6.2686 3.43019 6.36522 3.43019 6.4676V8.21326C3.43019 8.31559 3.47814 8.41226 3.55484 8.46343L4.76299 9.28224C4.80136 9.31068 4.84927 9.31068 4.88764 9.28224C4.92601 9.25946 4.94999 9.20829 4.94999 9.15713L4.94518 5.42706ZM14.7159 0.292475C14.6775 0.269696 14.6296 0.269696 14.596 0.292475C14.5577 0.320911 14.5337 0.366371 14.5337 0.417537V4.11356C14.5337 4.14766 14.5193 4.18175 14.4905 4.20453C14.4618 4.22155 14.433 4.22155 14.4043 4.20453L13.8961 3.85768C13.8588 3.83252 13.8167 3.81929 13.7738 3.81929C13.7309 3.81929 13.6888 3.83252 13.6515 3.85768L11.6188 5.25078C11.5421 5.30195 11.4941 5.39862 11.4941 5.50095V8.28145C11.4941 8.38378 11.5421 8.4805 11.6188 8.53167L13.6515 9.92477C13.6888 9.94993 13.7309 9.96316 13.7738 9.96316C13.8167 9.96316 13.8588 9.94993 13.8961 9.92477L15.9288 8.53167C16.0055 8.4805 16.0535 8.38383 16.0535 8.28145V1.35009C16.0535 1.24205 16.0055 1.14543 15.9288 1.09421L14.7159 0.292475ZM14.5289 7.36601C14.5289 7.39445 14.5193 7.41718 14.5001 7.42854L13.805 7.90616C13.7953 7.91178 13.7846 7.9147 13.7738 7.9147C13.763 7.9147 13.7523 7.91178 13.7426 7.90616L13.0475 7.42854C13.0283 7.41718 13.0187 7.38874 13.0187 7.36601V6.41073C13.0187 6.38229 13.0283 6.35956 13.0475 6.3482L13.7426 5.87053C13.7523 5.86491 13.763 5.86199 13.7738 5.86199C13.7846 5.86199 13.7953 5.86491 13.805 5.87053L14.5001 6.3482C14.5193 6.35951 14.5289 6.388 14.5289 6.41073V7.36601ZM21.4806 6.388C21.5573 6.33683 21.6004 6.24016 21.6004 6.13778V5.46115C21.6004 5.35882 21.5525 5.26215 21.4806 5.21098L19.4622 3.82359C19.4249 3.79844 19.3828 3.78521 19.3399 3.78521C19.2971 3.78521 19.255 3.79844 19.2177 3.82359L17.1849 5.21664C17.1082 5.2678 17.0603 5.36448 17.0603 5.46686V8.24735C17.0603 8.34968 17.1082 8.44636 17.1849 8.49753L19.2033 9.86219C19.28 9.91335 19.3711 9.91335 19.443 9.86219L20.6655 9.05484C20.7039 9.03206 20.7279 8.9809 20.7279 8.92973C20.7279 8.87857 20.7039 8.8274 20.6655 8.80462L18.6232 7.41152C18.5849 7.38313 18.5609 7.33763 18.5609 7.28646V6.41649C18.5609 6.36532 18.5849 6.31415 18.6232 6.29137L19.2608 5.85922C19.2795 5.84528 19.3011 5.83789 19.3232 5.83789C19.3452 5.83789 19.3668 5.84528 19.3855 5.85922L20.0231 6.29137C20.0615 6.31981 20.0855 6.36527 20.0855 6.41649V7.09882C20.0855 7.14998 20.1094 7.20115 20.1478 7.22388C20.1861 7.25232 20.234 7.25232 20.2724 7.22388L21.4806 6.388Z" fill="#333333"/>
<path d="M19.3088 6.25705C19.3159 6.2515 19.3243 6.24854 19.3328 6.24854C19.3413 6.24854 19.3496 6.2515 19.3567 6.25705L19.7451 6.5243C19.7595 6.53561 19.769 6.55268 19.769 6.57546V7.10995C19.769 7.13268 19.7595 7.14975 19.7451 7.16112L19.3567 7.42836C19.3496 7.43392 19.3413 7.43688 19.3328 7.43688C19.3243 7.43688 19.3159 7.43392 19.3088 7.42836L18.9205 7.16112C18.9061 7.14975 18.8965 7.13268 18.8965 7.10995V6.57546C18.8965 6.55268 18.9061 6.53561 18.9205 6.5243L19.3088 6.25705Z" fill="#539E43"/>
<path d="M8.34466 3.83476C8.3074 3.80961 8.26528 3.79639 8.22241 3.79639C8.17954 3.79639 8.13742 3.80961 8.10016 3.83476L6.0818 5.2164C6.00505 5.26757 5.96191 5.36424 5.96191 5.46657V8.23575C5.96191 8.33808 6.00987 8.43476 6.0818 8.48592L8.10016 9.86766C8.13742 9.89281 8.17954 9.90603 8.22241 9.90603C8.26528 9.90603 8.3074 9.89281 8.34466 9.86766L10.3631 8.48592C10.4398 8.43476 10.4829 8.33808 10.4829 8.23575V5.46662C10.4829 5.36429 10.435 5.26761 10.3631 5.21645L8.34466 3.83476Z" fill="url(#paint0_linear_86_29662)"/>
<mask id="mask0_86_29662" style="mask-type:luminance" maskUnits="userSpaceOnUse" x="5" y="3" width="6" height="7">
<path d="M8.34466 3.83476C8.3074 3.80961 8.26528 3.79639 8.22241 3.79639C8.17954 3.79639 8.13742 3.80961 8.10016 3.83476L6.0818 5.2164C6.00505 5.26757 5.96191 5.36424 5.96191 5.46657V8.23575C5.96191 8.33808 6.00987 8.43476 6.0818 8.48592L8.10016 9.86766C8.13742 9.89281 8.17954 9.90603 8.22241 9.90603C8.26528 9.90603 8.3074 9.89281 8.34466 9.86766L10.3631 8.48592C10.4398 8.43476 10.4829 8.33808 10.4829 8.23575V5.46662C10.4829 5.36429 10.435 5.26761 10.3631 5.21645L8.34466 3.83476Z" fill="white"/>
</mask>
<g mask="url(#mask0_86_29662)">
<path d="M10.3677 5.21676L8.33971 3.83508C8.31979 3.82314 8.2989 3.81362 8.27737 3.80664L6.00488 8.4238C6.02371 8.45106 6.04644 8.47416 6.07204 8.49204L8.09999 9.87378C8.15753 9.91358 8.22464 9.92494 8.28695 9.90216L10.4204 5.27369C10.406 5.25096 10.3868 5.23379 10.3677 5.21676Z" fill="url(#paint1_linear_86_29662)"/>
</g>
<mask id="mask1_86_29662" style="mask-type:luminance" maskUnits="userSpaceOnUse" x="5" y="3" width="6" height="7">
<path d="M8.34466 3.83476C8.3074 3.80961 8.26528 3.79639 8.22241 3.79639C8.17954 3.79639 8.13742 3.80961 8.10016 3.83476L6.0818 5.2164C6.00505 5.26757 5.96191 5.36424 5.96191 5.46657V8.23575C5.96191 8.33808 6.00987 8.43476 6.0818 8.48592L8.10016 9.86766C8.13742 9.89281 8.17954 9.90603 8.22241 9.90603C8.26528 9.90603 8.3074 9.89281 8.34466 9.86766L10.3631 8.48592C10.4398 8.43476 10.4829 8.33808 10.4829 8.23575V5.46662C10.4829 5.36429 10.435 5.26761 10.3631 5.21645L8.34466 3.83476Z" fill="white"/>
</mask>
<g mask="url(#mask1_86_29662)">
<path fill-rule="evenodd" clip-rule="evenodd" d="M10.3729 8.48594C10.4305 8.44614 10.4736 8.3779 10.4928 8.304L8.26819 3.80059C8.21066 3.78922 8.14831 3.79488 8.09563 3.83468L6.08203 5.21076L8.2538 9.90748C8.28538 9.90134 8.31606 9.88986 8.34489 9.87338L10.3729 8.48599L10.3729 8.48594Z" fill="url(#paint2_linear_86_29662)"/>
<path fill-rule="evenodd" clip-rule="evenodd" d="M10.3721 8.48598L8.34891 9.86772C8.32034 9.88499 8.28956 9.89651 8.25781 9.90181L8.29618 9.98712L10.5399 8.44623V8.41209L10.4823 8.29834C10.4728 8.37794 10.4296 8.44618 10.3721 8.48598Z" fill="url(#paint3_linear_86_29662)"/>
<path fill-rule="evenodd" clip-rule="evenodd" d="M10.3721 8.48598L8.34891 9.86772C8.32034 9.88499 8.28956 9.89651 8.25781 9.90181L8.29618 9.98712L10.5399 8.44623V8.41209L10.4823 8.29834C10.4728 8.37794 10.4296 8.44618 10.3721 8.48598Z" fill="url(#paint4_linear_86_29662)"/>
</g>
</g>
<defs>
<linearGradient id="paint0_linear_86_29662" x1="314.242" y1="110.636" x2="35.6957" y2="479.665" gradientUnits="userSpaceOnUse">
<stop stop-color="#41873F"/>
<stop offset="0.3288" stop-color="#418B3D"/>
<stop offset="0.6352" stop-color="#419637"/>
<stop offset="0.9319" stop-color="#3FA92D"/>
<stop offset="1" stop-color="#3FAE2A"/>
</linearGradient>
<linearGradient id="paint1_linear_86_29662" x1="197.096" y1="340.732" x2="790.244" y2="69.0185" gradientUnits="userSpaceOnUse">
<stop offset="0.1376" stop-color="#41873F"/>
<stop offset="0.4032" stop-color="#54A044"/>
<stop offset="0.7136" stop-color="#66B848"/>
<stop offset="0.9081" stop-color="#6CC04A"/>
</linearGradient>
<linearGradient id="paint2_linear_86_29662" x1="-13.2769" y1="309.38" x2="453.772" y2="309.38" gradientUnits="userSpaceOnUse">
<stop offset="0.09192" stop-color="#6CC04A"/>
<stop offset="0.2864" stop-color="#66B848"/>
<stop offset="0.5968" stop-color="#54A044"/>
<stop offset="0.8624" stop-color="#41873F"/>
</linearGradient>
<linearGradient id="paint3_linear_86_29662" x1="-228.76" y1="93.2018" x2="238.283" y2="93.2018" gradientUnits="userSpaceOnUse">
<stop offset="0.09192" stop-color="#6CC04A"/>
<stop offset="0.2864" stop-color="#66B848"/>
<stop offset="0.5968" stop-color="#54A044"/>
<stop offset="0.8624" stop-color="#41873F"/>
</linearGradient>
<linearGradient id="paint4_linear_86_29662" x1="306.325" y1="-348.151" x2="142.234" y2="376.82" gradientUnits="userSpaceOnUse">
<stop stop-color="#41873F"/>
<stop offset="0.3288" stop-color="#418B3D"/>
<stop offset="0.6352" stop-color="#419637"/>
<stop offset="0.9319" stop-color="#3FA92D"/>
<stop offset="1" stop-color="#3FAE2A"/>
</linearGradient>
<clipPath id="clip0_86_29662">
<rect width="21.2414" height="15.4483" fill="white" transform="translate(0.379883 0.275391)"/>
</clipPath>
</defs>
</svg>
