<svg width="17" height="20" viewBox="0 0 17 20" fill="none" xmlns="http://www.w3.org/2000/svg">
<g clip-path="url(#clip0_86_29657)">
<path d="M8.17443 0.833008C4.14027 0.833008 4.39216 2.85562 4.39216 2.85562L4.39664 4.9511H8.24636V5.58022H2.86759C2.86759 5.58022 0.286133 5.24174 0.286133 9.94773C0.286133 14.6539 2.53929 14.487 2.53929 14.487H3.88397V12.3031C3.88397 12.3031 3.81148 9.69816 6.10116 9.69816H9.91939C9.91939 9.69816 12.0646 9.73824 12.0646 7.30118V3.27165C12.0646 3.27165 12.3904 0.833008 8.17443 0.833008ZM6.05169 2.24218C6.14266 2.24208 6.23276 2.26273 6.31682 2.30294C6.40088 2.34314 6.47726 2.40212 6.54159 2.47649C6.60592 2.55086 6.65693 2.63916 6.6917 2.73635C6.72648 2.83354 6.74433 2.9377 6.74425 3.04288C6.74433 3.14805 6.72648 3.25221 6.6917 3.3494C6.65693 3.44659 6.60592 3.5349 6.54159 3.60927C6.47726 3.68364 6.40088 3.74261 6.31682 3.78282C6.23276 3.82302 6.14266 3.84367 6.05169 3.84357C5.96072 3.84367 5.87062 3.82302 5.78656 3.78282C5.7025 3.74261 5.62612 3.68364 5.56179 3.60927C5.49747 3.5349 5.44646 3.44659 5.41168 3.3494C5.37691 3.25221 5.35905 3.14805 5.35913 3.04288C5.35905 2.9377 5.37691 2.83354 5.41168 2.73635C5.44646 2.63916 5.49747 2.55086 5.56179 2.47649C5.62612 2.40212 5.7025 2.34314 5.78656 2.30294C5.87062 2.26273 5.96072 2.24208 6.05169 2.24218Z" fill="url(#paint0_linear_86_29657)"/>
<path d="M8.28864 19.1098C12.3228 19.1098 12.0709 17.0872 12.0709 17.0872L12.0664 14.9917H8.21665V14.3626H13.5954C13.5954 14.3626 16.1769 14.7011 16.1769 9.99497C16.1769 5.28891 13.9237 5.45581 13.9237 5.45581H12.579V7.63956C12.579 7.63956 12.6515 10.2445 10.3618 10.2445H6.54361C6.54361 10.2445 4.39841 10.2045 4.39841 12.6416V16.6712C4.39841 16.6712 4.07267 19.1098 8.28858 19.1098H8.28864ZM10.4114 17.7007C10.3204 17.7008 10.2303 17.6802 10.1462 17.64C10.0622 17.5998 9.98581 17.5408 9.92148 17.4664C9.85715 17.3921 9.80614 17.3037 9.77137 17.2066C9.73659 17.1094 9.71873 17.0052 9.71882 16.9C9.71873 16.7949 9.73658 16.6907 9.77135 16.5935C9.80612 16.4963 9.85713 16.408 9.92146 16.3336C9.98579 16.2592 10.0622 16.2002 10.1462 16.16C10.2303 16.1198 10.3204 16.0992 10.4114 16.0993C10.5023 16.0992 10.5924 16.1198 10.6765 16.16C10.7606 16.2002 10.8369 16.2592 10.9013 16.3336C10.9656 16.4079 11.0166 16.4962 11.0514 16.5934C11.0862 16.6906 11.104 16.7948 11.1039 16.9C11.104 17.0051 11.0862 17.1093 11.0514 17.2065C11.0166 17.3037 10.9656 17.392 10.9013 17.4664C10.8369 17.5407 10.7606 17.5997 10.6765 17.6399C10.5924 17.6801 10.5023 17.7008 10.4114 17.7007Z" fill="url(#paint1_linear_86_29657)"/>
</g>
<defs>
<linearGradient id="paint0_linear_86_29657" x1="152.999" y1="165.222" x2="1052.68" y2="935.632" gradientUnits="userSpaceOnUse">
<stop stop-color="#387EB8"/>
<stop offset="1" stop-color="#366994"/>
</linearGradient>
<linearGradient id="paint1_linear_86_29657" x1="229.803" y1="286.455" x2="1189.58" y2="1071.23" gradientUnits="userSpaceOnUse">
<stop stop-color="#FFE052"/>
<stop offset="1" stop-color="#FFC331"/>
</linearGradient>
<clipPath id="clip0_86_29657">
<rect width="15.931" height="18.3448" fill="white" transform="translate(0.276367 0.827637)"/>
</clipPath>
</defs>
</svg>
