<svg width="20" height="18" viewBox="0 0 20 18" fill="none" xmlns="http://www.w3.org/2000/svg">
<g clip-path="url(#clip0_86_30149)">
<path fill-rule="evenodd" clip-rule="evenodd" d="M4.45998 6.91162L9.981 17.7304L0.701172 6.91162H4.45998Z" fill="#EA6C00"/>
<path fill-rule="evenodd" clip-rule="evenodd" d="M15.5039 6.91113L9.98287 17.7299L19.2627 6.91113H15.5039Z" fill="#EA6C00"/>
<path fill-rule="evenodd" clip-rule="evenodd" d="M4.45996 6.91162H15.502L9.98098 17.7304L4.45996 6.91162Z" fill="#FDAD00"/>
<path fill-rule="evenodd" clip-rule="evenodd" d="M9.98098 0.915527L4.75055 1.46906L4.45996 6.91131L9.98098 0.915527Z" fill="#FDD231"/>
<path fill-rule="evenodd" clip-rule="evenodd" d="M9.98094 0.915527L15.2114 1.46906L15.502 6.91131L9.98094 0.915527Z" fill="#FDD231"/>
<path fill-rule="evenodd" clip-rule="evenodd" d="M19.2627 6.91149L15.2133 1.46924L15.5039 6.91149H19.2627Z" fill="#FDAD00"/>
<path fill-rule="evenodd" clip-rule="evenodd" d="M0.701172 6.91149L4.75057 1.46924L4.45998 6.91149H0.701172Z" fill="#FDAD00"/>
<path fill-rule="evenodd" clip-rule="evenodd" d="M9.98098 0.915527L4.45996 6.91131H15.502L9.98098 0.915527Z" fill="#FEEEB7"/>
</g>
<defs>
<clipPath id="clip0_86_30149">
<rect width="18.6667" height="16.9167" fill="white" transform="translate(0.666992 0.833008)"/>
</clipPath>
</defs>
</svg>
