<svg width="18" height="22" viewBox="0 0 18 22" fill="none" xmlns="http://www.w3.org/2000/svg">
<path d="M15.5387 4.1906C13.8637 1.72924 10.5553 0.999673 8.16349 2.56453L3.96308 5.3137C3.68051 5.49609 3.41689 5.70816 3.17705 5.94651C2.93691 6.18485 2.72174 6.44824 2.53486 6.73234C2.34798 7.01644 2.19029 7.3197 2.0642 7.63719C1.93842 7.95482 1.84503 8.28499 1.78554 8.62241C1.73589 8.90527 1.7088 9.19215 1.70519 9.47965C1.70128 9.76746 1.72084 10.055 1.76327 10.3391C1.8057 10.6235 1.871 10.9039 1.95827 11.1771C2.04554 11.4504 2.15478 11.7157 2.28479 11.9704C2.19535 12.11 2.11279 12.2541 2.03742 12.4022C1.96189 12.5503 1.89388 12.7024 1.83339 12.8576C1.7729 13.0128 1.72024 13.1711 1.6754 13.3318C1.63056 13.4926 1.59385 13.6555 1.56496 13.82C1.44492 14.5116 1.46077 15.2208 1.6116 15.906C1.68683 16.2476 1.79487 16.5809 1.9345 16.9005C2.07413 17.2202 2.24416 17.525 2.44277 17.81C4.11776 20.2714 7.42591 21.0009 9.81771 19.4361L14.0181 16.6983C14.3007 16.5156 14.5637 16.3033 14.8036 16.0646C15.0434 15.8261 15.2585 15.5628 15.4454 15.2788C15.6323 14.995 15.79 14.6917 15.9161 14.3742C16.0422 14.0571 16.1358 13.7269 16.1957 13.3896C16.2453 13.1068 16.2721 12.8202 16.2757 12.5327C16.2793 12.2452 16.2598 11.9577 16.217 11.6736C16.1746 11.3895 16.1093 11.1094 16.0217 10.8362C15.9342 10.5632 15.8249 10.2979 15.6949 10.0432C15.7843 9.90379 15.867 9.75942 15.9426 9.61135C16.0178 9.46327 16.0861 9.31117 16.1466 9.15598C16.2071 9.0008 16.2601 8.84252 16.3052 8.68177C16.35 8.52132 16.3874 8.35841 16.4165 8.19395C16.4761 7.84895 16.502 7.49869 16.4942 7.14844C16.4864 6.79818 16.4445 6.44979 16.3693 6.10788C16.2941 5.76628 16.186 5.43303 16.0464 5.11338C15.9069 4.79368 15.7369 4.48902 15.5387 4.20389" fill="#FF3E00"/>
<path d="M7.75262 18.0481C7.42388 18.1359 7.08402 18.1715 6.7448 18.1538C6.40565 18.1359 6.07101 18.0654 5.75263 17.9439C5.43423 17.8226 5.13569 17.6522 4.86729 17.4385C4.59911 17.2247 4.36419 16.9701 4.17063 16.6836C4.05116 16.512 3.94884 16.329 3.86518 16.1367C3.78128 15.9446 3.71626 15.7443 3.67108 15.5388C3.62624 15.3333 3.60096 15.1237 3.59645 14.9131C3.59194 14.7026 3.60789 14.4921 3.644 14.2847C3.64972 14.251 3.65634 14.2173 3.66356 14.1839C3.67048 14.1502 3.6783 14.1168 3.68673 14.0837C3.69486 14.0503 3.70388 14.0173 3.71351 13.9842C3.72284 13.9514 3.73307 13.9186 3.74361 13.8862L3.82275 13.6379L4.03852 13.8033C4.1622 13.8961 4.2898 13.9836 4.4207 14.0652C4.55161 14.1471 4.68582 14.2231 4.82305 14.293C4.95997 14.3632 5.10021 14.4275 5.24255 14.4853C5.38489 14.5434 5.52964 14.595 5.67649 14.6405L5.83749 14.6884L5.82305 14.8538C5.81528 14.9663 5.82669 15.0794 5.85675 15.188C5.8715 15.2424 5.89106 15.2949 5.91483 15.3456C5.9386 15.3963 5.96659 15.4449 5.99849 15.4906C6.05694 15.5769 6.12787 15.6535 6.20884 15.7178C6.28949 15.7821 6.37947 15.8335 6.47547 15.8699C6.57146 15.9064 6.67197 15.9274 6.77429 15.9327C6.87631 15.9382 6.97862 15.9274 7.07763 15.9008C7.1005 15.8947 7.12277 15.8876 7.14504 15.8795C7.16731 15.8715 7.18928 15.8628 7.21064 15.8529C7.23231 15.8433 7.25337 15.8328 7.27444 15.8214C7.2952 15.8103 7.31537 15.7982 7.33523 15.7852L11.5293 13.0357C11.5807 13.0026 11.6286 12.9641 11.6723 12.9207C11.7159 12.8772 11.7547 12.8292 11.7887 12.7776C11.8227 12.726 11.851 12.6707 11.8739 12.6128C11.8965 12.555 11.9133 12.4951 11.9241 12.4339C11.9347 12.3711 11.9392 12.3077 11.9377 12.244C11.9362 12.1807 11.9284 12.1176 11.9145 12.0555C11.901 11.9936 11.8811 11.9334 11.8555 11.8752C11.8302 11.8174 11.799 11.7624 11.7628 11.7108C11.7045 11.6245 11.6337 11.5482 11.5528 11.4839C11.4718 11.4196 11.3819 11.3683 11.2862 11.3318C11.1903 11.2953 11.0895 11.274 10.9873 11.2687C10.885 11.2635 10.7827 11.2743 10.6837 11.3006C10.6611 11.3067 10.6386 11.3138 10.6163 11.3219C10.594 11.3299 10.5724 11.3386 10.5507 11.3482C10.529 11.3581 10.508 11.3686 10.4872 11.38C10.4664 11.3911 10.446 11.4035 10.4261 11.4165L8.81551 12.4669C8.74991 12.5096 8.6825 12.5498 8.61389 12.5875C8.54498 12.6249 8.47516 12.6598 8.40384 12.692C8.33252 12.7241 8.25999 12.7535 8.18656 12.7798C8.11314 12.8064 8.03881 12.8299 7.96357 12.8506C7.63526 12.9377 7.29611 12.973 6.95756 12.9551C6.61901 12.9371 6.28528 12.8663 5.96749 12.7455C5.64971 12.6243 5.35179 12.4539 5.08396 12.2406C4.81613 12.0273 4.5814 11.7735 4.3879 11.4876C4.26903 11.316 4.16702 11.1327 4.08366 10.9404C4 10.7481 3.9353 10.5478 3.89046 10.3425C3.84562 10.137 3.82095 9.92736 3.81673 9.71683C3.81222 9.50662 3.82817 9.2961 3.86458 9.08897C3.93573 8.68118 4.08885 8.29309 4.31417 7.94949C4.53965 7.60589 4.83249 7.31444 5.17394 7.09379L9.38096 4.34462C9.44627 4.30196 9.51307 4.26177 9.58138 4.22406C9.6497 4.18665 9.71951 4.15172 9.79023 4.11957C9.86111 4.08741 9.93318 4.05812 10.0063 4.03178C10.0791 4.00519 10.1532 3.98139 10.2281 3.96067C10.5567 3.87319 10.8965 3.83733 11.2353 3.85495C11.5745 3.87288 11.9088 3.94336 12.2272 4.06485C12.5456 4.18604 12.8438 4.35668 13.1122 4.5703C13.3803 4.78426 13.6151 5.03892 13.8086 5.32552C13.9277 5.49678 14.0304 5.67979 14.1143 5.87208C14.1983 6.06436 14.2633 6.26437 14.3087 6.46995C14.3539 6.67553 14.3791 6.88513 14.3837 7.09565C14.3885 7.30617 14.3728 7.5167 14.3367 7.72413C14.3304 7.75813 14.3238 7.79214 14.3162 7.82583C14.309 7.85953 14.3012 7.89323 14.2928 7.92661C14.2846 7.96031 14.2756 7.9937 14.2663 8.02677C14.257 8.06016 14.2473 8.09324 14.2368 8.12601L14.1565 8.37425L13.9422 8.20886C13.8182 8.11519 13.6903 8.02739 13.5591 7.94485C13.4279 7.86262 13.2931 7.78595 13.1556 7.71516C12.8802 7.57407 12.5938 7.45701 12.2994 7.36522L12.1381 7.3173L12.1528 7.15191C12.1574 7.09534 12.1571 7.03846 12.1519 6.98219C12.1471 6.92593 12.1372 6.86998 12.1228 6.81526C12.108 6.76085 12.0891 6.70737 12.0653 6.65636C12.0418 6.60505 12.0138 6.5562 11.9819 6.50983C11.9232 6.4251 11.8523 6.35005 11.7716 6.28725C11.691 6.22417 11.6015 6.17412 11.5061 6.13886C11.3146 6.06748 11.1064 6.05788 10.9094 6.11135C10.8865 6.11753 10.864 6.12464 10.842 6.13237C10.8197 6.14041 10.7978 6.14938 10.7761 6.15896C10.7547 6.16854 10.7334 6.17936 10.7126 6.19049C10.6918 6.20193 10.6714 6.21398 10.6515 6.22697L6.44959 8.9715C6.39843 9.00458 6.35058 9.04322 6.30724 9.0865C6.26391 9.12978 6.22479 9.1777 6.19078 9.22901C6.15706 9.28063 6.12853 9.33563 6.10562 9.39317C6.08275 9.45098 6.0659 9.51064 6.05506 9.57185C6.04453 9.6346 6.04002 9.69829 6.04152 9.76197C6.04513 9.88944 6.07304 10.015 6.12368 10.1314C6.14921 10.1894 6.18015 10.2446 6.21606 10.2965C6.27414 10.3818 6.34456 10.4578 6.42491 10.5215C6.50509 10.5855 6.59429 10.6366 6.68943 10.673C6.88074 10.7461 7.08913 10.7578 7.28708 10.7067C7.30965 10.7002 7.33222 10.6931 7.35449 10.6851C7.37646 10.677 7.39842 10.6681 7.42009 10.6585C7.44166 10.6488 7.46284 10.6383 7.48359 10.6269C7.50435 10.6158 7.52482 10.6038 7.54468 10.5908L9.15526 9.54217C9.22117 9.49889 9.28828 9.45809 9.35719 9.42037C9.4258 9.38235 9.49592 9.34741 9.56754 9.31495C9.63893 9.28279 9.7115 9.2535 9.78512 9.22716C9.85884 9.20057 9.93347 9.17708 10.009 9.15668C10.3376 9.06888 10.6771 9.03302 11.0162 9.05033C11.3554 9.06795 11.6897 9.13844 12.0081 9.25962C12.3262 9.3808 12.6247 9.55114 12.8928 9.76506C13.1613 9.97867 13.396 10.2331 13.5895 10.5197C13.7087 10.6912 13.811 10.8742 13.8949 11.0665C13.9789 11.2587 14.044 11.459 14.0893 11.6644C14.1345 11.8697 14.1598 12.0793 14.1646 12.2898C14.1694 12.5006 14.1534 12.7112 14.1176 12.9183C14.0821 13.1216 14.0262 13.3207 13.9506 13.5121C13.8751 13.7036 13.7803 13.8865 13.6677 14.0578C13.5555 14.229 13.4261 14.3879 13.2816 14.5317C13.1372 14.6754 12.9786 14.8034 12.8083 14.9135L8.60606 17.6626C8.54016 17.7056 8.47275 17.7461 8.40414 17.7838C8.33523 17.8215 8.26511 17.8565 8.19349 17.8886C8.12217 17.9211 8.04964 17.9504 7.97591 17.977C7.90249 18.0036 7.82785 18.0274 7.75262 18.0481Z" fill="white"/>
</svg>
