<svg width="60" height="60" viewBox="0 0 60 60" fill="none" xmlns="http://www.w3.org/2000/svg">
<g clip-path="url(#clip0_86_1504)">
<path d="M30.0006 60.0011C46.5694 60.0011 60.0011 46.5694 60.0011 30.0006C60.0011 13.4317 46.5694 0 30.0006 0C13.4317 0 0 13.4317 0 30.0006C0 46.5694 13.4317 60.0011 30.0006 60.0011Z" fill="#FFC42E"/>
<path fill-rule="evenodd" clip-rule="evenodd" d="M47.5372 30.0004C41.8968 12.6584 18.1003 12.6343 12.4609 30.0004C18.1003 47.3666 41.8968 47.3425 47.5372 30.0004Z" fill="white"/>
<path fill-rule="evenodd" clip-rule="evenodd" d="M29.9992 20.0325C35.5045 20.0325 39.9672 24.4951 39.9672 30.0004C39.9672 35.5057 35.5045 39.9684 29.9992 39.9684C24.4939 39.9684 20.0312 35.5057 20.0312 30.0004C20.0312 24.4951 24.4939 20.0325 29.9992 20.0325Z" fill="#1C3B5C"/>
<path fill-rule="evenodd" clip-rule="evenodd" d="M29.9993 21.8508C34.5004 21.8508 38.149 25.4994 38.149 30.0005C38.149 34.5017 34.5004 38.1502 29.9993 38.1502C25.4982 38.1502 21.8496 34.5017 21.8496 30.0005C21.8496 25.4994 25.4982 21.8508 29.9993 21.8508Z" fill="#205081"/>
<path fill-rule="evenodd" clip-rule="evenodd" d="M30.0001 25.8245C32.3062 25.8245 34.1761 27.6943 34.1761 30.0004C34.1761 32.3064 32.3062 34.1763 30.0001 34.1763C27.6941 34.1763 25.8242 32.3064 25.8242 30.0004C25.8242 27.6943 27.6941 25.8245 30.0001 25.8245Z" fill="#152B44"/>
<path fill-rule="evenodd" clip-rule="evenodd" d="M47.5372 30.0004C37.8835 19.492 22.1147 19.5062 12.4609 30.0004C18.1014 12.6343 41.8968 12.6584 47.5372 30.0004Z" fill="#55ACE0"/>
<path fill-rule="evenodd" clip-rule="evenodd" d="M47.5372 30.0005C37.8835 40.5079 22.1147 40.4936 12.4609 30.0005C18.1014 47.3667 41.8968 47.3425 47.5372 30.0005Z" fill="#55ACE0"/>
<path fill-rule="evenodd" clip-rule="evenodd" d="M25.1571 24.7786C26.4667 24.7786 27.528 25.8399 27.528 27.1494C27.528 28.459 26.4667 29.5203 25.1571 29.5203C23.8475 29.5203 22.7852 28.459 22.7852 27.1494C22.7852 25.8399 23.8475 24.7786 25.1571 24.7786Z" fill="white"/>
<path fill-rule="evenodd" clip-rule="evenodd" d="M36.0604 32.6855C36.7163 32.6855 37.247 33.2162 37.247 33.871C37.247 34.5258 36.7163 35.0564 36.0604 35.0564C35.4056 35.0564 34.875 34.5258 34.875 33.871C34.875 33.2162 35.4056 32.6855 36.0604 32.6855Z" fill="white"/>
<path fill-rule="evenodd" clip-rule="evenodd" d="M22.4917 7.70584L23.531 7.31912L25.1416 11.65L24.1023 12.0367L22.4917 7.70584ZM37.509 7.70584L36.4697 7.31912L34.8591 11.65L35.8984 12.0367L37.509 7.70584ZM54.6785 27.2682L54.5412 26.1674L49.9566 26.7376L50.0928 27.8384L54.6785 27.2682ZM55.8991 20.795L55.5443 19.7436L48.5327 22.1189L48.8887 23.1692L55.8991 20.795ZM49.2897 15.1348L48.5668 14.2944L45.0632 17.3057L45.7872 18.1473L49.2897 15.1348ZM45.1643 8.39468L44.2382 7.78384L40.1622 13.9626L41.0873 14.5734L45.1643 8.39468ZM5.32325 27.2682L5.45948 26.1674L10.0441 26.7376L9.90787 27.8384L5.32325 27.2682ZM29.4461 3.40137H30.5546V10.804H29.4461V3.40137ZM4.10156 20.795L4.45642 19.7436L11.469 22.1189L11.112 23.1692L4.10156 20.795ZM10.711 15.1348L11.4339 14.2944L14.9374 17.3057L14.2145 18.1473L10.711 15.1348ZM14.8364 8.39468L15.7625 7.78384L19.8396 13.9626L18.9134 14.5734L14.8364 8.39468Z" fill="white"/>
<path fill-rule="evenodd" clip-rule="evenodd" d="M22.4917 52.2942L23.531 52.6809L25.1416 48.3511L24.1023 47.9644L22.4917 52.2942ZM37.509 52.2942L36.4697 52.6809L34.8591 48.3511L35.8984 47.9644L37.509 52.2942ZM55.8991 39.2061L55.5443 40.2564L48.5327 37.8822L48.8887 36.8308L55.8991 39.2061ZM49.2897 44.8652L48.5668 45.7067L45.0632 42.6942L45.7872 41.8538L49.2897 44.8652ZM45.1643 51.6064L44.2382 52.2173L40.1622 46.0374L41.0873 45.4266L45.1643 51.6064ZM29.4461 56.5997H30.5546V49.1971H29.4461V56.5997ZM4.10156 39.2061L4.45642 40.2564L11.469 37.8822L11.112 36.8308L4.10156 39.2061ZM10.711 44.8652L11.4339 45.7067L14.9374 42.6942L14.2145 41.8538L10.711 44.8652ZM14.8364 51.6064L15.7625 52.2173L19.8396 46.0374L18.9134 45.4266L14.8364 51.6064Z" fill="white"/>
</g>
<defs>
<clipPath id="clip0_86_1504">
<rect width="60" height="60" fill="white"/>
</clipPath>
</defs>
</svg>
