<svg width="18" height="18" viewBox="0 0 18 18" fill="none" xmlns="http://www.w3.org/2000/svg">
<g clip-path="url(#clip0_86_29950)">
<path d="M1.48883 9C1.48883 11.9713 3.20859 14.539 5.70251 15.7558L2.13613 5.94512C1.70861 6.90632 1.48803 7.94731 1.48883 9ZM14.0125 8.62118C14.0125 7.69354 13.6806 7.05105 13.396 6.55103C13.017 5.9327 12.6617 5.40907 12.6617 4.79074C12.6617 4.10069 13.183 3.45833 13.9172 3.45833C13.9504 3.45833 13.9818 3.46245 14.0141 3.46437C12.6839 2.24081 10.9118 1.4938 8.96534 1.4938C6.35337 1.4938 4.05541 2.83931 2.71857 4.87727C2.89396 4.88256 3.05924 4.8862 3.1997 4.8862C3.98166 4.8862 5.19219 4.79101 5.19219 4.79101C5.59527 4.76713 5.64277 5.36144 5.24017 5.40934C5.24017 5.40934 4.83512 5.45718 4.3844 5.48085L7.10717 13.6118L8.74333 8.685L7.57846 5.48065C7.17586 5.45697 6.79445 5.40914 6.79445 5.40914C6.39158 5.38539 6.43881 4.76692 6.84168 4.7908C6.84168 4.7908 8.07641 4.88606 8.811 4.88606C9.59296 4.88606 10.8036 4.7908 10.8036 4.7908C11.2068 4.76692 11.2543 5.36124 10.8515 5.40914C10.8515 5.40914 10.4457 5.45697 9.99576 5.48065L12.6977 13.5499L13.4434 11.0479C13.7666 10.0096 14.0126 9.26394 14.0126 8.62125L14.0125 8.62118ZM9.09651 9.65663L6.8533 16.2011C7.53913 16.404 8.25039 16.5069 8.96534 16.507C9.83595 16.507 10.6709 16.3558 11.4481 16.0815C11.4274 16.0486 11.4096 16.014 11.3949 15.978L9.09651 9.65663ZM15.5257 5.39864C15.5578 5.63774 15.576 5.8944 15.576 6.17049C15.576 6.93225 15.4343 7.78852 15.0075 8.85918L12.7238 15.4886C14.9465 14.1872 16.4415 11.7695 16.4415 9.00021C16.4417 7.69512 16.1097 6.46785 15.5257 5.39864ZM8.96534 0.25C4.15979 0.25 0.25 4.17522 0.25 9C0.25 13.8254 4.15979 17.7505 8.96534 17.7505C13.7707 17.7505 17.681 13.8254 17.681 9C17.681 4.17522 13.7707 0.25 8.96534 0.25ZM8.96534 17.3494C4.38023 17.3494 0.649591 13.6039 0.649591 9C0.649591 4.39647 4.38002 0.651196 8.96534 0.651196C13.5503 0.651196 17.2806 4.39647 17.2806 9C17.2806 13.6039 13.5503 17.3494 8.96534 17.3494Z" fill="#464342"/>
</g>
<defs>
<clipPath id="clip0_86_29950">
<rect width="17.5" height="17.5" fill="white" transform="translate(0.25 0.25)"/>
</clipPath>
</defs>
</svg>
