<svg width="87" height="69" viewBox="0 0 87 69" fill="none" xmlns="http://www.w3.org/2000/svg">
<path fill-rule="evenodd" clip-rule="evenodd" d="M72 0C80.2843 0 87 6.71574 87 15V46.758C87 55.0423 80.2843 61.758 72 61.758H47.5952L43.2491 69L38.903 61.758H15C6.71573 61.758 0 55.0422 0 46.758V15C0 6.71573 6.71573 0 15 0H72Z" fill="#FFA9D4"/>
<path d="M42.3663 30.896C42.3663 34.6293 41.6837 37.4987 40.3183 39.504C38.953 41.488 37.065 42.48 34.6543 42.48C32.2437 42.48 30.3557 41.488 28.9903 39.504C27.625 37.4987 26.9423 34.6293 26.9423 30.896C26.9423 29.04 27.113 27.3973 27.4543 25.968C27.817 24.5173 28.329 23.3013 28.9903 22.32C29.673 21.3387 30.4837 20.592 31.4223 20.08C32.3823 19.568 33.4597 19.312 34.6543 19.312C37.065 19.312 38.953 20.3147 40.3183 22.32C41.6837 24.304 42.3663 27.1627 42.3663 30.896ZM38.3663 30.896C38.3663 29.744 38.3023 28.6667 38.1743 27.664C38.0463 26.6613 37.833 25.7973 37.5343 25.072C37.257 24.3253 36.8837 23.7387 36.4143 23.312C35.945 22.8853 35.3583 22.672 34.6543 22.672C33.9503 22.672 33.353 22.8853 32.8623 23.312C32.393 23.7387 32.009 24.3253 31.7103 25.072C31.433 25.7973 31.2303 26.6613 31.1023 27.664C30.9957 28.6667 30.9423 29.744 30.9423 30.896C30.9423 32.048 30.9957 33.1253 31.1023 34.128C31.2303 35.1307 31.433 36.0053 31.7103 36.752C32.009 37.4773 32.393 38.0533 32.8623 38.48C33.353 38.9067 33.9503 39.12 34.6543 39.12C35.3583 39.12 35.945 38.9067 36.4143 38.48C36.8837 38.0533 37.257 37.4773 37.5343 36.752C37.833 36.0053 38.0463 35.1307 38.1743 34.128C38.3023 33.1253 38.3663 32.048 38.3663 30.896ZM59.1458 25.584C59.1458 26.352 58.9858 27.1093 58.6658 27.856C58.3458 28.5813 57.9298 29.296 57.4178 30C56.9272 30.6827 56.3618 31.3547 55.7218 32.016C55.0818 32.656 54.4418 33.2853 53.8018 33.904C53.4605 34.224 53.0765 34.608 52.6498 35.056C52.2232 35.504 51.8178 35.952 51.4338 36.4C51.0498 36.848 50.7192 37.2853 50.4418 37.712C50.1645 38.1173 50.0152 38.4587 49.9938 38.736H59.8498V42H45.7378C45.7165 41.8293 45.7058 41.6267 45.7058 41.392C45.7058 41.136 45.7058 40.944 45.7058 40.816C45.7058 39.792 45.8658 38.8533 46.1858 38C46.5272 37.1253 46.9645 36.3147 47.4978 35.568C48.0312 34.8213 48.6285 34.1173 49.2898 33.456C49.9512 32.7947 50.6125 32.144 51.2738 31.504C51.7858 31.0133 52.2765 30.5333 52.7458 30.064C53.2152 29.5947 53.6205 29.136 53.9618 28.688C54.3245 28.2187 54.6125 27.7493 54.8258 27.28C55.0392 26.7893 55.1458 26.288 55.1458 25.776C55.1458 24.6667 54.8258 23.8773 54.1858 23.408C53.5458 22.9387 52.7672 22.704 51.8498 22.704C51.2525 22.704 50.6978 22.7893 50.1858 22.96C49.6738 23.1307 49.2152 23.3333 48.8098 23.568C48.4258 23.8027 48.0845 24.048 47.7858 24.304C47.4872 24.5387 47.2632 24.7307 47.1138 24.88L45.1938 22.16C46.0898 21.3067 47.1352 20.624 48.3298 20.112C49.5458 19.5787 50.8472 19.312 52.2338 19.312C54.6018 19.312 56.3405 19.8773 57.4498 21.008C58.5805 22.1173 59.1458 23.6427 59.1458 25.584Z" fill="#13334C"/>
</svg>
