<svg width="87" height="69" viewBox="0 0 87 69" fill="none" xmlns="http://www.w3.org/2000/svg">
<path fill-rule="evenodd" clip-rule="evenodd" d="M72 0C80.2843 0 87 6.71574 87 15V46.758C87 55.0423 80.2843 61.758 72 61.758H47.5952L43.2491 69L38.903 61.758H15C6.71573 61.758 0 55.0422 0 46.758V15C0 6.71573 6.71573 0 15 0H72Z" fill="#FFCAA9"/>
<path d="M42.3663 30.896C42.3663 34.6293 41.6837 37.4987 40.3183 39.504C38.953 41.488 37.065 42.48 34.6543 42.48C32.2437 42.48 30.3557 41.488 28.9903 39.504C27.625 37.4987 26.9423 34.6293 26.9423 30.896C26.9423 29.04 27.113 27.3973 27.4543 25.968C27.817 24.5173 28.329 23.3013 28.9903 22.32C29.673 21.3387 30.4837 20.592 31.4223 20.08C32.3823 19.568 33.4597 19.312 34.6543 19.312C37.065 19.312 38.953 20.3147 40.3183 22.32C41.6837 24.304 42.3663 27.1627 42.3663 30.896ZM38.3663 30.896C38.3663 29.744 38.3023 28.6667 38.1743 27.664C38.0463 26.6613 37.833 25.7973 37.5343 25.072C37.257 24.3253 36.8837 23.7387 36.4143 23.312C35.945 22.8853 35.3583 22.672 34.6543 22.672C33.9503 22.672 33.353 22.8853 32.8623 23.312C32.393 23.7387 32.009 24.3253 31.7103 25.072C31.433 25.7973 31.2303 26.6613 31.1023 27.664C30.9957 28.6667 30.9423 29.744 30.9423 30.896C30.9423 32.048 30.9957 33.1253 31.1023 34.128C31.2303 35.1307 31.433 36.0053 31.7103 36.752C32.009 37.4773 32.393 38.0533 32.8623 38.48C33.353 38.9067 33.9503 39.12 34.6543 39.12C35.3583 39.12 35.945 38.9067 36.4143 38.48C36.8837 38.0533 37.257 37.4773 37.5343 36.752C37.833 36.0053 38.0463 35.1307 38.1743 34.128C38.3023 33.1253 38.3663 32.048 38.3663 30.896ZM51.3058 42.48C50.7298 42.48 50.1325 42.4373 49.5138 42.352C48.9165 42.288 48.3405 42.192 47.7858 42.064C47.2525 41.9573 46.7618 41.84 46.3138 41.712C45.8658 41.5627 45.5245 41.424 45.2898 41.296L46.0578 38C46.5058 38.2133 47.1565 38.4587 48.0098 38.736C48.8632 38.992 49.9192 39.12 51.1778 39.12C52.8632 39.12 54.0792 38.8 54.8258 38.16C55.5725 37.4987 55.9458 36.624 55.9458 35.536C55.9458 34.832 55.7965 34.2453 55.4978 33.776C55.2205 33.3067 54.8258 32.9333 54.3138 32.656C53.8232 32.3573 53.2472 32.1547 52.5858 32.048C51.9458 31.92 51.2632 31.856 50.5378 31.856H49.2258V28.72H50.8258C51.3165 28.72 51.8072 28.6773 52.2978 28.592C52.8098 28.4853 53.2685 28.3147 53.6738 28.08C54.0792 27.824 54.4098 27.4933 54.6658 27.088C54.9218 26.6827 55.0498 26.16 55.0498 25.52C55.0498 25.008 54.9538 24.5707 54.7618 24.208C54.5698 23.8453 54.3138 23.5467 53.9938 23.312C53.6952 23.0773 53.3432 22.9067 52.9378 22.8C52.5325 22.6933 52.1058 22.64 51.6578 22.64C50.6978 22.64 49.8445 22.7893 49.0978 23.088C48.3512 23.3653 47.6898 23.6853 47.1138 24.048L45.7058 21.168C46.0045 20.976 46.3672 20.7733 46.7938 20.56C47.2205 20.3467 47.6898 20.144 48.2018 19.952C48.7352 19.76 49.3005 19.6107 49.8978 19.504C50.4952 19.376 51.1245 19.312 51.7858 19.312C53.0232 19.312 54.0898 19.4613 54.9858 19.76C55.8818 20.0587 56.6178 20.4853 57.1938 21.04C57.7912 21.5733 58.2285 22.2133 58.5058 22.96C58.8045 23.6853 58.9538 24.4853 58.9538 25.36C58.9538 26.384 58.6658 27.3013 58.0898 28.112C57.5352 28.9227 56.8098 29.5413 55.9138 29.968C57.0658 30.3733 58.0152 31.0453 58.7618 31.984C59.5298 32.9227 59.9138 34.128 59.9138 35.6C59.9138 36.5813 59.7432 37.4987 59.4018 38.352C59.0605 39.184 58.5378 39.9093 57.8338 40.528C57.1298 41.1253 56.2338 41.6053 55.1458 41.968C54.0792 42.3093 52.7992 42.48 51.3058 42.48Z" fill="#13334C"/>
</svg>
