<svg width="87" height="69" viewBox="0 0 87 69" fill="none" xmlns="http://www.w3.org/2000/svg">
<path fill-rule="evenodd" clip-rule="evenodd" d="M72 0C80.2843 0 87 6.71574 87 15V46.758C87 55.0423 80.2843 61.758 72 61.758H47.5952L43.2491 69L38.903 61.758H15C6.71573 61.758 0 55.0422 0 46.758V15C0 6.71573 6.71573 0 15 0H72Z" fill="#DAD7FC"/>
<path d="M42.3663 30.896C42.3663 34.6293 41.6837 37.4987 40.3183 39.504C38.953 41.488 37.065 42.48 34.6543 42.48C32.2437 42.48 30.3557 41.488 28.9903 39.504C27.625 37.4987 26.9423 34.6293 26.9423 30.896C26.9423 29.04 27.113 27.3973 27.4543 25.968C27.817 24.5173 28.329 23.3013 28.9903 22.32C29.673 21.3387 30.4837 20.592 31.4223 20.08C32.3823 19.568 33.4597 19.312 34.6543 19.312C37.065 19.312 38.953 20.3147 40.3183 22.32C41.6837 24.304 42.3663 27.1627 42.3663 30.896ZM38.3663 30.896C38.3663 29.744 38.3023 28.6667 38.1743 27.664C38.0463 26.6613 37.833 25.7973 37.5343 25.072C37.257 24.3253 36.8837 23.7387 36.4143 23.312C35.945 22.8853 35.3583 22.672 34.6543 22.672C33.9503 22.672 33.353 22.8853 32.8623 23.312C32.393 23.7387 32.009 24.3253 31.7103 25.072C31.433 25.7973 31.2303 26.6613 31.1023 27.664C30.9957 28.6667 30.9423 29.744 30.9423 30.896C30.9423 32.048 30.9957 33.1253 31.1023 34.128C31.2303 35.1307 31.433 36.0053 31.7103 36.752C32.009 37.4773 32.393 38.0533 32.8623 38.48C33.353 38.9067 33.9503 39.12 34.6543 39.12C35.3583 39.12 35.945 38.9067 36.4143 38.48C36.8837 38.0533 37.257 37.4773 37.5343 36.752C37.833 36.0053 38.0463 35.1307 38.1743 34.128C38.3023 33.1253 38.3663 32.048 38.3663 30.896ZM54.5378 24.592C54.0258 25.2107 53.4925 25.872 52.9378 26.576C52.4045 27.28 51.8818 28.016 51.3698 28.784C50.8578 29.552 50.3672 30.3413 49.8978 31.152C49.4285 31.9413 49.0018 32.7307 48.6178 33.52H54.5378V24.592ZM58.3138 19.824V33.52H60.8098V36.688H58.3138V42H54.5378V36.688H44.8098V33.936C45.2365 32.9973 45.8018 31.92 46.5058 30.704C47.2312 29.488 48.0312 28.24 48.9058 26.96C49.7805 25.68 50.7085 24.4213 51.6898 23.184C52.6712 21.9467 53.6525 20.8267 54.6338 19.824H58.3138Z" fill="#13334C"/>
</svg>
