<svg width="20" height="18" viewBox="0 0 20 18" fill="none" xmlns="http://www.w3.org/2000/svg">
<g clip-path="url(#clip0_86_30137)">
<path d="M3.97255 0.251953H16.0281C17.8559 0.251953 19.3337 1.6726 19.3337 3.42972V14.5706C19.3337 16.3277 17.8559 17.7484 16.0281 17.7484H3.97255C2.14477 17.7484 0.666992 16.3277 0.666992 14.5706V3.42972C0.666992 1.6726 2.14477 0.251953 3.97255 0.251953Z" fill="#470137"/>
<path d="M10.4821 4.85025L8.14879 8.55142L10.6377 12.4769C10.6532 12.5068 10.661 12.5367 10.6532 12.5666C10.6455 12.5965 10.6143 12.5741 10.5677 12.5816H8.78657C8.66213 12.5816 8.57657 12.5741 8.52213 12.4993C8.35879 12.1853 8.18768 11.8787 8.02435 11.5647C7.86102 11.2581 7.68213 10.9441 7.49546 10.6226C7.30879 10.3011 7.12213 9.97954 6.93546 9.65055H6.9199C6.75657 9.97206 6.57768 10.2936 6.39879 10.6151C6.2199 10.9366 6.04102 11.2581 5.8699 11.5722C5.69102 11.8862 5.51213 12.2077 5.33324 12.5143C5.30213 12.5891 5.2399 12.5965 5.15435 12.5965H3.44324C3.41213 12.5965 3.38879 12.6115 3.38879 12.5741C3.38102 12.5442 3.38879 12.5143 3.40435 12.4918L5.82324 8.67853L3.46657 4.84278C3.44324 4.81287 3.43546 4.78296 3.45102 4.768C3.46657 4.74557 3.49768 4.7381 3.52879 4.7381H5.29435C5.33324 4.7381 5.37213 4.74557 5.40324 4.75305C5.43435 4.768 5.45768 4.79044 5.48102 4.82034C5.62879 5.14186 5.7999 5.46337 5.97879 5.78489C6.16546 6.1064 6.34435 6.42044 6.53879 6.73448C6.72546 7.04852 6.89657 7.36256 7.0599 7.68407H7.07546C7.23879 7.35508 7.4099 7.03357 7.58102 6.71953C7.75213 6.40549 7.93102 6.09145 8.1099 5.77741C8.28879 5.46337 8.4599 5.14186 8.63102 4.8353C8.63879 4.80539 8.65435 4.77548 8.67768 4.76053C8.70879 4.74557 8.7399 4.7381 8.77879 4.74557H10.4199C10.4588 4.7381 10.4977 4.76053 10.5055 4.79791C10.5132 4.80539 10.4977 4.8353 10.4821 4.85025ZM14.0755 12.7386C13.4999 12.7461 12.9243 12.6339 12.4032 12.4021C11.9132 12.1853 11.5088 11.8264 11.2288 11.3852C10.941 10.9291 10.801 10.3609 10.801 9.68046C10.7932 9.12715 10.941 8.58132 11.2288 8.10279C11.5243 7.61678 11.9521 7.21302 12.4655 6.94384C13.0099 6.65223 13.6632 6.51017 14.4332 6.51017C14.4721 6.51017 14.5266 6.51017 14.5966 6.51765C14.6666 6.52512 14.7443 6.52512 14.8377 6.5326V4.16984C14.8377 4.1175 14.861 4.08759 14.9155 4.08759H16.4943C16.5332 4.08011 16.5643 4.11002 16.5721 4.13993V11.2731C16.5721 11.4077 16.5799 11.5572 16.5877 11.7217C16.6032 11.8787 16.611 12.0283 16.6188 12.1554C16.6188 12.2077 16.5955 12.2526 16.541 12.275C16.1366 12.4395 15.7088 12.5591 15.2732 12.6339C14.8766 12.7012 14.4799 12.7386 14.0755 12.7386ZM14.8377 11.2432V7.95325C14.7677 7.93829 14.6977 7.92334 14.6277 7.91586C14.5421 7.90839 14.4566 7.90091 14.371 7.90091C14.0677 7.90091 13.7643 7.96073 13.4921 8.09531C13.2277 8.22242 13.0021 8.40935 12.831 8.64862C12.6599 8.88789 12.5743 9.2094 12.5743 9.59821C12.5666 9.85991 12.6132 10.1216 12.7066 10.3684C12.7843 10.5702 12.901 10.7497 13.0566 10.8992C13.2043 11.0338 13.3832 11.1385 13.5855 11.1983C13.7955 11.2656 14.0132 11.2955 14.231 11.2955C14.3477 11.2955 14.4566 11.288 14.5577 11.2806C14.6588 11.288 14.7443 11.2731 14.8377 11.2432Z" fill="#FF61F6"/>
</g>
<defs>
<clipPath id="clip0_86_30137">
<rect width="18.6667" height="17.5" fill="white" transform="translate(0.666992 0.25)"/>
</clipPath>
</defs>
</svg>
