<svg width="20" height="20" viewBox="0 0 20 20" fill="none" xmlns="http://www.w3.org/2000/svg">
<g clip-path="url(#clip0_86_30122)">
<path d="M3.97255 0.668945H16.0281C17.8559 0.668945 19.3337 2.1843 19.3337 4.05856V15.9422C19.3337 17.8164 17.8559 19.3318 16.0281 19.3318H3.97255C2.14477 19.3318 0.666992 17.8164 0.666992 15.9422V4.05856C0.666992 2.1843 2.14477 0.668945 3.97255 0.668945Z" fill="#001E36"/>
<path d="M4.86719 13.757V5.55014C4.86719 5.49431 4.89052 5.4624 4.94497 5.4624C5.07719 5.4624 5.20163 5.4624 5.38052 5.45443C5.56719 5.44645 5.76163 5.44645 5.97163 5.43848C6.18163 5.4305 6.40719 5.4305 6.6483 5.42253C6.88941 5.41455 7.12274 5.41455 7.35608 5.41455C7.99385 5.41455 8.52274 5.49431 8.9583 5.66179C9.34719 5.79738 9.70497 6.02069 10.0005 6.31579C10.2494 6.57101 10.4439 6.88206 10.5683 7.22501C10.685 7.55998 10.7472 7.90293 10.7472 8.26183C10.7472 8.94773 10.5916 9.51399 10.2805 9.96063C9.96941 10.4073 9.53385 10.7422 9.0283 10.9336C8.49941 11.133 7.91608 11.2048 7.2783 11.2048C7.09163 11.2048 6.96719 11.2048 6.88941 11.1968C6.81163 11.1889 6.70274 11.1889 6.55497 11.1889V13.749C6.56274 13.8049 6.52385 13.8527 6.46941 13.8607H4.96052C4.8983 13.8607 4.86719 13.8288 4.86719 13.757ZM6.56274 7.00169V9.68148C6.67163 9.68946 6.77274 9.69743 6.86608 9.69743H7.2783C7.58163 9.69743 7.88497 9.64958 8.17274 9.55387C8.42163 9.48209 8.63941 9.33056 8.81052 9.13117C8.97385 8.93178 9.05163 8.66061 9.05163 8.30968C9.05941 8.06244 8.99719 7.8152 8.87274 7.59986C8.74052 7.39249 8.55385 7.23298 8.3283 7.14525C8.04052 7.02562 7.72941 6.97776 7.41052 6.98574C7.2083 6.98574 7.02941 6.98574 6.88163 6.99371C6.72608 6.98574 6.61719 6.99371 6.56274 7.00169ZM15.6005 9.19497C15.3672 9.06736 15.1183 8.97963 14.8539 8.9238C14.5661 8.86 14.2783 8.82012 13.9827 8.82012C13.8272 8.81214 13.6639 8.83607 13.5161 8.87595C13.415 8.89988 13.3294 8.9557 13.275 9.03546C13.2361 9.09927 13.2127 9.17902 13.2127 9.2508C13.2127 9.32258 13.2439 9.39436 13.2905 9.45817C13.3605 9.5459 13.4539 9.61768 13.555 9.67351C13.7339 9.76921 13.9205 9.85694 14.1072 9.9367C14.5272 10.0803 14.9316 10.2796 15.305 10.5189C15.5616 10.6864 15.7716 10.9097 15.9194 11.1809C16.0439 11.4361 16.1061 11.7153 16.0983 12.0024C16.1061 12.3772 15.9972 12.7521 15.795 13.0631C15.5772 13.3821 15.2739 13.6294 14.9239 13.773C14.5427 13.9404 14.0761 14.0282 13.5161 14.0282C13.1583 14.0282 12.8083 13.9963 12.4583 13.9245C12.1861 13.8766 11.9139 13.7889 11.665 13.6693C11.6105 13.6374 11.5716 13.5815 11.5794 13.5177V12.13C11.5794 12.1061 11.5872 12.0742 11.6105 12.0582C11.6339 12.0423 11.6572 12.0502 11.6805 12.0662C11.9839 12.2496 12.3027 12.3772 12.645 12.457C12.9405 12.5367 13.2516 12.5766 13.5627 12.5766C13.8583 12.5766 14.0683 12.5367 14.2083 12.465C14.3327 12.4091 14.4183 12.2735 14.4183 12.13C14.4183 12.0183 14.3561 11.9146 14.2316 11.811C14.1072 11.7073 13.8505 11.5876 13.4694 11.4361C13.0727 11.2925 12.7072 11.1011 12.365 10.8619C12.1239 10.6864 11.9216 10.4551 11.7739 10.1839C11.6494 9.92872 11.5872 9.64958 11.595 9.37043C11.595 9.02748 11.6883 8.70049 11.8594 8.40539C12.0539 8.08637 12.3416 7.83115 12.6761 7.67164C13.0416 7.48022 13.5005 7.39249 14.0527 7.39249C14.3716 7.39249 14.6983 7.41642 15.0172 7.46427C15.2505 7.49617 15.4761 7.55998 15.6861 7.64771C15.7172 7.65569 15.7483 7.68759 15.7639 7.71949C15.7716 7.75139 15.7794 7.7833 15.7794 7.8152V9.11522C15.7794 9.14712 15.7639 9.17902 15.7405 9.19497C15.6705 9.21092 15.6316 9.21092 15.6005 9.19497Z" fill="#31A8FF"/>
</g>
<defs>
<clipPath id="clip0_86_30122">
<rect width="18.6667" height="18.6667" fill="white" transform="translate(0.666992 0.666992)"/>
</clipPath>
</defs>
</svg>
