<svg width="40" height="40" viewBox="0 0 40 40" fill="none" xmlns="http://www.w3.org/2000/svg">
<g clip-path="url(#clip0_86_3355)">
<path d="M8.01184 25.242C8.01184 26.8453 6.89476 28.1579 5.53001 28.1579C4.16526 28.1579 3.04688 26.8466 3.04688 25.242V15.6992C3.04688 14.0959 4.16396 12.7833 5.53001 12.7833C6.89606 12.7833 8.01184 14.0959 8.01184 15.6992V25.242ZM36.9557 25.242C36.9557 26.8453 35.8386 28.1579 34.4726 28.1579C33.1065 28.1579 31.9894 26.8466 31.9894 25.242V15.6992C31.9894 14.0959 33.1065 12.7833 34.4726 12.7833C35.8386 12.7833 36.9557 14.0959 36.9557 15.6992V25.242ZM25.429 3.55983L27.0218 0.701291C27.1522 0.467967 27.1131 0.195539 26.9371 0.0977778C26.7612 1.64881e-05 26.5083 0.109509 26.3792 0.342833L24.7499 3.26785C23.2192 2.67255 21.5902 2.37011 19.9478 2.37627C18.2142 2.37627 16.5744 2.70214 15.1119 3.28219L13.4747 0.344136C13.3444 0.110813 13.0928 1.65589e-05 12.9169 0.0990813C12.7409 0.198146 12.7018 0.469271 12.8321 0.702594L14.4328 3.57547C11.1024 5.13965 8.85911 8.0764 8.85911 11.442C8.85911 11.7835 8.88387 12.1211 8.92819 12.4535H30.9688C31.0144 12.1211 31.0379 11.7848 31.0379 11.442C31.0379 8.06597 28.7802 5.1214 25.4316 3.56113L25.429 3.55983ZM14.9138 8.54956C14.7864 8.54956 14.6603 8.52448 14.5427 8.47574C14.425 8.42701 14.3181 8.35557 14.228 8.26552C14.138 8.17547 14.0666 8.06856 14.0178 7.9509C13.9691 7.83324 13.944 7.70713 13.944 7.57977C13.944 7.45242 13.9691 7.32631 14.0178 7.20865C14.0666 7.09099 14.138 6.98408 14.228 6.89403C14.3181 6.80397 14.425 6.73254 14.5427 6.6838C14.6603 6.63507 14.7864 6.60998 14.9138 6.60998C15.171 6.60998 15.4177 6.71216 15.5995 6.89403C15.7814 7.0759 15.8836 7.32257 15.8836 7.57977C15.8836 7.83698 15.7814 8.08365 15.5995 8.26552C15.4177 8.44739 15.171 8.54956 14.9138 8.54956ZM25.034 8.54956C24.9067 8.54956 24.7806 8.52448 24.6629 8.47574C24.5453 8.42701 24.4383 8.35557 24.3483 8.26552C24.2582 8.17547 24.1868 8.06856 24.1381 7.9509C24.0893 7.83324 24.0642 7.70713 24.0642 7.57977C24.0642 7.45242 24.0893 7.32631 24.1381 7.20865C24.1868 7.09099 24.2582 6.98408 24.3483 6.89403C24.4383 6.80397 24.5453 6.73254 24.6629 6.6838C24.7806 6.63507 24.9067 6.60998 25.034 6.60998C25.2912 6.60998 25.5379 6.71216 25.7198 6.89403C25.9017 7.0759 26.0038 7.32257 26.0038 7.57977C26.0038 7.83698 25.9017 8.08365 25.7198 8.26552C25.5379 8.44739 25.2912 8.54956 25.034 8.54956ZM8.8565 13.4168V29.6725H8.86563C8.97903 31.0451 10.2421 32.1361 11.7724 32.1361H28.1194C29.6484 32.1361 30.9114 31.0451 31.0262 29.6725H31.0353V13.4168H8.85781H8.8565ZM18.3589 32.0553V37.0841C18.3589 38.6874 17.2418 40 15.8758 40C14.5097 40 13.3939 38.6874 13.3939 37.0841V32.0592L18.3589 32.0553ZM26.6334 32.0527V37.0841C26.6334 38.6874 25.5163 40 24.1503 40C22.7842 40 21.6671 38.6874 21.6671 37.0841V32.0527H26.6334Z" fill="#3DDC84"/>
</g>
<defs>
<clipPath id="clip0_86_3355">
<rect width="40" height="40" fill="white"/>
</clipPath>
</defs>
</svg>
