<svg width="16" height="20" viewBox="0 0 16 20" fill="none" xmlns="http://www.w3.org/2000/svg">
<g clip-path="url(#clip0_86_29781)">
<path d="M4.34985 19.5846C4.31715 19.5846 4.28192 19.5762 4.25742 19.5426L3.20845 18.1411V19.5706H2.96928V17.8103C2.96928 17.7402 3.02636 17.6842 3.09164 17.6842C3.12965 17.6842 3.16224 17.6953 3.18667 17.729L4.23292 19.1277V17.7038H4.47204V19.4612C4.47204 19.5341 4.41496 19.5846 4.34979 19.5846M6.32825 19.6014C6.0892 19.6014 5.8391 19.5509 5.60541 19.4613L5.66249 19.2594C5.87717 19.3295 6.11086 19.38 6.32825 19.38C6.62994 19.38 6.78754 19.2706 6.78754 19.1165C6.78754 18.9764 6.66518 18.9062 6.24402 18.7044C5.82281 18.5026 5.65712 18.3738 5.65712 18.1215C5.65712 17.8048 5.89618 17.6758 6.34726 17.6758C6.53479 17.6758 6.82284 17.715 6.98865 17.7655L6.95063 17.9729C6.76841 17.9281 6.54028 17.8973 6.35269 17.8973C6.03483 17.8973 5.90438 17.9589 5.90438 18.1131C5.90438 18.2644 5.99942 18.3288 6.44513 18.5391C6.91528 18.7605 7.0348 18.8727 7.0348 19.1025C7.0348 19.4361 6.72497 19.6014 6.32825 19.6014ZM8.16806 17.7039H8.41532V19.5705H8.16806V17.7039ZM10.5188 18.7241H9.90456V19.3576H10.5188C10.728 19.3576 10.8557 19.2231 10.8557 19.0352C10.8557 18.8586 10.7226 18.7241 10.5188 18.7241ZM10.3991 17.9168H9.90456V18.5139H10.3991C10.5975 18.5139 10.7416 18.3849 10.7416 18.2056C10.7416 18.029 10.6165 17.9168 10.3991 17.9168ZM10.5215 19.5706H9.78238C9.76597 19.5708 9.74968 19.5677 9.73447 19.5615C9.71925 19.5552 9.70541 19.546 9.69376 19.5342C9.68211 19.5225 9.67289 19.5085 9.66663 19.4931C9.66037 19.4777 9.6572 19.4612 9.6573 19.4445V17.8299C9.6573 17.7626 9.71167 17.7038 9.78238 17.7038H10.3938C10.7688 17.7038 10.9916 17.8916 10.9916 18.1859C10.9916 18.3456 10.8992 18.4942 10.7579 18.5811C10.9672 18.6456 11.1084 18.8221 11.1084 19.0352C11.1084 19.3322 10.8666 19.5705 10.5215 19.5705M12.296 19.5706C12.2282 19.5706 12.1738 19.5117 12.1738 19.4445V17.7039H12.421V19.3436H13.4047V19.5706H12.296ZM15.0904 19.6014C14.585 19.6014 14.2806 19.4108 14.2806 19.0268C14.2806 18.8446 14.3812 18.6708 14.5769 18.5896C14.4192 18.4887 14.3377 18.3457 14.3377 18.1888C14.3377 17.8412 14.6014 17.6758 15.0959 17.6758C15.2617 17.6758 15.4954 17.6954 15.6911 17.7403L15.6639 17.9477C15.4574 17.914 15.2644 17.8944 15.0769 17.8944C14.7562 17.8944 14.585 17.9841 14.585 18.2C14.585 18.371 14.7426 18.5055 14.9519 18.5055H15.3758C15.4356 18.5055 15.4818 18.5531 15.4818 18.612C15.4818 18.6737 15.4356 18.7213 15.3758 18.7213H14.9193C14.6801 18.7213 14.528 18.8418 14.528 19.0268C14.528 19.2987 14.7753 19.3799 15.0851 19.3799C15.2536 19.3799 15.4818 19.3576 15.6665 19.3127L15.702 19.5173C15.5253 19.5678 15.2943 19.6014 15.0904 19.6014ZM1.12911 18.054L1.56221 19.1564L0.908156 18.6249L1.12911 18.054ZM1.89847 19.4104L1.23235 17.7568C1.2134 17.7091 1.17533 17.6839 1.12911 17.6839C1.1062 17.6834 1.08372 17.6902 1.06475 17.7033C1.04578 17.7163 1.03125 17.735 1.02316 17.7568L0.291992 19.5706H0.54203L0.831528 18.8228L1.6952 19.5425C1.72995 19.5715 1.75499 19.5846 1.78763 19.5846C1.8528 19.5846 1.90994 19.5342 1.90994 19.4613C1.90994 19.4495 1.90583 19.4307 1.89847 19.4105V19.4104Z" fill="#1A1918"/>
<path d="M15.7143 8.18293C15.7143 12.502 12.2685 16.003 8.0173 16.003C3.76654 16.003 0.320312 12.502 0.320312 8.18293C0.320312 3.86416 3.76654 0.362793 8.0173 0.362793C12.2684 0.362793 15.7143 3.86416 15.7143 8.18293Z" fill="#1A1918"/>
<path d="M8.14736 5.13982L10.1392 10.1345L7.13056 7.72667L8.14736 5.13988V5.13982ZM11.6858 11.2851L8.62197 3.7938C8.53448 3.57777 8.35963 3.46338 8.14736 3.46338C7.93467 3.46338 7.74708 3.57777 7.65959 3.7938L4.29688 12.0108H5.44721L6.77837 8.62292L10.751 11.8836C10.9107 12.0149 11.026 12.0743 11.1758 12.0743C11.4759 12.0743 11.7383 11.8456 11.7383 11.5157C11.7383 11.462 11.7196 11.3768 11.6858 11.2851Z" fill="white"/>
</g>
<defs>
<clipPath id="clip0_86_29781">
<rect width="15.4483" height="19.3103" fill="white" transform="translate(0.275391 0.344238)"/>
</clipPath>
</defs>
</svg>
