<svg width="58" height="58" viewBox="0 0 58 58" fill="none" xmlns="http://www.w3.org/2000/svg">
<g clip-path="url(#clip0_86_3341)">
<circle cx="29" cy="29" r="29" fill="#F4F3F3"/>
<g clip-path="url(#clip1_86_3341)">
<path d="M28.7924 19.71C30.7118 19.71 32.3957 18.9336 33.8438 17.3808C35.292 15.8279 36.0162 14.0223 36.0162 11.9638C36.0162 11.7377 35.9989 11.4165 35.9645 11C35.7116 11.0357 35.5219 11.0654 35.3955 11.0892C33.6255 11.351 32.0681 12.2494 30.7233 13.7843C29.3786 15.3193 28.7062 16.9613 28.7062 18.7105C28.7062 18.9127 28.7349 19.2459 28.7924 19.71ZM35.6713 47C37.0391 47 38.5505 46.0303 40.2056 44.0907C41.8607 42.1512 43.125 39.8726 43.9985 37.2548C40.7458 35.5176 39.1195 33.0248 39.1195 29.7764C39.1195 27.0635 40.4355 24.7432 43.0676 22.8156C41.2401 20.4477 38.8264 19.2637 35.8265 19.2637C34.5622 19.2637 33.4071 19.4601 32.3612 19.8527L31.7061 20.1026L30.8268 20.4596C30.2521 20.6857 29.7291 20.7987 29.2579 20.7987C28.8901 20.7987 28.4073 20.6678 27.8097 20.406L27.1373 20.1205L26.4994 19.8527C25.5684 19.4482 24.5684 19.2459 23.4995 19.2459C20.6376 19.2459 18.3389 20.2454 16.6033 22.2444C14.8678 24.2434 14 26.879 14 30.1512C14 34.7561 15.3907 39.0099 18.1722 42.9128C20.1032 45.6376 21.8674 47 23.4651 47C24.1432 47 24.8156 46.8632 25.4822 46.5895L26.327 46.2325L26.9994 45.9826C27.9419 45.6376 28.8096 45.465 29.6027 45.465C30.4417 45.465 31.4072 45.6852 32.4991 46.1254L33.0336 46.3396C34.1484 46.7799 35.0277 47 35.6713 47Z" fill="black"/>
</g>
</g>
<defs>
<clipPath id="clip0_86_3341">
<rect width="57.0297" height="57.0934" fill="white" transform="translate(0.960938 0.546875)"/>
</clipPath>
<clipPath id="clip1_86_3341">
<rect width="30" height="36" fill="white" transform="translate(14 11)"/>
</clipPath>
</defs>
</svg>
