<svg width="18" height="22" viewBox="0 0 18 22" fill="none" xmlns="http://www.w3.org/2000/svg">
<g clip-path="url(#clip0_86_29908)">
<path d="M17.4446 6.95577C17.4511 6.65135 17.3801 6.35051 17.2387 6.08333C17.0922 5.82507 16.881 5.6124 16.6273 5.46773C14.3782 4.1263 12.1284 2.78674 9.87787 1.44906C9.27184 1.08708 8.68447 1.09992 8.08233 1.46752C7.18727 2.01088 2.70503 4.66672 1.36944 5.46693C0.819358 5.796 0.552085 6.30004 0.552085 6.95497V15.0453C0.546408 15.3433 0.614611 15.6378 0.750209 15.9009C0.896801 16.167 1.11196 16.3859 1.37177 16.5333C2.70736 17.3359 7.19038 19.9886 8.08543 20.5343C8.68757 20.9019 9.27495 20.9148 9.88175 20.5528C12.1303 19.2108 14.3801 17.8707 16.6312 16.5325C16.891 16.3851 17.1061 16.1662 17.2527 15.9001C17.3883 15.637 17.4565 15.3425 17.4508 15.0445V6.95577H17.4446Z" fill="#004482"/>
<path d="M17.4459 15.0453C17.4517 15.3433 17.3835 15.6379 17.2477 15.9009C17.2144 15.9635 17.1768 16.0236 17.1351 16.0807L8.99805 11.0002L16.627 5.46777C16.8804 5.6125 17.0914 5.82517 17.2376 6.08338C17.3796 6.35034 17.4509 6.65128 17.4443 6.95581C17.4459 9.65259 17.4459 15.0453 17.4459 15.0453Z" fill="#00599C"/>
<path d="M17.2378 6.08347L0.747728 15.901C0.612735 15.6381 0.545068 15.3438 0.551159 15.0462V6.95511C0.551159 6.30018 0.819208 5.79614 1.36851 5.46707C2.70488 4.66686 7.18712 2.01102 8.08295 1.46605C8.68354 1.09846 9.27169 1.08561 9.87772 1.44759C12.1262 2.78956 14.376 4.12965 16.6271 5.46787C16.8806 5.61259 17.0915 5.82526 17.2378 6.08347Z" fill="#659AD2"/>
<path d="M9.3243 14.268C8.76904 14.2688 8.22376 14.1156 7.74541 13.8243C7.26706 13.5331 6.8732 13.1144 6.60496 12.6122C6.57751 12.5619 6.55161 12.5106 6.52727 12.4581C6.19631 11.752 6.12749 10.9451 6.33384 10.1901C6.5402 9.43507 7.0074 8.78446 7.64698 8.36143C8.28655 7.93841 9.05409 7.77236 9.80423 7.89471C10.5544 8.01707 11.235 8.41934 11.7173 9.02535C11.7585 9.07672 11.795 9.13049 11.8362 9.18587C11.8548 9.21236 11.8735 9.23885 11.8906 9.26614L14.6154 7.64486C14.5491 7.53464 14.4797 7.42762 14.4071 7.32382C14.3691 7.26844 14.3294 7.21546 14.2921 7.1633C13.3451 5.89234 11.9714 5.03413 10.4419 4.75793C8.91252 4.48173 7.33843 4.80759 6.03013 5.67125C4.72183 6.53491 3.77431 7.87365 3.37445 9.42344C2.97459 10.9732 3.15143 12.6215 3.87008 14.0433C3.8965 14.0946 3.92369 14.1452 3.94778 14.1958C4.47558 15.1577 5.23516 15.9624 6.15281 16.5317C7.07046 17.1009 8.11499 17.4155 9.18501 17.4447C10.255 17.4739 11.3142 17.2169 12.2597 16.6985C13.2052 16.1802 14.0049 15.4181 14.5812 14.4863L11.917 12.8225C11.6349 13.2668 11.2502 13.6316 10.7976 13.884C10.345 14.1363 9.83865 14.2683 9.3243 14.268Z" fill="white"/>
</g>
<defs>
<clipPath id="clip0_86_29908">
<rect width="17.3793" height="21.2414" fill="white" transform="translate(0.310547 0.379395)"/>
</clipPath>
</defs>
</svg>
