<svg width="80" height="80" viewBox="0 0 80 80" fill="none" xmlns="http://www.w3.org/2000/svg">
<path d="M4.61528 48.7738H18.4814C18.1108 37.9776 41.0719 19.3273 49.0122 20.1462C46.223 11.1493 37.8353 4.61548 27.9214 4.61548C15.7273 4.61548 5.84128 14.5001 5.84128 26.6939C5.84128 32.8186 8.33683 38.3616 12.3642 42.3601L4.61528 48.7738Z" fill="#FA686C"/>
<path d="M8.84615 9.23079C8.2089 9.23079 7.69231 8.71419 7.69231 8.07694C7.69231 7.43969 8.2089 6.9231 8.84615 6.9231C9.48341 6.9231 10 7.43969 10 8.07694C10 8.71419 9.48341 9.23079 8.84615 9.23079Z" fill="#FFF8E3"/>
<path d="M9.6152 59.2308C8.97795 59.2308 8.46135 58.7142 8.46135 58.0769C8.46135 57.4397 8.97795 56.9231 9.6152 56.9231C10.2524 56.9231 10.769 57.4397 10.769 58.0769C10.769 58.7142 10.2524 59.2308 9.6152 59.2308Z" fill="#FFF8E3"/>
<path d="M13.8457 64.6155C12.1455 64.6155 10.7688 65.9924 10.7688 67.6924C10.7688 69.3924 12.1455 70.7693 13.8457 70.7693C15.5457 70.7693 16.9226 69.3924 16.9226 67.6924C16.9226 65.9924 15.5457 64.6155 13.8457 64.6155Z" fill="#FDD034"/>
<path d="M46.1538 75.3846H75.3845L65.6661 67.3415C70.7168 62.3246 73.8461 55.3738 73.8461 47.6923C73.8461 32.3745 61.4231 20 46.1538 20C30.8599 20 18.4614 32.3985 18.4614 47.6923C18.4614 63.0065 30.8797 75.3846 46.1538 75.3846Z" fill="#00D27E"/>
<path d="M23.4611 73.077C22.8239 73.077 22.3073 72.5604 22.3073 71.9231C22.3073 71.2859 22.8239 70.7693 23.4611 70.7693C24.0984 70.7693 24.615 71.2859 24.615 71.9231C24.615 72.5604 24.0984 73.077 23.4611 73.077Z" fill="#FFF8E3"/>
<path d="M33.8461 36.9231C30.7952 36.9231 30.7918 41.5385 33.8461 41.5385H58.4615C61.5129 41.5385 61.5154 36.9231 58.4615 36.9231H33.8461Z" fill="#EDF5FF"/>
<path d="M33.8461 46.1538C30.7864 46.1538 30.8295 50.7692 33.8461 50.7692H58.4615C61.5124 50.7692 61.5158 46.1538 58.4615 46.1538H33.8461Z" fill="#EDF5FF"/>
<path d="M33.8461 55.3845C30.7526 55.3845 30.8369 59.9999 33.8461 59.9999H58.4615C61.5124 59.9999 61.5158 55.3845 58.4615 55.3845H33.8461Z" fill="#EDF5FF"/>
<path d="M55.0002 11.1539C54.363 11.1539 53.8464 10.6373 53.8464 10C53.8464 9.36279 54.363 8.84619 55.0002 8.84619C55.6375 8.84619 56.1541 9.36279 56.1541 10C56.1541 10.6373 55.6375 11.1539 55.0002 11.1539Z" fill="#FFF8E3"/>
<path d="M67.6923 20.0002C64.7184 20.0002 62.3077 17.5894 62.3077 14.6156C62.3077 11.6417 64.7184 9.23096 67.6923 9.23096C70.6661 9.23096 73.0769 11.6417 73.0769 14.6156C73.0769 17.5894 70.6661 20.0002 67.6923 20.0002Z" fill="#FDD034"/>
<path d="M71.9231 28.4617C71.2858 28.4617 70.7692 27.9452 70.7692 27.3079C70.7692 26.6706 71.2858 26.1541 71.9231 26.1541C72.5603 26.1541 73.0769 26.6706 73.0769 27.3079C73.0769 27.9452 72.5603 28.4617 71.9231 28.4617Z" fill="#FFF8E3"/>
<path d="M72.6926 67.6925C72.0553 67.6925 71.5387 67.1759 71.5387 66.5386C71.5387 65.9014 72.0553 65.3848 72.6926 65.3848C73.3298 65.3848 73.8464 65.9014 73.8464 66.5386C73.8464 67.1759 73.3298 67.6925 72.6926 67.6925Z" fill="#FFF8E3"/>
</svg>
