<svg width="18" height="20" viewBox="0 0 18 20" fill="none" xmlns="http://www.w3.org/2000/svg">
<g clip-path="url(#clip0_86_29823)">
<path d="M0.792969 17.0473V17.0359C0.792969 15.8957 1.61576 14.9619 2.79525 14.9619C3.51957 14.9619 3.95288 15.2143 4.30934 15.5806L3.77165 16.228C3.47539 15.9474 3.17363 15.7755 2.78955 15.7755C2.14229 15.7755 1.67596 16.337 1.67596 17.0246V17.036C1.67596 17.7237 2.13133 18.2967 2.78955 18.2967C3.22851 18.2967 3.49726 18.1131 3.79902 17.8268L4.33671 18.394C3.94192 18.8348 3.50315 19.11 2.76243 19.11C1.63242 19.11 0.792969 18.1991 0.792969 17.0473ZM5.44286 15.0307H6.28751V16.6176H7.84558V15.0307H8.69074V19.0412H7.84558V17.4312H6.28751V19.0412H5.44286V15.0307ZM10.0498 15.0319H12.9929V15.8292H10.9027V16.6555H12.7419V17.4531H10.9026V18.3088H13.0207V19.1061H10.0498V15.0319ZM14.2509 15.0307H17.1747V15.8328H15.0954V16.6865H16.9278V17.4885H15.0954V19.0412H14.2509V15.0307Z" fill="#435363"/>
<path d="M9.10092 9.37562C7.69954 9.37562 6.55922 8.18495 6.55922 6.72145C6.55922 5.25775 7.69954 4.06687 9.10092 4.06687C10.2579 4.06687 11.2358 4.87833 11.5424 5.98471H12.5259C12.1985 4.3231 10.7875 3.06982 9.10092 3.06982C7.17307 3.06982 5.60449 4.70794 5.60449 6.72145C5.60449 8.73483 7.17307 10.3729 9.10092 10.3729C10.7875 10.3729 12.1985 9.11987 12.5258 7.45826H11.5424C11.2358 8.5643 10.2579 9.37562 9.10092 9.37562Z" fill="#435363"/>
<path d="M7.38672 8.51028C7.82574 8.9687 8.4319 9.25278 9.10019 9.25278V8.1944C8.91487 8.19457 8.73135 8.15652 8.56016 8.08244C8.38896 8.00835 8.23346 7.89969 8.10257 7.7627L7.38672 8.51028Z" fill="#435363"/>
<path d="M6.67676 6.72111C6.67676 7.08332 6.75074 7.42792 6.88249 7.73991L7.80945 7.3141C7.73051 7.12728 7.68981 6.9253 7.68995 6.72111C7.68995 5.90731 8.32169 5.24776 9.10076 5.24776V4.18945C7.76413 4.18945 6.67676 5.32523 6.67676 6.72111Z" fill="#F38B00"/>
<path d="M9.97991 4.36182L9.6123 5.34842C9.91118 5.47009 10.1616 5.69426 10.3224 5.98413H11.42C11.2034 5.24123 10.6677 4.64214 9.97991 4.36182Z" fill="#435363"/>
<path d="M9.6123 8.09356L9.97966 9.0801C10.6675 8.7997 11.2032 8.20049 11.42 7.45752H10.3224C10.1616 7.74746 9.91119 7.97174 9.6123 8.09356Z" fill="#F38B00"/>
<path d="M4.61569 8.13707C4.59962 8.0816 4.58446 8.02584 4.57024 7.96983L4.56761 7.95951C4.55459 7.90747 4.54235 7.85522 4.53088 7.80278C4.51877 7.74691 4.50752 7.69084 4.49715 7.6346C4.49344 7.61424 4.4901 7.59389 4.4869 7.57354C4.48074 7.53718 4.47459 7.50109 4.46914 7.46434C4.46465 7.43314 4.46048 7.4019 4.45664 7.37061C4.42856 7.15521 4.41447 6.93808 4.41445 6.7207H3.45703C3.45684 6.96019 3.47127 7.19673 3.49819 7.43026C3.49864 7.43528 3.49947 7.4403 3.50012 7.44532C3.50762 7.50893 3.51595 7.5724 3.52531 7.63527C3.52794 7.65267 3.53082 7.67001 3.53364 7.68756C3.54198 7.73924 3.55051 7.79086 3.56012 7.84228C3.56493 7.86973 3.57064 7.89671 3.57615 7.9239C3.58416 7.96474 3.5925 8.00571 3.60147 8.04642C3.60936 8.08204 3.61789 8.11766 3.62667 8.15334C3.63436 8.18508 3.64173 8.21688 3.64981 8.24861C3.66077 8.29066 3.67238 8.3323 3.68398 8.37408C3.68879 8.39149 3.69315 8.4093 3.69821 8.42644H3.69866C3.76413 8.65349 3.84274 8.87618 3.93408 9.09328L4.81136 8.69036C4.73549 8.51024 4.67011 8.32547 4.61569 8.13707Z" fill="#435363"/>
<path d="M9.10079 11.6151C7.80884 11.6151 6.63768 11.0657 5.78925 10.1795L5.1111 10.8877C6.13237 11.9542 7.54253 12.6147 9.10079 12.6147C11.9786 12.6147 14.3529 10.3651 14.7002 7.45795H13.734C13.3927 9.80796 11.4451 11.6151 9.10079 11.6151ZM9.10079 1.82723C10.1505 1.82723 11.1201 2.18944 11.9023 2.80071L12.4758 1.99796C11.5344 1.26296 10.3663 0.827637 9.10079 0.827637C6.70615 0.827637 4.66008 2.38527 3.84082 4.58351L4.73387 4.94638C5.41549 3.12261 7.11601 1.82723 9.10079 1.82723Z" fill="#F38B00"/>
<path d="M13.7333 5.98461H14.6995C14.5986 5.13765 14.3215 4.32398 13.8878 3.60059L13.0742 4.13078C13.4131 4.69509 13.6374 5.32606 13.7333 5.98461" fill="#435363"/>
<path d="M12.6458 5.98417H13.6152C13.3622 4.28667 12.249 2.88296 10.7573 2.2749L10.4111 3.20453C11.5456 3.66717 12.4035 4.71081 12.6458 5.98417Z" fill="#F38B00"/>
<path d="M9.10032 2.94711L9.10057 1.9502H9.10032C7.16522 1.9502 5.50759 3.21311 4.84277 4.99129L5.73236 5.35283C6.25839 3.94617 7.56963 2.94711 9.10032 2.94711Z" fill="#435363"/>
<path d="M5.48676 6.7207H4.53223C4.53223 8.72558 5.72288 10.4448 7.40435 11.1496L7.75888 10.2243C6.4286 9.66665 5.48676 8.30673 5.48676 6.7207Z" fill="#F38B00"/>
<path d="M9.10156 10.4951V11.4922C11.3809 11.4922 13.2755 9.73984 13.6158 7.45752H12.6461C12.3173 9.18756 10.8531 10.4951 9.10156 10.4951Z" fill="#435363"/>
</g>
<defs>
<clipPath id="clip0_86_29823">
<rect width="16.4138" height="18.3448" fill="white" transform="translate(0.792969 0.827637)"/>
</clipPath>
</defs>
</svg>
