<svg width="80" height="80" viewBox="0 0 80 80" fill="none" xmlns="http://www.w3.org/2000/svg">
<path d="M42.5 57.6337C42.5 55.1325 44.2962 52.9538 46.6787 52.5663C46.955 52.5225 47.23 52.5 47.5 52.5V42.6337C47.5 40.1325 49.2962 37.9537 51.6787 37.5662C51.9562 37.5225 52.23 37.5 52.5 37.5C55.2575 37.5 57.5 39.7425 57.5 42.5V47.5C58.41 47.5 59.2638 47.7437 60 48.1712C60.7362 47.7437 61.59 47.5 62.5 47.5C63.41 47.5 64.2638 47.7437 65 48.1712V35H40V60H42.5V57.6337Z" fill="#64C8F0"/>
<path d="M10 35H35V60H10V35Z" fill="#3CC8B4"/>
<path d="M10 35H12.5V60H10V35Z" fill="#1EAA96"/>
<path d="M40 35H42.5V60H40V35Z" fill="#46AAD2"/>
<path d="M70 75V52.6338C70 51.3888 69.1487 50.2338 67.92 50.0338C66.3537 49.78 65 50.9813 65 52.5C65 51.1188 63.8813 50 62.5 50C61.1187 50 60 51.1188 60 52.5C60 51.1188 58.8813 50 57.5 50C56.1187 50 55 51.1188 55 52.5V42.5C55 40.9813 53.6463 39.7788 52.08 40.0338C50.8513 40.2338 50 41.3888 50 42.6338V57.5C50 55.9813 48.6463 54.78 47.08 55.0338C45.8513 55.2338 45 56.3888 45 57.6338V65.4288C45 66.755 45.5263 68.0263 46.465 68.9638L49.2688 71.7675C49.7363 72.2363 50 72.8725 50 73.535V75H70Z" fill="#F0C8A0"/>
<path d="M50.5175 71.7675L47.7138 68.9638C46.7763 68.0263 46.25 66.755 46.25 65.4288V55.3425C45.485 55.8075 45 56.6938 45 57.6338V65.4288C45 66.755 45.5263 68.0263 46.465 68.9638L49.2688 71.7675C49.7363 72.2363 50 72.8725 50 73.535V75H51.25V73.535C51.25 72.8725 50.9863 72.2363 50.5175 71.7675Z" fill="#D2AA82"/>
<path d="M66.25 50.3413V60.1338H65V52.5001C65 51.5763 65.505 50.7751 66.25 50.3413Z" fill="#D2AA82"/>
<path d="M60 60.1337V52.4999C60 51.5774 60.5062 50.7799 61.25 50.3462V60.1337H60Z" fill="#D2AA82"/>
<path d="M55 52.4999V59.9999H56.25V50.3462C55.5062 50.7799 55 51.5774 55 52.4999Z" fill="#D2AA82"/>
<path d="M50 59.9999H51.25V40.3462C50.5062 40.7787 50 41.5762 50 42.4999V59.9999Z" fill="#D2AA82"/>
<path d="M10 5H35V30H10V5Z" fill="#FA6450"/>
<path d="M10 5H12.5V30H10V5Z" fill="#DC4632"/>
<path d="M40 5H65V30H40V5Z" fill="#FAB400"/>
<path d="M40 5H42.5V30H40V5Z" fill="#DC9600"/>
<path d="M16.957 16.255L20.787 15.6988L22.4995 12.2288L24.212 15.6988L28.042 16.255L25.2708 18.9575L25.9258 22.7713L22.4995 20.97L19.0745 22.7713L19.7283 18.9575L16.957 16.255Z" fill="#F0F0F0"/>
<path d="M46.957 16.255L50.787 15.6988L52.4995 12.2288L54.212 15.6988L58.042 16.255L55.2708 18.9575L55.9258 22.7713L52.4995 20.97L49.0745 22.7713L49.7283 18.9575L46.957 16.255Z" fill="#F0F0F0"/>
<path d="M16.957 46.255L20.787 45.6988L22.4995 42.2288L24.212 45.6988L28.042 46.255L25.2708 48.9575L25.9258 52.7713L22.4995 50.97L19.0745 52.7713L19.7283 48.9575L16.957 46.255Z" fill="#F0F0F0"/>
</svg>
