<svg width="17" height="18" viewBox="0 0 17 18" fill="none" xmlns="http://www.w3.org/2000/svg">
<g clip-path="url(#clip0_86_29868)">
<path d="M2.05136 15.8694L0.757812 0.339844L16.2061 0.371052L14.8383 15.8694L8.54026 17.6608L2.05136 15.8694Z" fill="#1B73BA"/>
<path d="M8.54102 16.161V1.81885L14.9027 1.83965L13.7683 14.6716L8.54102 16.161Z" fill="#1C88C7"/>
<path d="M13.3225 3.65186H3.53613L3.80125 5.52653H8.4452L3.8755 7.45347L4.14048 9.26573H10.8733L10.6294 11.7966L8.34977 12.2342L6.28231 11.7134L6.12322 10.276H4.22533L4.47972 13.2654L8.55122 14.3798L12.4532 13.1612L12.9515 7.31799H8.82679L13.3224 5.48492L13.3225 3.65186Z" fill="white"/>
</g>
<defs>
<clipPath id="clip0_86_29868">
<rect width="15.4483" height="17.3793" fill="white" transform="translate(0.757812 0.310547)"/>
</clipPath>
</defs>
</svg>
