<svg width="18" height="20" viewBox="0 0 18 20" fill="none" xmlns="http://www.w3.org/2000/svg">
<g clip-path="url(#clip0_86_29803)">
<path d="M17.5213 8.56367C17.473 8.52557 17.0381 8.21326 16.1039 8.21326C15.8623 8.21326 15.6127 8.23613 15.3711 8.27421C15.1939 7.10873 14.1711 6.54504 14.1308 6.51458L13.8812 6.37744L13.7201 6.59837C13.5188 6.89545 13.3658 7.23062 13.2772 7.57341C13.1081 8.23613 13.2127 8.86076 13.5671 9.39396C13.1403 9.62251 12.4477 9.67583 12.3027 9.68343H0.866797C0.568829 9.68343 0.32722 9.91197 0.32722 10.1938C0.311135 11.1384 0.48024 12.0829 0.826553 12.9742C1.22115 13.9492 1.80907 14.6729 2.5661 15.1147C3.41976 15.6098 4.813 15.8917 6.38341 15.8917C7.09212 15.8917 7.8008 15.8307 8.50147 15.7088C9.47592 15.5412 10.4101 15.2213 11.2719 14.7567C11.9781 14.3694 12.6144 13.8756 13.1564 13.2941C14.0664 12.3267 14.606 11.245 15.0006 10.2852H15.1616C16.1522 10.2852 16.7643 9.91197 17.1025 9.59202C17.328 9.39396 17.4971 9.15023 17.6179 8.87601L17.6904 8.67795L17.5213 8.56367Z" fill="#0091E2"/>
<path d="M1.92987 9.37107H3.46001C3.53252 9.37107 3.59695 9.31777 3.59695 9.24161V7.94663C3.59695 7.87807 3.54056 7.81715 3.46001 7.81715H1.92987C1.8574 7.81715 1.79297 7.87044 1.79297 7.94663V9.24161C1.80101 9.31777 1.8574 9.3711 1.92987 9.3711V9.37107ZM4.03986 9.37107H5.57003C5.64251 9.37107 5.70694 9.31777 5.70694 9.24161V7.94663C5.70694 7.87807 5.65055 7.81715 5.57003 7.81715H4.03983C3.96736 7.81715 3.90293 7.87044 3.90293 7.94663V9.24161C3.911 9.31777 3.96739 9.3711 4.03983 9.3711M6.1901 9.3711H7.72027C7.79274 9.3711 7.85717 9.31777 7.85717 9.24161V7.94663C7.85717 7.87807 7.80078 7.81715 7.72027 7.81715H6.1901C6.11762 7.81715 6.05319 7.87044 6.05319 7.94663V9.24161C6.05319 9.31777 6.10958 9.3711 6.1901 9.3711ZM8.30816 9.3711H9.83833C9.9108 9.3711 9.97523 9.31777 9.97523 9.24161V7.94663C9.97523 7.87807 9.91885 7.81715 9.83833 7.81715H8.30816C8.23569 7.81715 8.17125 7.87044 8.17125 7.94663V9.24161C8.17125 9.31777 8.23569 9.3711 8.30816 9.3711ZM4.03986 7.52006H5.57C5.64248 7.52006 5.70691 7.45914 5.70691 7.39057V6.0956C5.70691 6.02703 5.65052 5.96608 5.57 5.96608H4.03983C3.96736 5.96608 3.90293 6.01941 3.90293 6.0956V7.39057C3.911 7.45911 3.96742 7.52006 4.03986 7.52006ZM6.1901 7.52006H7.72027C7.79274 7.52006 7.85717 7.45914 7.85717 7.39057V6.0956C7.85717 6.02703 7.80078 5.96608 7.72027 5.96608H6.1901C6.11762 5.96608 6.05319 6.01941 6.05319 6.0956V7.39057C6.05319 7.45911 6.10958 7.52006 6.1901 7.52006ZM8.30816 7.52006H9.83833C9.9108 7.52006 9.97523 7.45914 9.97523 7.39057V6.0956C9.97523 6.02703 9.91077 5.96608 9.83833 5.96608H8.30816C8.23569 5.96608 8.17125 6.01941 8.17125 6.0956V7.39057C8.17125 7.45911 8.23569 7.52006 8.30816 7.52006ZM8.30816 5.6614H9.83833C9.9108 5.6614 9.97523 5.60807 9.97523 5.53191V4.23694C9.97523 4.16837 9.91077 4.10742 9.83833 4.10742H8.30816C8.23569 4.10742 8.17125 4.16075 8.17125 4.23694V5.53191C8.17125 5.60045 8.23569 5.6614 8.30816 5.6614ZM10.4423 9.3711H11.9725C12.045 9.3711 12.1094 9.31777 12.1094 9.24161V7.94663C12.1094 7.87807 12.053 7.81715 11.9725 7.81715H10.4423C10.3698 7.81715 10.3054 7.87044 10.3054 7.94663V9.24161C10.3135 9.31777 10.3699 9.3711 10.4423 9.3711" fill="#0091E2"/>
</g>
<defs>
<clipPath id="clip0_86_29803">
<rect width="17.3793" height="18.3448" fill="white" transform="translate(0.310547 0.827148)"/>
</clipPath>
</defs>
</svg>
