<svg width="24" height="23" viewBox="0 0 24 23" fill="none" xmlns="http://www.w3.org/2000/svg">
<g clip-path="url(#clip0_86_29942)">
<path d="M11.8688 6.58594C10.991 6.58594 10.1329 6.86488 9.40309 7.3875C8.67325 7.91012 8.10441 8.65293 7.7685 9.52201C7.43259 10.3911 7.3447 11.3474 7.51594 12.27C7.68719 13.1926 8.10988 14.0401 8.73056 14.7053C9.35124 15.3704 10.142 15.8234 11.0029 16.0069C11.8638 16.1904 12.7562 16.0963 13.5672 15.7363C14.3781 15.3763 15.0713 14.7667 15.5589 13.9845C16.0466 13.2024 16.3069 12.2828 16.3069 11.3421C16.3055 10.0812 15.8374 8.87228 15.0054 7.98065C14.1734 7.08902 13.0454 6.58744 11.8688 6.58594Z" fill="#478AFF"/>
<path d="M18.2404 7.0079C19.3569 7.0079 20.2621 6.03791 20.2621 4.84135C20.2621 3.6448 19.3569 2.6748 18.2404 2.6748C17.1239 2.6748 16.2188 3.6448 16.2188 4.84135C16.2188 6.03791 17.1239 7.0079 18.2404 7.0079Z" fill="#478AFF"/>
<path d="M20.7301 7.01913L20.6453 6.82037L20.5128 6.98506C20.1814 7.38809 19.7623 7.69727 19.2927 7.88519L19.1602 7.9363L19.2132 8.07827C19.9272 9.91834 20.0175 11.9682 19.4686 13.8722C18.9197 15.7762 17.7662 17.4142 16.2081 18.502C14.6501 19.5898 12.7859 20.0588 10.9389 19.8276C9.09192 19.5963 7.37875 18.6795 6.09663 17.2361C4.81451 15.7927 4.04433 13.9139 3.91972 11.9256C3.79512 9.93724 4.32395 7.9649 5.41446 6.35074C6.50497 4.73659 8.08834 3.58248 9.88988 3.08865C11.6914 2.59483 13.5974 2.79244 15.2772 3.64721L15.4017 3.7111L15.456 3.56912C15.654 3.07563 15.9625 2.6421 16.3543 2.30696L16.5132 2.16498L16.3317 2.06418C14.9529 1.29618 13.4211 0.897228 11.8671 0.9014C9.76323 0.901723 7.71598 1.63221 6.0318 2.98355C4.34762 4.33488 3.11708 6.23438 2.52435 8.39776C1.93162 10.5611 2.00857 12.8721 2.7437 14.9847C3.47882 17.0973 4.83257 18.8979 6.60235 20.1172C8.37213 21.3364 10.4628 21.9086 12.5613 21.7482C14.6599 21.5878 16.6536 20.7034 18.244 19.2274C19.8344 17.7513 20.936 15.763 21.3839 13.5599C21.8319 11.3569 21.602 9.05769 20.7288 7.00636L20.7301 7.01913ZM26.6176 6.79907H28.671V15.8855H26.6176V6.79907ZM48.7776 6.79907H50.8311V15.8855H48.7776V6.79907ZM44.0361 6.58611C42.5921 6.58611 41.4766 7.51889 41.2209 7.77587L41.0884 6.79907H39.3794V15.8855H41.4329V10.384C41.4329 9.31062 42.8001 8.42185 43.8003 8.42185C44.8005 8.42185 45.5517 9.44692 45.5517 10.6679V15.8855H47.6052V10.8851C47.5985 8.50278 46.6394 6.58611 44.0361 6.58611ZM56.2217 14.2343C54.6783 14.2343 53.6582 12.9395 53.6582 11.3423C53.6582 9.74507 54.6783 8.45025 56.2217 8.45025C57.5386 8.45025 58.3414 9.81748 58.3414 9.81748L59.8292 8.75124C59.3986 8.04136 58.9018 7.61543 58.2235 7.17531C57.6381 6.7947 56.9674 6.59109 56.2826 6.58611C53.7138 6.58611 51.7518 8.65328 51.7399 11.3423C51.7518 14.0313 53.7138 16.0985 56.2826 16.0985C56.9647 16.092 57.6324 15.8884 58.2155 15.5093C58.8938 15.0706 59.3906 14.6432 59.8212 13.9334L58.3334 12.8671C58.3334 12.8671 57.5386 14.2343 56.2217 14.2343ZM34.0259 6.58611C33.4433 6.57606 32.8647 6.69092 32.3242 6.92392C31.7836 7.15692 31.2919 7.50338 30.8781 7.94291C30.4643 8.38245 30.1366 8.9062 29.9143 9.48339C29.692 10.0606 29.5797 10.6796 29.5838 11.304C29.5838 13.8808 31.3829 16.0985 34.0563 16.0985C36.4768 16.0985 38.46 14.1108 38.46 11.3593C38.46 8.20889 36.1535 6.58611 34.0259 6.58611ZM34.051 8.45451C35.3242 8.45451 36.5298 9.56192 36.5298 11.3466C36.5298 13.0929 35.3295 14.2315 34.0457 14.2315C32.6348 14.2315 31.5286 13.0162 31.5286 11.3324C31.5286 9.68544 32.6269 8.45451 34.0577 8.45451H34.051Z" fill="#478AFF"/>
</g>
<defs>
<clipPath id="clip0_86_29942">
<rect width="22.6897" height="21.7241" fill="white" transform="translate(0.896484 0.896973)"/>
</clipPath>
</defs>
</svg>
