<svg width="16" height="23" viewBox="0 0 16 23" fill="none" xmlns="http://www.w3.org/2000/svg">
<g clip-path="url(#clip0_86_29647)">
<path d="M14.6318 17.6464H14.5303V17.6016H14.8038V17.6464H14.7028V17.8698H14.6318V17.6464ZM15.1774 17.658H15.1758L15.0751 17.8699H15.029L14.929 17.658H14.9278V17.8699H14.8609V17.6016H14.9594L15.0521 17.7916L15.1446 17.6016H15.2427V17.8699H15.1774L15.1774 17.658Z" fill="#E76F00"/>
<path d="M5.5467 12.1638C5.5467 12.1638 4.84066 12.4875 6.04916 12.5971C7.51323 12.7288 8.2615 12.7099 9.87491 12.4691C9.87491 12.4691 10.2991 12.6788 10.8915 12.8605C7.27464 14.0827 2.70586 12.7897 5.5467 12.1638ZM5.10474 10.5688C5.10474 10.5688 4.31285 11.031 5.52225 11.1297C7.08621 11.2569 8.3213 11.2673 10.4585 10.9428C10.4585 10.9428 10.7541 11.1791 11.219 11.3083C6.84593 12.3166 1.97522 11.3878 5.10474 10.5688Z" fill="#5382A1"/>
<path d="M8.83108 7.86367C9.72227 8.67268 8.59698 9.40073 8.59698 9.40073C8.59698 9.40073 10.8598 8.47966 9.82057 7.32625C8.84995 6.25059 8.10562 5.7162 12.1351 3.87354C12.1352 3.8735 5.81012 5.11906 8.83108 7.86367Z" fill="#E76F00"/>
<path d="M13.6151 13.3438C13.6151 13.3438 14.1376 13.6833 13.0397 13.9459C10.952 14.4445 4.35053 14.5951 2.51667 13.9658C1.85744 13.7396 3.09368 13.4258 3.48255 13.36C3.88811 13.2906 4.11987 13.3035 4.11987 13.3035C3.38674 12.8963 -0.618777 14.1031 2.08526 14.4487C9.45958 15.3917 15.528 14.0241 13.6151 13.3438ZM5.88721 8.91662C5.88721 8.91662 2.52927 9.54549 4.69808 9.77385C5.61382 9.87052 7.43932 9.84865 9.13968 9.73631C10.5293 9.64388 11.9248 9.4474 11.9248 9.4474C11.9248 9.4474 11.4348 9.61286 11.0803 9.80369C7.67033 10.5109 1.08298 10.1819 2.97939 9.45855C4.58319 8.84728 5.88721 8.91662 5.88721 8.91662ZM11.9109 11.5715C15.3773 10.1512 13.7746 8.78634 12.6559 8.97026C12.3817 9.01525 12.2595 9.05424 12.2595 9.05424C12.2595 9.05424 12.3613 8.92852 12.5556 8.8741C14.7687 8.26062 16.4707 10.6835 11.8412 11.6431C11.8412 11.6431 11.895 11.6053 11.9109 11.5715Z" fill="#5382A1"/>
<path d="M9.82061 0.897949C9.82061 0.897949 11.7403 2.41208 7.99984 4.74049C5.00034 6.6082 7.31586 7.67314 7.99859 8.88992C6.24779 7.64432 4.96289 6.54789 5.8249 5.5274C7.09007 4.0294 10.5952 3.30312 9.82061 0.897949Z" fill="#E76F00"/>
<path d="M6.22735 15.4199C9.55462 15.5879 14.664 15.3268 14.785 14.0854C14.785 14.0854 14.5524 14.556 12.0352 14.9298C9.19532 15.3511 5.69267 15.302 3.61523 15.0319C3.61533 15.0318 4.04056 15.3094 6.22735 15.4199Z" fill="#5382A1"/>
<path d="M5.68194 20.163C5.36806 20.3776 5.03655 20.4981 4.73906 20.4981C4.31443 20.4981 4.08501 20.2974 4.08501 19.9754C4.08501 19.627 4.33086 19.3724 5.31697 19.3724H5.68189L5.68194 20.163ZM6.54803 20.9335V18.5484C6.54803 17.9391 6.10731 17.5371 5.04472 17.5371C4.42438 17.5371 3.88099 17.6579 3.43933 17.8119L3.56681 18.2341C3.91455 18.1335 4.36468 18.0398 4.80649 18.0398C5.4186 18.0398 5.68194 18.2341 5.68194 18.6359V18.9374H5.37643C3.8892 18.9374 3.21832 19.3926 3.21832 20.0758C3.21832 20.6654 3.66043 21.0006 4.49286 21.0006C5.02794 21.0006 5.42737 20.8264 5.80076 20.5715L5.86853 20.9335L6.54803 20.9335ZM9.43847 20.9335H8.35829L7.05826 17.5975H8.00164L8.80827 19.6471L8.98759 20.2635C9.39569 19.3723 9.68437 18.4681 9.82873 17.5975H10.7464C10.5005 18.696 10.0581 19.9017 9.43847 20.9335ZM13.5824 20.163C13.2679 20.3776 12.9358 20.4981 12.6383 20.4981C12.2144 20.4981 11.9844 20.2974 11.9844 19.9754C11.9844 19.627 12.2307 19.3724 13.2168 19.3724H13.5824V20.163ZM14.4484 20.9335V18.5484C14.4484 17.9391 14.0066 17.5371 12.9452 17.5371C12.3244 17.5371 11.7808 17.6579 11.3394 17.8119L11.4667 18.2341C11.8145 18.1335 12.2655 18.0398 12.707 18.0398C13.3186 18.0398 13.5824 18.2341 13.5824 18.6359V18.9374H13.2763C11.7887 18.9374 11.1181 19.3926 11.1181 20.0758C11.1181 20.6654 11.5598 21.0006 12.3921 21.0006C12.9275 21.0006 13.3268 20.8264 13.7008 20.5715L13.7688 20.9335L14.4484 20.9335ZM2.26867 21.4999C2.02177 21.7842 1.62299 22.009 1.18641 22.1363L0.758789 21.7395C1.09109 21.6051 1.37609 21.3879 1.5085 21.1857C1.62304 21.0058 1.67044 20.774 1.67044 20.2196V16.4111H2.59062V20.1674C2.59057 20.9086 2.51542 21.208 2.26867 21.4999Z" fill="#E76F00"/>
</g>
<defs>
<clipPath id="clip0_86_29647">
<rect width="14.4828" height="21.2414" fill="white" transform="translate(0.758789 0.896484)"/>
</clipPath>
</defs>
</svg>
