<svg width="17" height="20" viewBox="0 0 17 20" fill="none" xmlns="http://www.w3.org/2000/svg">
<g clip-path="url(#clip0_86_29849)">
<path d="M1.60936 17.251L0.275391 0.858398L16.2064 0.89134L14.7959 17.251L8.30103 19.1419L1.60936 17.251Z" fill="#E9CA32"/>
<path d="M8.30078 17.5587V2.41943L14.8613 2.44139L13.6914 15.9864L8.30078 17.5587Z" fill="#FFDE25"/>
<path d="M7.59856 4.2168H5.86413V14.2931L4.51513 14.0347V12.6783L2.90918 12.4199V15.4557L7.59856 16.683V4.2168ZM8.89964 4.2168H13.7012L13.38 6.14808H10.7326V9.31733H13.38L13.0588 15.7141L8.89964 16.683V14.6806L11.7098 13.7118L11.8721 11.0635L8.89964 11.4963V4.2168Z" fill="white"/>
</g>
<defs>
<clipPath id="clip0_86_29849">
<rect width="15.931" height="18.3448" fill="white" transform="translate(0.275391 0.827637)"/>
</clipPath>
</defs>
</svg>
