<svg width="460" height="439" viewBox="0 0 460 439" fill="none" xmlns="http://www.w3.org/2000/svg">
<g clip-path="url(#clip0_86_1613)">
<path fill-rule="evenodd" clip-rule="evenodd" d="M367.707 411C403.069 411 432 373.336 432 327.305C432 281.274 403.069 243.611 367.707 243.611C352.754 243.611 340.523 227.689 340.523 208.224C340.523 188.761 352.754 172.838 367.707 172.838H370.943C386.489 172.838 399.207 156.282 399.207 136.047C399.207 115.813 386.49 99.2559 370.943 99.2559H361.019C354.965 99.2559 350.015 92.8107 350.015 84.9333C350.015 77.0546 354.965 70.6095 361.019 70.6095H368.311C372.489 70.6095 375.906 66.1618 375.906 60.725V60.7226C375.906 55.2869 372.489 50.8381 368.311 50.8381H319.284C312.722 50.8381 307.353 43.8492 307.353 35.3047C307.353 26.7627 312.722 19.7714 319.284 19.7714H333.946C338.122 19.7714 341.537 15.3237 341.537 9.88691C341.537 4.45007 338.122 0 333.946 0H119.247C113.796 0 109.336 5.80568 109.336 12.8987C109.336 19.993 113.796 25.7998 119.247 25.7998H134.282C142.846 25.7998 149.85 34.9191 149.85 46.0658C149.85 57.2138 142.846 66.3354 134.282 66.3354H76.1223C70.6741 66.3354 66.2141 72.1399 66.2141 79.233C66.2141 86.3284 70.6741 92.1329 76.1223 92.1329H85.6404C93.5356 92.1329 99.9976 100.544 99.9976 110.824C99.9976 121.103 93.5356 129.513 85.6404 129.513H72.6889C52.4042 129.513 35.8069 151.117 35.8069 177.521V177.524C35.8069 203.927 52.4042 225.531 72.6889 225.531H76.9098C96.4198 225.531 112.384 246.309 112.384 271.707C112.384 297.104 96.4198 317.882 76.9098 317.882H67.7679C48.0969 317.882 32 338.835 32 364.441C32 390.047 48.0969 411 67.7679 411C169.543 411 265.932 411 367.707 411ZM93.8907 25.801C88.4159 25.801 83.9798 20.0265 83.9798 12.8999C83.9798 5.77574 88.4159 0.00119688 93.8907 0.00119688C99.3628 0.00119688 103.799 5.77574 103.799 12.8999C103.799 20.0265 99.3628 25.801 93.8907 25.801ZM389.624 70.6083C385.426 70.6083 382.028 66.1822 382.028 60.7238C382.028 55.263 385.426 50.8381 389.624 50.8381C393.818 50.8381 397.216 55.263 397.216 60.7238C397.216 66.1834 393.817 70.6083 389.624 70.6083Z" fill="#ACC3E2"/>
<path fill-rule="evenodd" clip-rule="evenodd" d="M89.8946 349.165H112.467C114.552 349.165 116.445 350.017 117.818 351.389C119.19 352.761 120.044 354.657 120.044 356.739V383.455C120.044 385.542 119.19 387.436 117.818 388.809C116.445 390.178 114.552 391.031 112.467 391.031H89.8946C87.8108 391.031 85.9147 390.178 84.5448 388.809C83.1722 387.436 82.3193 385.541 82.3193 383.455V356.739C82.3193 354.656 83.1731 352.761 84.5448 351.389C85.9147 350.017 87.8108 349.165 89.8946 349.165ZM112.467 351.668H89.8946C88.5008 351.668 87.234 352.24 86.3149 353.159C85.3949 354.08 84.8236 355.349 84.8236 356.74V383.456C84.8236 384.85 85.3949 386.118 86.3149 387.037C87.234 387.957 88.5008 388.528 89.8946 388.528H112.467C113.861 388.528 115.128 387.957 116.047 387.037C116.967 386.118 117.539 384.85 117.539 383.456V356.74C117.539 355.349 116.967 354.08 116.047 353.159C115.128 352.24 113.861 351.668 112.467 351.668Z" fill="black"/>
<path fill-rule="evenodd" clip-rule="evenodd" d="M85.9758 356.537H135.108C137.315 356.537 139.12 358.342 139.12 360.552V401.913C139.12 404.121 137.316 405.928 135.108 405.928H85.9758C83.7678 405.928 81.96 404.12 81.96 401.913V360.552C81.96 358.342 83.7678 356.537 85.9758 356.537Z" fill="#0C0E0E"/>
<path fill-rule="evenodd" clip-rule="evenodd" d="M72.9266 365.415H123.504C125.313 365.415 126.793 366.895 126.793 368.709V402.635C126.793 404.445 125.313 405.928 123.504 405.928H72.9266C71.1169 405.928 69.6357 404.445 69.6357 402.635V368.709C69.6357 366.896 71.1169 365.415 72.9266 365.415Z" fill="#222221"/>
<path fill-rule="evenodd" clip-rule="evenodd" d="M69.7331 356.537H125.805C126.348 356.537 126.793 356.982 126.793 357.528V365.549V367.739V376.949C126.793 380.593 123.813 383.575 120.167 383.575H75.369C71.7258 383.575 68.7432 380.593 68.7432 376.949V367.739V365.549V357.528C68.7432 356.982 69.1884 356.537 69.7331 356.537Z" fill="#373736"/>
<path fill-rule="evenodd" clip-rule="evenodd" d="M77.874 376.679H82.5946C82.9 376.679 83.1502 376.929 83.1502 377.235V393.885C83.1502 394.19 82.9 394.441 82.5946 394.441H77.874C77.5686 394.441 77.3184 394.191 77.3184 393.885V377.235C77.3174 376.928 77.5686 376.679 77.874 376.679Z" fill="black"/>
<path fill-rule="evenodd" clip-rule="evenodd" d="M79.2521 389.005H81.2173C81.6248 389.005 81.9597 389.339 81.9597 389.747V392.569C81.9597 392.977 81.6248 393.312 81.2173 393.312H79.2521C78.8437 393.312 78.5088 392.978 78.5088 392.569V389.747C78.5088 389.339 78.8437 389.005 79.2521 389.005Z" fill="#ACC3E2"/>
<path fill-rule="evenodd" clip-rule="evenodd" d="M79.3885 389.785H80.1439C80.3021 389.785 80.4318 389.912 80.4318 390.069V391.155C80.4318 391.313 80.303 391.44 80.1439 391.44H79.3885C79.2303 391.44 79.1006 391.313 79.1006 391.155V390.069C79.1015 389.911 79.2303 389.785 79.3885 389.785Z" fill="white"/>
<path fill-rule="evenodd" clip-rule="evenodd" d="M107.299 376.679H112.019C112.325 376.679 112.575 376.929 112.575 377.235V393.885C112.575 394.19 112.325 394.441 112.019 394.441H107.299C106.993 394.441 106.743 394.191 106.743 393.885V377.235C106.743 376.928 106.993 376.679 107.299 376.679Z" fill="black"/>
<path fill-rule="evenodd" clip-rule="evenodd" d="M108.677 389.005H110.642C111.05 389.005 111.385 389.339 111.385 389.747V392.569C111.385 392.977 111.05 393.312 110.642 393.312H108.677C108.266 393.312 107.931 392.978 107.931 392.569V389.747C107.931 389.339 108.266 389.005 108.677 389.005Z" fill="#ACC3E2"/>
<path fill-rule="evenodd" clip-rule="evenodd" d="M108.812 389.785H109.569C109.724 389.785 109.853 389.912 109.853 390.069V391.156C109.853 391.313 109.724 391.44 109.569 391.44H108.812C108.654 391.44 108.525 391.313 108.525 391.156V390.069C108.525 389.911 108.654 389.785 108.812 389.785Z" fill="white"/>
<path fill-rule="evenodd" clip-rule="evenodd" d="M253.029 0.00119688V410.999H367.756C403.119 410.999 432.05 373.335 432.05 327.304C432.05 281.273 403.119 243.61 367.756 243.61C352.802 243.61 340.571 227.688 340.571 208.223C340.571 188.761 352.802 172.837 367.756 172.837H370.992C386.538 172.837 399.257 156.281 399.257 136.046V136.045C399.257 115.812 386.539 99.2556 370.992 99.2556H361.068C355.013 99.2556 350.064 92.8104 350.064 84.933C350.064 77.0544 355.013 70.6093 361.068 70.6093H368.36C372.538 70.6093 375.955 66.1616 375.955 60.7248V60.7224C375.955 55.2868 372.538 50.8379 368.36 50.8379H319.332C312.769 50.8379 307.4 43.8491 307.4 35.3046C307.4 26.7626 312.769 19.7714 319.332 19.7714H333.994C338.17 19.7714 341.586 15.3237 341.586 9.88688C341.586 4.45005 338.17 0 333.994 0L253.029 0.00119688ZM389.673 70.6093C385.475 70.6093 382.077 66.1832 382.077 60.7248C382.077 55.264 385.475 50.8391 389.673 50.8391C393.868 50.8391 397.266 55.264 397.266 60.7248C397.266 66.1844 393.867 70.6093 389.673 70.6093Z" fill="#5C7596"/>
<path fill-rule="evenodd" clip-rule="evenodd" d="M263.94 0.00119688V4.25845H253.03V4.68238H264.098H264.101H264.106H282.525V18.593H264.106H264.098H253.03V19.0169H263.94V32.9287H253.03V33.3526H264.098H264.101H264.106H282.525V47.2633H264.106H264.098H253.03V47.686H263.94V61.5966H253.03V62.0205H264.098H264.101H264.106H282.525V75.9335H264.106H264.098H253.03V76.3551H263.94V90.2681H253.03V90.6908H264.098H264.101H264.106H282.525V104.603H264.106H264.098H253.03V105.027H263.94V118.938H253.03V119.361H264.098H264.101H264.106H282.525V133.273H264.106H264.098H253.03V133.697H263.94V147.607H253.03V148.031H264.098H264.101H264.106H282.525V161.942H264.106H264.098H253.03V162.366H263.94V176.278H253.03V176.7H264.098H264.101H264.106H282.525V190.612H264.106H264.098H253.03V191.036H263.94V204.947H253.03V205.371H264.098H264.101H264.106H282.525V219.283H264.106H264.098H253.03V219.706H263.94V233.619H253.03V234.041H264.098H264.101H264.106H282.525V247.953H264.106H264.098H253.03V248.376H263.94V262.285H253.03V262.705H264.098H264.101H264.106H282.525V276.618H264.106H264.098H253.03V277.043H263.94V290.952H253.03V291.376H264.098H264.101H264.106H282.525V305.289H264.106H264.098H253.03V305.711H263.94V319.623H253.03V320.046H264.098H264.101H264.106H282.525V333.958H264.106H264.098H253.03V334.38H263.94V348.292H253.03V348.715H264.098H264.101H264.106H282.525V362.627H264.106H264.098H253.03V363.048H263.94V376.961H253.03V377.386H264.098H264.101H264.106H282.525V391.293H264.106H264.098H253.03V391.72H263.94V405.633H253.03V406.055H264.098H264.101H264.106H282.525V411H282.849V406.055H301.267H301.272H301.275H319.693V411H320.017V406.055H338.436H338.441H338.444H356.861V411H357.187V406.055H375.604H375.609H375.614H389.469C389.762 405.918 390.054 405.774 390.344 405.633H375.772V391.72H394.188H394.193H394.199H408.693C408.823 391.58 408.948 391.436 409.078 391.293H394.356V377.386H412.774H412.777H412.783H419.19C419.272 377.245 419.351 377.101 419.43 376.961H412.941V363.048H425.858C425.908 362.912 425.957 362.768 426.01 362.627H412.777H412.769H394.351V348.715H412.769H412.772H412.777H429.901C429.93 348.575 429.961 348.433 429.99 348.292H412.935V334.38H431.353H431.356H431.361H431.819C431.829 334.239 431.839 334.099 431.849 333.958H431.519V320.046H431.806C431.795 319.906 431.788 319.764 431.777 319.623H431.361H431.353H412.935V305.711H429.863C429.835 305.57 429.804 305.43 429.774 305.289H412.777H412.769H394.351V291.376H412.769H412.772H412.777H425.787C425.734 291.237 425.682 291.093 425.628 290.952H412.935V277.043H419.076C418.995 276.9 418.91 276.758 418.826 276.618H412.777H412.769H394.351V262.705H408.519C408.384 262.565 408.25 262.425 408.116 262.285H394.192H394.181H375.766V248.372H389.065C388.753 248.232 388.445 248.087 388.132 247.949H375.609H375.599H357.183V240.809C357.072 240.748 356.965 240.685 356.857 240.625V247.949H338.439H338.431H320.013V234.037H338.431H338.437H338.439H349.208C349.095 233.896 348.979 233.756 348.869 233.616H338.599V219.703H342.049C342.011 219.56 341.975 219.42 341.938 219.279H338.439H338.431H320.013V205.367H338.431H338.437H338.439H340.659C340.668 205.227 340.679 205.084 340.689 204.943H338.599V191.033H344.019C344.079 190.89 344.141 190.75 344.2 190.609H338.439H338.431H320.013V176.697H338.431H338.437H338.439H355.444C355.663 176.552 355.884 176.412 356.106 176.274H338.599V162.362H357.015H357.021H357.026H375.441V172.375C375.551 172.352 375.657 172.328 375.767 172.304V162.361H390.692C390.803 162.22 390.911 162.08 391.021 161.937H375.609H375.599H357.183V148.027H375.599H375.605H375.609H394.025V157.301C394.135 157.1 394.243 156.897 394.351 156.692V148.027H397.705C397.744 147.885 397.781 147.745 397.815 147.603H394.194H394.183H375.767V133.692H394.183H394.189H394.194H399.197C399.189 133.55 399.183 133.409 399.176 133.268H394.352V119.356H396.163C396.107 119.214 396.05 119.075 395.992 118.934H394.196H394.185H375.769V105.022H386.14C385.967 104.878 385.795 104.737 385.619 104.598H375.609H375.599H357.183V98.3239C357.072 98.2712 356.965 98.2149 356.857 98.1563V104.598H338.439H338.431H320.013V90.686H338.431H338.437H338.439H350.996C350.95 90.5459 350.903 90.4058 350.858 90.2633H338.6V76.3551H352.268C352.353 76.2126 352.437 76.0724 352.523 75.9335H338.439H338.431H320.013V62.0205H338.431H338.437H338.439H356.857V71.705C356.965 71.6463 357.072 71.5901 357.183 71.5374V62.0205H375.599H375.605H375.609H375.889C375.902 61.8792 375.915 61.7403 375.924 61.5966H375.767V58.5489C375.683 58.0734 375.575 57.6124 375.441 57.1645V61.5966H357.026H357.015H338.599V50.8379H338.273V61.5966H319.855H319.847H301.432V47.6872H312.147C312.008 47.5495 311.873 47.4094 311.736 47.2645H301.273H301.265H282.847V33.3526H301.265H301.27H301.273H307.496C307.51 33.2101 307.525 33.07 307.541 32.9287H301.434V19.0169H319.849H319.854H319.857H336.897C337.129 18.89 337.358 18.7499 337.576 18.593H320.015V4.68238H338.434H338.439H338.442H340.441C340.373 4.53867 340.301 4.39736 340.228 4.25845H338.602V2.043C338.495 1.93642 338.386 1.83343 338.276 1.73523V4.25725H319.858H319.85H301.435V0H301.109V4.25725H282.69H282.682H264.265V0L263.94 0.00119688ZM382.143 62.0217C382.127 61.8804 382.117 61.7415 382.106 61.5978H394.183H394.194H397.237C397.226 61.7403 397.216 61.8804 397.2 62.0217H394.351V68.5112C394.244 68.619 394.136 68.7243 394.025 68.8225V62.0205H382.143V62.0217ZM264.263 391.72H282.68H282.686H282.688H301.107V405.633H282.688H282.68H264.263V391.72ZM301.434 391.72H319.849H319.854H319.857H338.275V405.633H319.857H319.849H301.434V391.72ZM338.6 391.72H357.016H357.022H357.027H375.442V405.633H357.027H357.016H338.6V391.72ZM282.847 377.386H301.265H301.27H301.273H319.692V391.293H301.273H301.265H282.847V377.386ZM320.015 377.386H338.433H338.438H338.441H356.859V391.293H338.441H338.433H320.015V377.386ZM357.183 377.386H375.6H375.606H375.61H394.026V391.293H375.609H375.599H357.183V377.386H357.183ZM264.263 363.048H282.68H282.686H282.688H301.107V376.961H282.688H282.68H264.263V363.048ZM301.434 363.048H319.849H319.854H319.857H338.275V376.961H319.857H319.849H301.434V363.048ZM338.6 363.048H357.016H357.022H357.027H375.442V376.961H357.027H357.016H338.6V363.048ZM375.767 363.048H394.183H394.189H394.194H412.609V376.961H394.194H394.183H375.767V363.048ZM282.847 348.715H301.265H301.27H301.273H319.692V362.627H301.273H301.265H282.847V348.715ZM320.015 348.715H338.433H338.438H338.441H356.859V362.627H338.441H338.433H320.015V348.715ZM357.183 348.715H375.6H375.606H375.61H394.026V362.627H375.609H375.599H357.183V348.715H357.183ZM264.263 334.38H282.68H282.686H282.688H301.107V348.292H282.688H282.68H264.263V334.38ZM301.434 334.38H319.849H319.854H319.857H338.275V348.292H319.857H319.849H301.434V334.38ZM338.6 334.38H357.016H357.022H357.027H375.442V348.292H357.027H357.016H338.6V334.38ZM375.767 334.38H394.183H394.189H394.194H412.609V348.292H394.194H394.183H375.767V334.38ZM282.847 320.046H301.265H301.27H301.273H319.692V333.958H301.273H301.265H282.847V320.046ZM320.015 320.046H338.433H338.438H338.441H356.859V333.958H338.441H338.433H320.015V320.046ZM357.183 320.046H375.6H375.606H375.61H394.026V333.958H375.609H375.599H357.183V320.046H357.183ZM394.351 320.046H412.77H412.773H412.778H431.197V333.958H412.778H412.77H394.351V320.046ZM264.263 305.712H282.68H282.686H282.688H301.107V319.624H282.688H282.68H264.263V305.712ZM301.434 305.712H319.849H319.854H319.857H338.275V319.624H319.857H319.849H301.434V305.712ZM338.6 305.712H357.016H357.022H357.027H375.442V319.624H357.027H357.016H338.6V305.712ZM375.767 305.712H394.183H394.189H394.194H412.609V319.624H394.194H394.183H375.767V305.712ZM282.847 291.377H301.265H301.27H301.273H319.692V305.29H301.273H301.265H282.847V291.377ZM320.015 291.377H338.433H338.438H338.441H356.859V305.29H338.441H338.433H320.015V291.377ZM357.183 291.377H375.6H375.606H375.61H394.026V305.29H375.609H375.599H357.183V291.377H357.183ZM264.263 277.043H282.68H282.686H282.688H301.107V290.952H282.688H282.68H264.263V277.043ZM301.434 277.043H319.849H319.854H319.857H338.275V290.952H319.857H319.849H301.434V277.043ZM338.6 277.043H357.016H357.022H357.027H375.442V290.952H357.027H357.016H338.6V277.043ZM375.767 277.043H394.183H394.189H394.194H412.609V290.952H394.194H394.183H375.767V277.043ZM282.847 262.705H301.265H301.27H301.273H319.692V276.618H301.273H301.265H282.847V262.705ZM320.015 262.705H338.433H338.438H338.441H356.859V276.618H338.441H338.433H320.015V262.705ZM357.183 262.705H375.6H375.606H375.61H394.026V276.618H375.609H375.599H357.183V262.705H357.183ZM264.263 248.372H282.68H282.686H282.688H301.107V262.285H282.688H282.68H264.263V248.372ZM301.434 248.372H319.849H319.854H319.857H338.275V262.285H319.857H319.849H301.434V248.372ZM338.6 248.372H357.016H357.022H357.027H375.442V262.285H357.027H357.016H338.6V248.372ZM282.847 234.037H301.265H301.27H301.273H319.692V247.949H301.273H301.265H282.847V234.037ZM264.263 219.704H282.68H282.686H282.688H301.107V233.617H282.688H282.68H264.263V219.704ZM301.434 219.704H319.849H319.854H319.857H338.275V233.617H319.857H319.849H301.434V219.704ZM282.847 205.368H301.265H301.27H301.273H319.692V219.28H301.273H301.265H282.847V205.368ZM264.263 191.034H282.68H282.686H282.688H301.107V204.944H282.688H282.68H264.263V191.034ZM301.434 191.034H319.849H319.854H319.857H338.275V204.944H319.857H319.849H301.434V191.034ZM282.847 176.698H301.265H301.27H301.273H319.692V190.61H301.273H301.265H282.847V176.698ZM264.263 162.363H282.68H282.686H282.688H301.107V176.275H282.688H282.68H264.263V162.363ZM301.434 162.363H319.849H319.854H319.857H338.275V176.275H319.857H319.849H301.434V162.363ZM282.847 148.03H301.265H301.27H301.273H319.692V161.941H301.273H301.265H282.847V148.03ZM320.015 148.03H338.433H338.438H338.441H356.859V161.941H338.441H338.433H320.015V148.03ZM264.263 133.696H282.68H282.686H282.688H301.107V147.606H282.688H282.68H264.263V133.696ZM301.434 133.696H319.849H319.854H319.857H338.275V147.606H319.857H319.849H301.434V133.696ZM338.6 133.696H357.016H357.022H357.027H375.442V147.606H357.027H357.016H338.6V133.696ZM282.847 119.36H301.265H301.27H301.273H319.692V133.272H301.273H301.265H282.847V119.36ZM320.015 119.36H338.433H338.438H338.441H356.859V133.272H338.441H338.433H320.015V119.36ZM357.183 119.36H375.6H375.606H375.61H394.026V133.272H375.609H375.599H357.183V119.36H357.183ZM264.263 105.025H282.68H282.686H282.688H301.107V118.937H282.688H282.68H264.263V105.025ZM301.434 105.025H319.849H319.854H319.857H338.275V118.937H319.857H319.849H301.434V105.025ZM338.6 105.025H357.016H357.022H357.027H375.442V118.937H357.027H357.016H338.6V105.025ZM282.847 90.6908H301.265H301.27H301.273H319.692V104.603H301.273H301.265H282.847V90.6908ZM264.263 76.3551H282.68H282.686H282.688H301.107V90.2681H282.688H282.68H264.263V76.3551ZM301.434 76.3551H319.849H319.854H319.857H338.275V90.2681H319.857H319.849H301.434V76.3551ZM282.847 62.0217H301.265H301.27H301.273H319.692V75.9347H301.273H301.265H282.847V62.0217ZM264.263 47.6872H282.68H282.686H282.688H301.107V61.5978H282.688H282.68H264.263V47.6872ZM264.263 19.0169H282.68H282.686H282.688H301.107V32.9287H282.688H282.68H264.263V19.0169ZM282.847 4.68238H301.265H301.27H301.273H319.692V18.593H301.273H301.265H282.847V4.68238Z" fill="#ACC3E2"/>
<path fill-rule="evenodd" clip-rule="evenodd" d="M73.643 171.112C81.3406 163.274 87.0658 173.229 86.2672 183.222C85.5091 192.697 77.3414 225.207 78.8566 238.882H75.7295C68.0788 221.345 63.7898 181.146 73.643 171.112Z" fill="#E7EEF7"/>
<path fill-rule="evenodd" clip-rule="evenodd" d="M76.879 238.882C69.4344 211.241 78.8598 173.031 78.892 172.902C78.95 172.664 79.1873 172.518 79.4238 172.576C79.6639 172.633 79.8092 172.872 79.7504 173.11C79.7182 173.24 70.2817 211.493 77.7843 238.882H76.879Z" fill="#ACC3E2"/>
<path fill-rule="evenodd" clip-rule="evenodd" d="M92.6331 188.384C100.745 184.086 102.789 193.463 99.6279 201.22C97.0068 207.649 85.4304 226.666 81.0522 238.883H76.9296C76.5782 221.999 83.0596 193.456 92.6331 188.384Z" fill="#92A9C8"/>
<path fill-rule="evenodd" clip-rule="evenodd" d="M78.4355 238.882C81.1173 216.047 96.3047 191.224 96.3608 191.135C96.4657 190.96 96.693 190.904 96.8668 191.01C97.0435 191.117 97.0987 191.345 96.9901 191.519C96.9377 191.608 81.8469 216.27 79.1679 238.882H78.4355Z" fill="#5C7596"/>
<path fill-rule="evenodd" clip-rule="evenodd" d="M58.3498 199.222C50.4884 195.788 49.2427 204.67 52.7359 211.676C55.0985 216.417 63.6168 228.556 69.3493 238.883H75.896C73.6567 223.261 66.4771 202.772 58.3498 199.222Z" fill="white"/>
<path fill-rule="evenodd" clip-rule="evenodd" d="M73.5581 238.883C67.9755 219.956 55.1222 202.119 55.0697 202.049C54.9593 201.893 54.7431 201.857 54.5904 201.969C54.4359 202.08 54.3981 202.295 54.5095 202.451C54.5591 202.522 67.2781 220.172 72.8478 238.884H73.5581V238.883Z" fill="#D6CBD3"/>
<path fill-rule="evenodd" clip-rule="evenodd" d="M85.9669 232.633H62.9338C62.2457 232.633 61.6826 233.197 61.6826 233.886V239.572C61.6826 240.261 62.2466 240.825 62.9338 240.825H85.9669C86.6569 240.825 87.2209 240.261 87.2209 239.572V233.886C87.2209 233.198 86.6569 232.633 85.9669 232.633Z" fill="#0C0E0E"/>
<path fill-rule="evenodd" clip-rule="evenodd" d="M82.0172 237.259H66.885L62.9336 240.825L66.16 253.257H74.4511H82.7394L85.9667 240.825L82.0172 237.259Z" fill="#0C0E0E"/>
<path fill-rule="evenodd" clip-rule="evenodd" d="M62.9336 240.825L63.5969 243.381H85.3025L85.9667 240.825H62.9336Z" fill="black"/>
<path d="M236.59 80.7158H177.778V136.037H236.59V80.7158Z" fill="#7D94B5"/>
<path d="M238.469 78.4111H179.659V133.733H238.469V78.4111Z" fill="#C9D7EC"/>
<path d="M230.37 87.2578H187.758V124.886H230.37V87.2578Z" fill="white"/>
<path fill-rule="evenodd" clip-rule="evenodd" d="M230.37 102.246H229.525L229.494 101.144C229.491 100.978 229.338 100.845 229.156 100.845H224.977C224.79 100.845 224.638 100.981 224.638 101.151V103.746H222.941V102.556C222.941 102.47 222.907 102.397 222.841 102.337C222.775 102.276 222.694 102.247 222.598 102.248L221.091 102.255C220.904 102.258 220.755 102.393 220.755 102.561L220.738 113.039L219.197 113.036C219.102 113.036 219.023 113.065 218.955 113.126C218.889 113.186 218.857 113.259 218.857 113.343V115.524H217.622V114.966C217.622 114.795 217.469 114.657 217.282 114.657H216.55C216.385 114.657 216.245 114.767 216.218 114.909V113.734L216.208 104.576C216.208 104.443 216.118 104.329 215.979 104.286L215.61 104.173C215.59 104.164 215.566 104.154 215.545 104.142C215.532 104.063 215.534 103.914 215.534 103.854C215.529 103.53 215.523 103.208 215.511 102.886C215.503 102.724 215.36 102.595 215.181 102.591L214.62 102.575L214.588 96.5905C214.588 96.4258 214.443 96.2915 214.264 96.285L213.676 96.2611L213.665 93.9611C213.665 93.7927 213.515 93.6556 213.33 93.6556C213.241 93.6556 213.153 93.6593 213.064 93.6639C213.059 93.6649 213.053 93.6649 213.046 93.6649C213.027 93.5103 213.035 93.2168 213.038 93.1285C213.049 92.5093 213.074 91.8874 213.088 91.2673C213.091 91.1799 213.06 91.1063 212.993 91.0456C212.927 90.984 212.845 90.9536 212.751 90.9536H207.737C207.551 90.9536 207.4 91.0907 207.397 91.2581L207.384 93.6474C207.253 93.6474 207.165 93.6731 206.933 93.8176C206.837 93.8755 206.783 93.9648 206.783 94.0706L206.781 96.285L206.164 96.3043C205.986 96.3117 205.84 96.4469 205.84 96.6116V102.593L205.229 102.61C205.046 102.616 204.905 102.749 204.902 102.913L204.884 104.166H204.58C204.393 104.166 204.243 104.304 204.241 104.473L204.217 124.885H230.369L230.37 102.246ZM201.699 124.887V109.561C201.699 109.426 201.705 109.291 201.702 109.156C201.697 109.017 201.67 108.887 201.547 108.79C201.438 108.707 201.335 108.701 201.206 108.687C201.185 108.684 201.164 108.682 201.143 108.679L201.148 107.451C201.148 107.285 201 107.147 200.816 107.144C200.672 107.141 200.529 107.147 200.388 107.147C200.358 107.148 200.3 107.15 200.255 107.147C200.221 107.016 200.227 106.662 200.227 106.57C200.231 105.941 200.255 105.313 200.265 104.685C200.268 104.479 200.273 104.238 200.239 104.037C200.213 103.875 200.147 103.733 199.978 103.657C199.97 103.654 199.963 103.651 199.954 103.65C199.944 103.627 199.933 103.601 199.928 103.583C199.892 103.477 199.896 103.175 199.896 103.055C199.894 102.88 199.896 102.696 199.878 102.522C199.859 102.363 199.709 102.244 199.535 102.247L197.035 102.285C196.911 102.287 196.803 102.348 196.745 102.439C196.75 102.006 196.761 101.575 196.729 101.143C196.718 100.981 196.571 100.856 196.392 100.855L193.713 100.839C193.525 100.839 193.373 100.974 193.373 101.144L193.349 103.59C193.333 103.593 193.32 103.594 193.301 103.6C193.141 103.635 193.017 103.706 192.89 103.801C192.811 103.86 192.766 103.941 192.766 104.035L192.729 107.15L192.187 107.193C192.026 107.205 191.9 107.318 191.88 107.464L191.72 108.698C191.665 108.716 191.612 108.734 191.556 108.769C191.398 108.869 191.353 109.023 191.325 109.187C191.322 109.204 191.319 109.219 191.319 109.237L191.308 124.889H201.699V124.887ZM189.191 124.887L189.189 122.641C189.189 122.556 189.155 122.483 189.086 122.422C189.02 122.363 188.942 122.334 188.846 122.334L187.99 122.361C187.9 122.361 187.819 122.395 187.758 122.446V124.887H189.191Z" fill="#E7EEF7"/>
<path fill-rule="evenodd" clip-rule="evenodd" d="M285.759 288.802H371.849C375.163 288.802 377.874 286.091 377.874 282.776C377.874 279.464 375.164 276.755 371.849 276.755H285.759C282.445 276.755 279.734 279.464 279.734 282.776C279.735 286.09 282.446 288.802 285.759 288.802Z" fill="#D84F50"/>
<path fill-rule="evenodd" clip-rule="evenodd" d="M36.9439 421.351H52.2877C54.9594 421.351 57.1453 423.535 57.1453 426.209C57.1453 428.88 54.9594 431.066 52.2877 431.066H44.9948C42.877 431.066 41.141 432.8 41.141 434.92C41.141 437.041 42.8742 438.776 44.9948 438.776H397.56C399.682 438.776 401.417 437.04 401.417 434.92C401.417 432.799 399.681 431.066 397.56 431.066H390.602C387.931 431.066 385.744 428.88 385.744 426.209C385.744 423.535 387.931 421.351 390.602 421.351H421.051C425.292 421.351 428.763 417.882 428.763 413.637C428.763 409.395 425.291 405.929 421.051 405.929H36.9439C32.7055 405.929 29.2334 409.395 29.2334 413.637C29.2334 417.882 32.7027 421.351 36.9439 421.351ZM34.5768 438.778C32.4479 438.778 30.722 437.05 30.722 434.922C30.722 432.794 32.447 431.065 34.5768 431.065C36.7075 431.065 38.4334 432.795 38.4334 434.922C38.4325 437.05 36.7075 438.778 34.5768 438.778Z" fill="black"/>
<path fill-rule="evenodd" clip-rule="evenodd" d="M264.107 124.879H290.541C291.124 124.879 291.597 125.355 291.597 125.935V155.008C291.597 155.59 291.123 156.066 290.541 156.066H264.107C263.525 156.066 263.049 155.59 263.049 155.008V125.935C263.049 125.355 263.525 124.879 264.107 124.879Z" fill="#465B75"/>
<path fill-rule="evenodd" clip-rule="evenodd" d="M263.118 124.631H289.553C290.135 124.631 290.611 125.108 290.611 125.688V154.761C290.611 155.342 290.135 155.818 289.553 155.818H263.118C262.538 155.818 262.061 155.343 262.061 154.761V125.688C262.061 125.108 262.538 124.631 263.118 124.631Z" fill="white"/>
<path fill-rule="evenodd" clip-rule="evenodd" d="M263.118 124.631H289.553C290.135 124.631 290.611 125.108 290.611 125.688V131.121C290.611 131.702 290.135 132.177 289.553 132.177H263.118C262.538 132.177 262.061 131.702 262.061 131.121V125.688C262.061 125.108 262.538 124.631 263.118 124.631Z" fill="#ACC3E2"/>
<path fill-rule="evenodd" clip-rule="evenodd" d="M264.938 134.955H266.711C266.948 134.955 267.141 135.148 267.141 135.385V137.16C267.141 137.397 266.948 137.59 266.711 137.59H264.938C264.698 137.59 264.506 137.396 264.506 137.16V135.385C264.506 135.148 264.698 134.955 264.938 134.955Z" fill="#E2ECF7"/>
<path fill-rule="evenodd" clip-rule="evenodd" d="M269.141 134.955H270.915C271.153 134.955 271.348 135.148 271.348 135.385V137.16C271.348 137.397 271.153 137.59 270.915 137.59H269.141C268.904 137.59 268.71 137.396 268.71 137.16V135.385C268.71 135.148 268.904 134.955 269.141 134.955Z" fill="#E2ECF7"/>
<path fill-rule="evenodd" clip-rule="evenodd" d="M273.347 134.955H275.12C275.358 134.955 275.553 135.148 275.553 135.385V137.16C275.553 137.397 275.358 137.59 275.12 137.59H273.347C273.109 137.59 272.915 137.396 272.915 137.16V135.385C272.915 135.148 273.109 134.955 273.347 134.955Z" fill="#E2ECF7"/>
<path fill-rule="evenodd" clip-rule="evenodd" d="M277.551 134.955H279.327C279.564 134.955 279.759 135.148 279.759 135.385V137.16C279.759 137.397 279.564 137.59 279.327 137.59H277.551C277.313 137.59 277.118 137.396 277.118 137.16V135.385C277.119 135.148 277.314 134.955 277.551 134.955Z" fill="#E2ECF7"/>
<path fill-rule="evenodd" clip-rule="evenodd" d="M285.963 134.955H287.736C287.974 134.955 288.168 135.148 288.168 135.385V137.16C288.168 137.397 287.974 137.59 287.736 137.59H285.963C285.725 137.59 285.53 137.396 285.53 137.16V135.385C285.53 135.148 285.725 134.955 285.963 134.955Z" fill="#E2ECF7"/>
<path fill-rule="evenodd" clip-rule="evenodd" d="M264.938 139.455H266.711C266.948 139.455 267.141 139.648 267.141 139.886V141.659C267.141 141.897 266.948 142.092 266.711 142.092H264.938C264.698 142.092 264.506 141.898 264.506 141.659V139.886C264.506 139.649 264.698 139.455 264.938 139.455Z" fill="#E2ECF7"/>
<path fill-rule="evenodd" clip-rule="evenodd" d="M273.347 139.455H275.12C275.358 139.455 275.553 139.648 275.553 139.886V141.659C275.553 141.897 275.358 142.092 275.12 142.092H273.347C273.109 142.092 272.915 141.898 272.915 141.659V139.886C272.915 139.649 273.109 139.455 273.347 139.455Z" fill="#E2ECF7"/>
<path fill-rule="evenodd" clip-rule="evenodd" d="M277.551 139.455H279.327C279.564 139.455 279.759 139.648 279.759 139.886V141.659C279.759 141.897 279.564 142.092 279.327 142.092H277.551C277.313 142.092 277.118 141.898 277.118 141.659V139.886C277.119 139.649 277.314 139.455 277.551 139.455Z" fill="#E2ECF7"/>
<path fill-rule="evenodd" clip-rule="evenodd" d="M281.756 139.455H283.532C283.77 139.455 283.964 139.648 283.964 139.886V141.659C283.964 141.897 283.77 142.092 283.532 142.092H281.756C281.518 142.092 281.326 141.898 281.326 141.659V139.886C281.326 139.649 281.518 139.455 281.756 139.455Z" fill="#E2ECF7"/>
<path fill-rule="evenodd" clip-rule="evenodd" d="M285.963 139.455H287.736C287.974 139.455 288.168 139.648 288.168 139.886V141.659C288.168 141.897 287.974 142.092 287.736 142.092H285.963C285.725 142.092 285.53 141.898 285.53 141.659V139.886C285.53 139.649 285.725 139.455 285.963 139.455Z" fill="#E2ECF7"/>
<path fill-rule="evenodd" clip-rule="evenodd" d="M264.938 143.957H266.711C266.948 143.957 267.141 144.15 267.141 144.388V146.162C267.141 146.4 266.948 146.595 266.711 146.595H264.938C264.698 146.595 264.506 146.4 264.506 146.162V144.388C264.506 144.15 264.698 143.957 264.938 143.957Z" fill="#E2ECF7"/>
<path fill-rule="evenodd" clip-rule="evenodd" d="M269.141 143.957H270.915C271.153 143.957 271.348 144.15 271.348 144.388V146.162C271.348 146.4 271.153 146.595 270.915 146.595H269.141C268.904 146.595 268.71 146.4 268.71 146.162V144.388C268.71 144.15 268.904 143.957 269.141 143.957Z" fill="#E2ECF7"/>
<path fill-rule="evenodd" clip-rule="evenodd" d="M273.347 143.957H275.12C275.358 143.957 275.553 144.15 275.553 144.388V146.162C275.553 146.4 275.358 146.595 275.12 146.595H273.347C273.109 146.595 272.915 146.4 272.915 146.162V144.388C272.915 144.15 273.109 143.957 273.347 143.957Z" fill="#E2ECF7"/>
<path fill-rule="evenodd" clip-rule="evenodd" d="M281.756 143.957H283.532C283.77 143.957 283.964 144.15 283.964 144.388V146.162C283.964 146.4 283.77 146.595 283.532 146.595H281.756C281.518 146.595 281.326 146.4 281.326 146.162V144.388C281.326 144.15 281.518 143.957 281.756 143.957Z" fill="#E2ECF7"/>
<path fill-rule="evenodd" clip-rule="evenodd" d="M285.963 143.957H287.736C287.974 143.957 288.168 144.15 288.168 144.388V146.162C288.168 146.4 287.974 146.595 287.736 146.595H285.963C285.725 146.595 285.53 146.4 285.53 146.162V144.388C285.53 144.15 285.725 143.957 285.963 143.957Z" fill="#E2ECF7"/>
<path fill-rule="evenodd" clip-rule="evenodd" d="M273.347 148.457H275.12C275.358 148.457 275.553 148.65 275.553 148.889V150.664C275.553 150.9 275.358 151.094 275.12 151.094H273.347C273.109 151.094 272.915 150.9 272.915 150.664V148.889C272.915 148.65 273.109 148.457 273.347 148.457Z" fill="#E2ECF7"/>
<path fill-rule="evenodd" clip-rule="evenodd" d="M277.551 148.457H279.327C279.564 148.457 279.759 148.65 279.759 148.889V150.664C279.759 150.9 279.564 151.094 279.327 151.094H277.551C277.313 151.094 277.118 150.9 277.118 150.664V148.889C277.119 148.65 277.314 148.457 277.551 148.457Z" fill="#E2ECF7"/>
<path fill-rule="evenodd" clip-rule="evenodd" d="M281.756 148.457H283.532C283.77 148.457 283.964 148.65 283.964 148.889V150.664C283.964 150.9 283.77 151.094 283.532 151.094H281.756C281.518 151.094 281.326 150.9 281.326 150.664V148.889C281.326 148.65 281.518 148.457 281.756 148.457Z" fill="#E2ECF7"/>
<path fill-rule="evenodd" clip-rule="evenodd" d="M263.713 126.174H274.677C274.891 126.174 275.065 126.348 275.065 126.56C275.065 126.772 274.891 126.945 274.677 126.945H263.713C263.502 126.945 263.328 126.772 263.328 126.561C263.328 126.349 263.501 126.174 263.713 126.174Z" fill="white"/>
<path fill-rule="evenodd" clip-rule="evenodd" d="M270.014 128.089H264.916C264.706 128.089 264.531 128.263 264.531 128.474C264.531 128.687 264.705 128.861 264.916 128.861H270.014C270.227 128.861 270.399 128.687 270.399 128.474C270.399 128.263 270.228 128.089 270.014 128.089Z" fill="white"/>
<path fill-rule="evenodd" clip-rule="evenodd" d="M263.713 130.004H279.806C280.017 130.004 280.191 130.177 280.191 130.39C280.191 130.601 280.017 130.776 279.806 130.776H263.713C263.502 130.776 263.328 130.602 263.328 130.39C263.328 130.177 263.501 130.004 263.713 130.004Z" fill="white"/>
<path fill-rule="evenodd" clip-rule="evenodd" d="M263.713 128.089H263.744C263.957 128.089 264.129 128.263 264.129 128.474C264.129 128.687 263.958 128.861 263.744 128.861H263.713C263.502 128.861 263.328 128.687 263.328 128.474C263.328 128.263 263.501 128.089 263.713 128.089Z" fill="white"/>
<path fill-rule="evenodd" clip-rule="evenodd" d="M330.381 403.091V299.778C330.381 299.145 329.862 298.626 329.23 298.626H328.381C327.748 298.626 327.23 299.145 327.23 299.778V403.091C327.23 403.725 327.748 404.24 328.381 404.24H329.23C329.863 404.24 330.381 403.724 330.381 403.091Z" fill="black"/>
<path fill-rule="evenodd" clip-rule="evenodd" d="M330.391 317.205H327.22C324.852 317.205 322.915 319.14 322.915 321.509V325.681C322.915 328.048 324.852 329.984 327.22 329.984H330.391C332.759 329.984 334.697 328.049 334.697 325.681V321.509C334.697 319.141 332.759 317.205 330.391 317.205Z" fill="#252525"/>
<path fill-rule="evenodd" clip-rule="evenodd" d="M331.418 397.938H326.192C324.924 397.938 323.889 398.973 323.889 400.241V401.937C323.889 403.205 324.924 404.24 326.192 404.24H331.418C332.686 404.24 333.722 403.205 333.722 401.937V400.241C333.722 398.973 332.686 397.938 331.418 397.938Z" fill="#252525"/>
<path fill-rule="evenodd" clip-rule="evenodd" d="M342.676 401.089H314.935C312.991 401.089 311.398 402.68 311.398 404.625V407.23C311.398 409.175 312.99 410.765 314.935 410.765H342.675C344.621 410.765 346.211 409.176 346.211 407.23V404.625C346.211 402.68 344.622 401.089 342.676 401.089Z" fill="black"/>
<path fill-rule="evenodd" clip-rule="evenodd" d="M350.909 319.343C350.909 317.674 349.542 316.303 347.868 316.303H309.743C308.07 316.303 306.702 317.673 306.702 319.343C306.702 321.016 308.069 322.384 309.743 322.384H347.868C349.541 322.384 350.909 321.017 350.909 319.343Z" fill="#252525"/>
<path fill-rule="evenodd" clip-rule="evenodd" d="M359.079 314.699C359.079 311.891 356.782 309.591 353.973 309.591H303.696C300.888 309.591 298.588 311.891 298.588 314.699C298.588 317.508 300.888 319.805 303.696 319.805H353.973C356.782 319.804 359.079 317.507 359.079 314.699Z" fill="black"/>
<path fill-rule="evenodd" clip-rule="evenodd" d="M266.787 314.802H314.917C318.231 314.802 320.943 312.091 320.943 308.776C320.943 305.464 318.232 302.755 314.917 302.755H266.788C263.476 302.755 260.766 305.464 260.766 308.776C260.765 312.09 263.476 314.802 266.787 314.802Z" fill="#A62A34"/>
<path fill-rule="evenodd" clip-rule="evenodd" d="M334.578 124.611L334.663 124.602C336.092 124.665 345.74 125.398 347.998 133.921C350.437 143.134 345.034 150.189 345.002 157.261C344.97 164.333 346.125 169.895 348.593 174.246C348.593 174.246 348.845 174.834 347.871 175.972C346.896 177.109 321.919 190.605 302.287 173.297C302.287 173.297 301.699 172.737 302.187 171.739C302.676 170.738 307.941 156.756 305.335 150.677C304.742 149.295 303.662 148.197 302.349 147.322C302.288 147.124 302.221 146.928 302.15 146.736C298.606 137.125 312.977 121.675 334.578 124.611Z" fill="black"/>
<path fill-rule="evenodd" clip-rule="evenodd" d="M334.581 124.611L334.66 124.602C336.088 124.665 345.74 125.395 347.998 133.921C350.437 143.134 345.034 150.189 345.002 157.261C344.97 164.333 346.125 169.895 348.593 174.246C348.593 174.246 348.845 174.834 347.871 175.972C347.589 176.302 345.279 177.674 341.667 179.032C338.927 172.788 335.9 167.068 336.082 162.406C336.408 154.087 307.878 160.973 307.878 160.973C307.878 160.973 307.27 169.595 305.872 175.674L305.791 176.029C304.608 175.217 303.438 174.313 302.287 173.297C302.287 173.297 301.699 172.737 302.187 171.739C302.676 170.739 307.941 156.756 305.335 150.677C304.742 149.295 303.662 148.195 302.349 147.322C302.288 147.124 302.221 146.929 302.15 146.736C299.918 140.684 304.792 132.318 314.1 127.683L333.921 124.529C334.14 124.555 334.359 124.58 334.581 124.611Z" fill="#0C0E0E"/>
<path fill-rule="evenodd" clip-rule="evenodd" d="M316.881 380.65L320.227 383.209L318.267 404.358C318.267 404.358 318.19 405.928 317.471 405.928C316.753 405.928 316.302 405.928 316.302 405.928C316.302 405.928 315.75 405.773 315.807 404.843C315.865 403.909 316.366 383.88 316.366 383.88L316.881 380.65Z" fill="#FBE6DE"/>
<path fill-rule="evenodd" clip-rule="evenodd" d="M241.715 380.65L245.058 383.209L243.098 404.358C243.098 404.358 243.025 405.928 242.303 405.928C241.584 405.928 241.135 405.928 241.135 405.928C241.135 405.928 240.581 405.773 240.64 404.843C240.696 403.909 241.199 383.88 241.199 383.88L241.715 380.65Z" fill="#FBE6DE"/>
<path fill-rule="evenodd" clip-rule="evenodd" d="M315.583 373.5C315.583 373.5 319.967 375.95 320.343 376.846C320.72 377.742 321.664 381.746 320.626 383.209C319.59 384.671 316.527 385.801 315.82 386.697C315.111 387.593 311.435 403.147 311.435 403.147C311.435 403.147 310.87 405.928 307.662 405.928C304.46 405.928 288.48 405.928 288.48 405.928C288.48 405.928 287.561 405.738 287.584 404.49C287.595 403.802 288.154 402.799 288.651 402.035C289.653 400.502 291.009 400.415 292.013 400.415L302.029 397.749L307.829 383.233L311.55 372.909C311.552 372.909 314.429 371.921 315.583 373.5Z" fill="white"/>
<path fill-rule="evenodd" clip-rule="evenodd" d="M289.093 349.319C290.924 352.198 306.533 373.029 305.962 375.22C305.132 378.421 302.45 387.489 301.536 390.609C299.275 398.338 296.304 397.914 294.937 397.914C293.569 397.914 292.444 398.815 292.015 400.415C292.015 400.415 300.545 400.415 302.618 400.415C304.694 400.415 306.109 399.186 306.767 397.208C307.426 395.23 311.67 377.553 312.094 375.808C312.519 374.064 314.544 373.311 315.582 373.5L304.646 345.688L289.093 349.319Z" fill="#F4AD85"/>
<path fill-rule="evenodd" clip-rule="evenodd" d="M302.205 368.104C303.238 369.686 304.137 371.124 304.794 372.3C306.304 372.396 308.657 372.566 309.068 372.692C309.682 372.879 309.869 374.105 309.541 375.708C309.211 377.31 304.403 393.864 303.978 395.222C303.56 396.555 301.821 397.877 295.557 397.918C295.456 397.921 295.358 397.921 295.267 397.921H295.259C295.145 397.918 295.038 397.915 294.938 397.915C293.57 397.915 292.445 398.816 292.016 400.416C292.016 400.416 300.546 400.416 302.619 400.416C304.695 400.416 306.11 399.188 306.768 397.21C307.427 395.231 311.67 377.554 312.095 375.809C312.52 374.065 314.545 373.312 315.583 373.501L311.624 363.433C310.459 363.413 309.426 363.532 308.738 363.877C306.924 364.783 303.016 365.78 302.205 368.104Z" fill="#EF8C6F"/>
<path fill-rule="evenodd" clip-rule="evenodd" d="M240.355 373.5C240.355 373.5 244.74 375.95 245.119 376.846C245.493 377.742 246.437 381.746 245.401 383.209C244.363 384.671 241.299 385.801 240.593 386.697C239.886 387.593 236.209 403.147 236.209 403.147C236.209 403.147 235.643 405.928 232.439 405.928C229.233 405.928 213.255 405.928 213.255 405.928C213.255 405.928 212.335 405.738 212.359 404.49C212.373 403.802 212.928 402.799 213.426 402.035C214.43 400.502 215.784 400.415 216.79 400.415L226.807 397.749L232.602 383.233L236.328 372.909C236.328 372.909 239.202 371.921 240.355 373.5Z" fill="white"/>
<path fill-rule="evenodd" clip-rule="evenodd" d="M242.816 374.979C243.888 375.667 244.943 376.428 245.119 376.846C245.493 377.742 246.437 381.746 245.401 383.209C244.363 384.671 241.299 385.8 240.593 386.697C239.886 387.593 236.209 403.147 236.209 403.147C236.209 403.147 235.643 405.928 232.439 405.928C229.233 405.928 213.255 405.928 213.255 405.928C213.255 405.928 212.335 405.738 212.359 404.489C212.367 404.092 212.557 403.589 212.81 403.089H228.74C231.289 403.089 232.795 402.285 233.456 400.921C234.114 399.554 239.581 378.815 240.337 377.354C240.7 376.648 241.79 375.734 242.816 374.979Z" fill="#FFFAF9"/>
<path fill-rule="evenodd" clip-rule="evenodd" d="M240.26 349.699C240.26 349.699 228.572 382.88 226.311 390.611C224.048 398.34 221.076 397.915 219.711 397.915C218.344 397.915 217.217 398.816 216.79 400.416C216.79 400.416 225.321 400.416 227.394 400.416C229.467 400.416 230.882 399.188 231.54 397.21C232.202 395.231 236.443 377.554 236.867 375.81C237.291 374.065 239.32 373.312 240.355 373.501L249.404 355.495L240.26 349.699Z" fill="#F4AD85"/>
<path fill-rule="evenodd" clip-rule="evenodd" d="M240.259 349.699C240.259 349.699 239.27 352.515 237.807 356.699C238.622 358.643 239.514 360.853 239.688 361.57C240.017 362.934 229.366 394.28 228.894 395.409C228.423 396.54 227.483 397.913 220.23 397.92H220.214H220.175C220.004 397.92 219.848 397.915 219.711 397.915C218.344 397.915 217.217 398.815 216.79 400.415C216.79 400.415 225.321 400.415 227.394 400.415C229.467 400.415 230.882 399.187 231.54 397.209C232.202 395.23 236.443 377.553 236.867 375.809C237.291 374.065 239.32 373.311 240.355 373.501L249.404 355.494L240.259 349.699Z" fill="#EF8C6F"/>
<path fill-rule="evenodd" clip-rule="evenodd" d="M347.844 242.045L358.889 249.544C358.889 249.544 374.806 267.498 372.734 281.64C370.656 295.778 364.624 302.755 345.958 302.755C327.293 302.755 293.779 302.755 292.555 302.755C291.329 302.755 317.208 362.378 317.961 365.018C318.714 367.658 283.647 378.217 267.997 372.37C267.997 372.37 266.962 371.712 266.774 369.826C266.586 367.939 266.679 365.537 266.679 365.537C266.679 365.537 240.096 357.899 236.231 351.773C236.231 351.773 235.855 350.854 236.253 349.487C236.555 348.458 247.206 312.059 258.327 290.454C271.489 264.884 292.896 267.803 318.451 268.178C318.451 268.178 315.673 259.343 315.393 255.194C315.111 251.046 347.844 242.045 347.844 242.045Z" fill="#0C0E0E"/>
<path fill-rule="evenodd" clip-rule="evenodd" d="M347.844 242.045L358.889 249.544C358.889 249.544 374.807 267.498 372.734 281.64C370.656 295.778 364.624 302.755 345.958 302.755C327.293 302.755 293.779 302.755 292.555 302.755C292.555 302.755 287.612 291.95 286.904 289.878C286.198 287.801 285.727 285.588 286.765 285.964C287.803 286.341 288.838 296.429 309.767 296.429C330.694 296.429 354.073 285.775 352.377 276.725C350.681 267.676 336.915 268.178 334.089 268.178C331.259 268.178 318.453 268.178 318.453 268.178C318.453 268.178 315.675 259.343 315.395 255.194C315.111 251.046 347.844 242.045 347.844 242.045Z" fill="black"/>
<path fill-rule="evenodd" clip-rule="evenodd" d="M266.679 365.537C266.679 365.537 258.088 363.067 249.963 359.811C252.574 357.369 256.834 353.117 257.352 350.915C258.106 347.709 262.819 311.206 263.268 311.087C263.715 310.969 263.787 311.51 263.787 311.51L266.679 365.537Z" fill="black"/>
<path fill-rule="evenodd" clip-rule="evenodd" d="M310.522 185.372L303.548 192.418C303.548 192.418 278.684 229.843 277.079 230.974C275.478 232.104 274.63 232.153 272.555 230.974C270.483 229.795 253.938 207.972 253.182 207.784C252.428 207.596 247.621 210.894 247.338 211.838C247.057 212.781 265.628 241.909 269.397 244.454C273.167 247 280.004 246.622 283.869 243.794C287.733 240.966 304.984 224.752 304.984 224.752C304.984 224.752 317.029 192.913 310.522 185.372Z" fill="white"/>
<path fill-rule="evenodd" clip-rule="evenodd" d="M309.981 185.946C304.368 191.593 303.108 193.158 298.635 199.79C298.831 205.696 295.565 223.263 295.565 225.821C295.565 228.377 284.915 241.375 278.787 242.976C272.659 244.58 265.211 235.718 261.818 230.627C258.425 225.538 251.969 215.733 251.542 214.98C251.204 214.379 249.911 212.942 250.016 209.433C248.709 210.342 247.48 211.373 247.339 211.837C247.058 212.78 265.629 241.908 269.398 244.454C273.168 246.999 280.005 246.621 283.87 243.793C287.734 240.965 304.985 224.751 304.985 224.751C304.985 224.751 316.487 193.487 309.981 185.946Z" fill="#E2ECF7"/>
<path fill-rule="evenodd" clip-rule="evenodd" d="M331.32 179.836C326.875 180.41 322.077 181.312 316.481 182.014C310.381 183.798 308.183 187.705 306.289 192.657C304.725 196.758 300.109 215.595 300.272 217.285C300.202 221.274 302.946 226.962 308.605 233.27C310.965 241.762 314.552 255.799 315.039 258.502C317.296 271.042 362.725 257.636 361.616 251.856C349.911 233.263 353.051 207.742 353.051 207.742L351.205 206.428L350.296 201.773L350.559 188.029L351.17 186.983C348.746 185.36 342.771 181.953 333.156 180.206C332.471 180.083 331.865 179.959 331.32 179.836Z" fill="white"/>
<path fill-rule="evenodd" clip-rule="evenodd" d="M331.319 179.835L330.897 179.891C331.328 180.369 331.993 180.858 332.947 181.353C343.585 186.873 341.99 211.661 336.833 213.381C331.673 215.101 307.429 217.61 304.357 217.63C301.285 217.651 300.417 215.928 300.417 215.928C300.303 216.601 300.25 217.075 300.271 217.284C300.201 221.272 302.946 226.961 308.604 233.268L308.74 233.759C317.38 229.538 335.753 228.192 339.563 228.554C343.812 228.96 347.048 231.488 348.465 241.199C348.952 244.545 347.976 251.927 346.486 260.263C355.121 257.667 362.041 254.165 361.621 251.867C349.912 233.271 353.052 207.742 353.052 207.742L351.206 206.427L350.297 201.773L350.56 188.029L351.171 186.983C348.747 185.359 342.772 181.952 333.157 180.205C332.47 180.082 331.864 179.959 331.319 179.835Z" fill="#F0F5FB"/>
<path fill-rule="evenodd" clip-rule="evenodd" d="M331.319 179.836C328.52 180.197 325.584 180.688 322.396 181.176C321.751 182.972 321.273 184.965 321.004 187.183L321.824 188.465C321.824 188.465 315.897 213.993 315.29 216.116C314.682 218.24 318.528 226.738 321.058 230.177C321.058 230.177 326.108 254.364 329.844 263.538C343.765 262.451 362.317 255.58 361.618 251.859C349.91 233.265 353.05 207.74 353.05 207.74L351.204 206.426L350.295 201.771L350.558 188.028L351.169 186.982C348.745 185.358 342.77 181.951 333.155 180.204C332.47 180.083 331.864 179.959 331.319 179.836Z" fill="#F6F9FC"/>
<path fill-rule="evenodd" clip-rule="evenodd" d="M331.319 179.835L330.897 179.891C331.328 180.369 331.993 180.858 332.947 181.353C343.585 186.873 341.99 211.661 336.833 213.381C333.684 214.43 323.439 215.774 315.228 216.666C315.225 219.428 318.708 226.984 321.059 230.178L321.061 230.202C328.956 228.777 337.158 228.326 339.562 228.554C343.811 228.96 347.047 231.488 348.464 241.199C348.951 244.545 347.975 251.926 346.485 260.261C355.12 257.666 362.04 254.165 361.62 251.866C349.911 233.27 353.052 207.741 353.052 207.741L351.205 206.426L350.296 201.772L350.559 188.028L351.17 186.982C348.746 185.358 342.771 181.951 333.157 180.204C332.47 180.082 331.864 179.959 331.319 179.835Z" fill="#E2ECF7"/>
<path fill-rule="evenodd" clip-rule="evenodd" d="M318.044 374.979C319.114 375.667 320.167 376.428 320.343 376.846C320.72 377.742 321.664 381.746 320.626 383.209C319.59 384.671 316.527 385.8 315.82 386.697C315.111 387.593 311.435 403.147 311.435 403.147C311.435 403.147 310.87 405.928 307.662 405.928C304.46 405.928 288.48 405.928 288.48 405.928C288.48 405.928 287.561 405.738 287.584 404.489C287.59 404.092 287.78 403.589 288.035 403.089H303.966C306.511 403.089 308.019 402.285 308.678 400.921C309.34 399.554 314.806 378.815 315.56 377.354C315.925 376.648 317.013 375.734 318.044 374.979Z" fill="#FFFAF9"/>
<path fill-rule="evenodd" clip-rule="evenodd" d="M330.711 161.876L330.956 166.575C330.956 166.575 331.873 176.164 332.01 177.619C332.099 178.545 333.084 180.011 335.085 180.587H335.081C335.081 180.587 332.479 187.409 320.56 188.631C315.431 187.343 315.223 184.532 315.252 182.42C319.198 180.446 319.73 170.996 316.977 168.103C315.18 166.219 330.711 161.876 330.711 161.876Z" fill="#EB6B5D"/>
<path fill-rule="evenodd" clip-rule="evenodd" d="M309.2 151.336C311.894 151.443 313.995 153.715 313.887 156.412C313.781 159.108 311.508 161.208 308.812 161.101C306.115 160.993 304.014 158.722 304.122 156.024C304.229 153.328 306.501 151.228 309.2 151.336Z" fill="#E8685B"/>
<path fill-rule="evenodd" clip-rule="evenodd" d="M343.379 152.745C343.501 152.769 343.617 152.796 343.733 152.827L343.738 152.828C345.885 153.411 347.427 155.416 347.337 157.736C347.23 160.433 344.955 162.532 342.26 162.426C339.562 162.319 337.462 160.046 337.57 157.351C337.63 155.783 338.424 154.417 339.609 153.57C339.398 155.004 339.525 156.799 341.351 157.085L341.464 154.27C341.51 153.129 342.6 152.667 343.379 152.745Z" fill="#E8685B"/>
<path fill-rule="evenodd" clip-rule="evenodd" d="M325.784 127.263C334.984 127.628 342.21 135.451 341.844 144.649L341.244 159.848C340.878 169.047 333.056 176.273 323.856 175.907C314.659 175.544 307.432 167.72 307.796 158.521L308.4 143.325C308.762 134.126 316.587 126.899 325.784 127.263Z" fill="#F4AD85"/>
<path fill-rule="evenodd" clip-rule="evenodd" d="M325.783 127.263C334.983 127.627 342.209 135.451 341.843 144.649L341.243 159.848C340.877 169.047 333.055 176.272 323.855 175.907C323.516 175.894 323.176 175.869 322.839 175.834C333.627 175.823 335.822 165.792 336.525 159.274C337.228 152.754 334.313 145.82 332.508 143.196C330.7 140.569 326.106 141.819 323.647 144.836C321.193 147.853 316.2 150.332 316.111 150.384C316.023 150.434 313.636 150.385 313.636 150.385L312.096 143.297C312.096 143.297 317.097 133.627 320.413 127.928C322.114 127.428 323.921 127.19 325.783 127.263Z" fill="#ED9072"/>
<path fill-rule="evenodd" clip-rule="evenodd" d="M341.693 151.685L338.717 150.541C338.717 150.541 338.24 156.596 341.351 157.084L341.464 154.269C341.473 154.073 341.51 153.897 341.572 153.742L341.693 151.685Z" fill="black"/>
<path fill-rule="evenodd" clip-rule="evenodd" d="M283.173 214.727L282.976 213.468C282.976 213.468 281.408 212.1 281.187 211.938C280.966 211.776 279.333 209.66 278.98 209.505C278.627 209.349 273.939 207.317 273.703 207.183C273.471 207.047 273.854 208.611 274.199 208.861C274.199 208.861 272.657 208.377 272.236 208.159C271.812 207.94 272.783 209.862 273.184 210.135C273.582 210.407 278.821 212.812 278.821 212.812L283.173 214.727Z" fill="#EF8871"/>
<path fill-rule="evenodd" clip-rule="evenodd" d="M292.112 222.363C292.112 222.363 290.553 221.481 289.728 220.697C288.906 219.912 284.62 214.455 284.022 213.9C283.387 213.312 270.905 210.179 270.31 210.168C269.922 210.16 270.493 212.034 271.793 212.477C273.091 212.919 275.199 213.587 275.689 213.802C276.178 214.016 279.551 215.276 279.918 215.404C280.284 215.533 281.72 217.95 281.922 218.526C282.123 219.101 280.864 219.456 280.273 219.391C279.686 219.327 277.662 217.95 277.003 217.822C276.345 217.695 275.035 217.798 274.677 218.096C274.32 218.393 274.923 219.308 275.147 219.536C275.37 219.765 278.395 220.934 279.645 221.711C280.892 222.489 282.578 223.23 284.605 223.862C286.631 224.494 288.801 225.905 288.801 225.905L292.112 222.363Z" fill="#F4AD85"/>
<path fill-rule="evenodd" clip-rule="evenodd" d="M281.92 218.526C282.122 219.101 280.862 219.456 280.272 219.39C279.685 219.326 277.661 217.95 277.002 217.822C276.344 217.694 275.034 217.798 274.676 218.096C274.318 218.392 274.922 219.307 275.146 219.536C275.369 219.765 278.394 220.933 279.643 221.711C280.891 222.488 282.577 223.23 284.604 223.862C286.63 224.494 288.8 225.904 288.8 225.904L289.514 225.141C288.966 224.69 288.639 224.415 288.6 224.373C288.223 223.967 288.442 223.713 288.242 223.59C288.044 223.468 287.463 223.621 286.969 223.527C286.475 223.432 284.148 222.01 283.62 221.398C283.094 220.791 281.92 218.526 281.92 218.526Z" fill="#ED806A"/>
<path fill-rule="evenodd" clip-rule="evenodd" d="M311.794 151.714C312.615 151.745 313.257 152.443 313.223 153.259L313.145 155.197C313.114 156.017 312.419 156.658 311.6 156.627C310.782 156.594 310.14 155.898 310.171 155.08L310.247 153.141C310.282 152.323 310.978 151.681 311.794 151.714Z" fill="black"/>
<path fill-rule="evenodd" clip-rule="evenodd" d="M328.766 152.386C329.585 152.419 330.228 153.113 330.194 153.932L330.12 155.87C330.086 156.688 329.39 157.33 328.573 157.298C327.754 157.267 327.111 156.571 327.143 155.754L327.222 153.813C327.254 152.995 327.95 152.352 328.766 152.386Z" fill="black"/>
<path fill-rule="evenodd" clip-rule="evenodd" d="M310.594 157.541C311.807 157.59 312.755 158.613 312.704 159.827C312.656 161.041 311.634 161.987 310.42 161.938C309.206 161.89 308.26 160.867 308.307 159.653C308.356 158.44 309.378 157.493 310.594 157.541Z" fill="#E8685B"/>
<path fill-rule="evenodd" clip-rule="evenodd" d="M329.504 158.291C330.717 158.34 331.664 159.363 331.616 160.576C331.566 161.79 330.544 162.735 329.33 162.687C328.115 162.64 327.172 161.617 327.22 160.402C327.267 159.189 328.289 158.243 329.504 158.291Z" fill="#E8685B"/>
<path fill-rule="evenodd" clip-rule="evenodd" d="M324.216 162.069C324.168 164.46 322.193 166.361 319.803 166.315C317.413 166.269 315.512 164.293 315.558 161.903H315.567C315.576 161.493 315.917 161.162 316.329 161.17L323.475 161.308C323.885 161.315 324.216 161.659 324.207 162.07H324.216V162.069Z" fill="black"/>
<path fill-rule="evenodd" clip-rule="evenodd" d="M322.539 165.409C321.785 165.993 320.833 166.334 319.804 166.315C318.963 166.298 318.182 166.044 317.529 165.617C317.877 164.735 318.861 164.089 320.035 164.067C321.151 164.048 322.122 164.603 322.539 165.409Z" fill="#D64341"/>
<path fill-rule="evenodd" clip-rule="evenodd" d="M316.23 161.175L322.948 161.304C323.041 162.05 322.683 162.794 322.181 162.947C321.568 163.133 316.709 162.914 316.372 162.524C316.21 162.337 316.198 161.74 316.23 161.175Z" fill="white"/>
<path fill-rule="evenodd" clip-rule="evenodd" d="M309.508 149.18C309.279 149.278 309.013 149.173 308.915 148.944C308.816 148.715 308.923 148.451 309.152 148.352C309.16 148.35 311.916 147.088 314.227 148.666C314.435 148.806 314.487 149.087 314.345 149.293C314.206 149.499 313.926 149.551 313.718 149.411C311.829 148.121 309.513 149.178 309.508 149.18Z" fill="#2E130F"/>
<path fill-rule="evenodd" clip-rule="evenodd" d="M330.954 150.439C331.168 150.563 331.445 150.487 331.569 150.273C331.693 150.058 331.619 149.782 331.402 149.657C331.397 149.653 328.805 148.079 326.326 149.375C326.105 149.491 326.017 149.763 326.133 149.985C326.249 150.205 326.523 150.291 326.744 150.176C328.774 149.114 330.948 150.435 330.954 150.439Z" fill="black"/>
<path fill-rule="evenodd" clip-rule="evenodd" d="M328.837 132.044L329.917 134.662C329.917 134.662 333.545 133.379 334.322 138.304C335.052 142.909 336.319 154.789 345.439 153.549C345.954 151.109 346.828 148.626 347.529 146.015C347.325 141.036 346.467 134.794 343.632 132.039C338.555 127.11 328.837 132.044 328.837 132.044Z" fill="#0C0E0E"/>
<path fill-rule="evenodd" clip-rule="evenodd" d="M335.568 134.472L335.476 134.453C335.36 134.534 335.21 134.559 335.068 134.51C331.066 133.132 328.364 136.804 325.189 141.12C321.986 145.478 318.318 150.459 312.32 151.893C311.807 152.151 311.277 152.375 310.724 152.555C300.612 155.834 293.06 142.694 300.783 131.441C309.066 119.372 331.251 113.405 337.039 128.965C337.039 128.965 338.198 132.317 335.568 134.472ZM328.932 135.226C323.668 137.932 320.404 145.306 315.494 149.684C319.308 147.588 322.025 143.9 324.461 140.584C325.987 138.513 327.41 136.58 328.932 135.226Z" fill="#252626"/>
<path fill-rule="evenodd" clip-rule="evenodd" d="M297.616 140.743C297.626 140.336 297.652 139.925 297.698 139.512C299.437 140.746 302.595 142.091 307.211 140.675C312.528 139.046 317.58 128.466 317.417 120.32C321.108 119.417 324.821 119.334 328.082 120.318C326.119 124.852 321.614 133.324 313.16 140.224C306.67 145.519 301.257 143.648 297.616 140.743Z" fill="#424141"/>
<path fill-rule="evenodd" clip-rule="evenodd" d="M335.568 134.472L335.476 134.453C335.36 134.534 335.21 134.559 335.068 134.51C331.066 133.132 328.364 136.804 325.189 141.12C321.986 145.478 318.318 150.459 312.32 151.893C311.807 152.151 311.277 152.375 310.724 152.555C303.697 154.833 297.909 149.182 297.62 141.749C297.678 142.106 298.726 148.119 303.713 149.11C308.856 150.132 316.393 144.414 320.271 138.32C324.149 132.227 329.007 130.575 332.013 130.8C335.014 131.022 337.005 129.14 335.22 125.452C335.933 126.474 336.546 127.639 337.04 128.965C337.04 128.965 338.198 132.317 335.568 134.472ZM328.932 135.226C323.668 137.932 320.404 145.306 315.494 149.684C319.308 147.588 322.025 143.899 324.461 140.584C325.987 138.513 327.41 136.58 328.932 135.226Z" fill="#0C0E0E"/>
<path fill-rule="evenodd" clip-rule="evenodd" d="M335.2 142.698C336.272 147.908 338.654 154.403 345.434 153.577C345.666 152.475 345.972 151.364 346.302 150.236C338.21 152.177 335.223 142.772 335.2 142.698Z" fill="black"/>
<path fill-rule="evenodd" clip-rule="evenodd" d="M342.423 190.788C332.404 210.344 324.964 231.977 323.832 233.303C322.513 234.847 321.67 235.113 319.288 234.46C316.906 233.808 290.422 219.195 289.615 219.199C288.809 219.201 285.426 224.12 285.384 225.139C285.342 226.158 314.785 247.663 319.221 249.255C323.66 250.846 330.426 248.719 333.584 244.891C335.87 242.117 344.738 227.986 349.443 220.414C354.441 212.424 355.176 198.336 355.203 197.848C355.018 192.452 353.698 187.518 349.752 186.268C346.994 185.939 344.222 187.273 342.423 190.788Z" fill="white"/>
<path fill-rule="evenodd" clip-rule="evenodd" d="M287.805 220.977C286.649 222.494 285.418 224.323 285.384 225.139C285.35 225.954 314.785 247.664 319.22 249.255C323.659 250.846 330.426 248.719 333.584 244.891C335.87 242.117 344.738 227.986 349.442 220.414C354.424 212.452 355.173 198.434 355.203 197.856C355.108 195.11 354.723 192.486 353.846 190.403C354.618 194.644 354.69 200.587 353.464 203.542C351.911 207.273 337.203 234.22 333.955 239.684C330.712 245.147 323.665 248.151 319.676 246.343C315.691 244.537 290.578 227.409 289.68 226.316C288.783 225.224 288.246 222.796 287.805 220.977Z" fill="#E2ECF7"/>
<path fill-rule="evenodd" clip-rule="evenodd" d="M334.296 180.489L321.806 188.478L326.442 194.035C326.442 194.035 326.872 194.541 327.63 194.136C328.389 193.73 336.061 180.807 336.061 180.807L334.929 179.01L333.344 179.713L334.296 180.489Z" fill="white"/>
<path fill-rule="evenodd" clip-rule="evenodd" d="M315.768 182.364C315.768 182.364 317.169 186.174 319.978 188.472L316.161 193.3C316.161 193.3 315.452 193.704 315.225 193.022C314.996 192.339 314.108 182.899 314.108 182.899L315.246 181.221L316.332 181.621L315.768 182.364Z" fill="white"/>
<path fill-rule="evenodd" clip-rule="evenodd" d="M223.561 251.109H301.677C303.041 251.109 304.157 249.994 304.157 248.629V248.628C304.157 247.263 303.041 246.147 301.677 246.147H223.561C222.197 246.147 221.079 247.263 221.079 248.628V248.629C221.079 249.994 222.197 251.109 223.561 251.109Z" fill="#222221"/>
<path fill-rule="evenodd" clip-rule="evenodd" d="M223.561 251.109H301.677C302.558 251.109 303.338 250.64 303.778 249.94C303.338 249.24 302.558 248.771 301.677 248.771H223.561C222.676 248.771 221.899 249.24 221.459 249.94C221.899 250.64 222.676 251.109 223.561 251.109Z" fill="#0C0E0E"/>
<path fill-rule="evenodd" clip-rule="evenodd" d="M221.633 246.147H284.113C285.896 246.147 287.179 244.687 286.958 242.901L281.979 202.433C281.758 200.647 280.117 199.187 278.332 199.187H215.853C214.068 199.187 212.79 200.646 213.009 202.433L217.988 242.901C218.208 244.687 219.846 246.147 221.633 246.147Z" fill="#0C0E0E"/>
<path fill-rule="evenodd" clip-rule="evenodd" d="M221.633 246.147H282.269C284.054 246.147 285.335 244.687 285.114 242.901L280.135 202.433C279.914 200.647 278.275 199.187 276.489 199.187H215.853C214.068 199.187 212.79 200.646 213.009 202.433L217.988 242.901C218.208 244.687 219.846 246.147 221.633 246.147Z" fill="#393839"/>
<path fill-rule="evenodd" clip-rule="evenodd" d="M224.936 246.147H231.178L280.426 204.805L280.134 202.433C280.047 201.723 279.733 201.066 279.281 200.529L224.936 246.147ZM272.193 199.187L218.469 244.284C218.218 243.863 218.046 243.395 217.987 242.901L217.212 236.608L261.792 199.187H272.193Z" fill="#484949"/>
<path fill-rule="evenodd" clip-rule="evenodd" d="M287.479 251.109H301.678C303.042 251.109 304.158 249.994 304.158 248.629V248.628C304.158 247.263 303.042 246.147 301.678 246.147H287.479C286.115 246.147 285 247.263 285 248.628V248.629C284.999 249.994 286.114 251.109 287.479 251.109Z" fill="#393839"/>
<path fill-rule="evenodd" clip-rule="evenodd" d="M222.32 247.387H287.32C288.003 247.387 288.562 246.829 288.562 246.146C288.562 245.464 288.004 244.905 287.32 244.905H222.32C221.638 244.905 221.079 245.464 221.079 246.146C221.079 246.829 221.638 247.387 222.32 247.387Z" fill="black"/>
<path fill-rule="evenodd" clip-rule="evenodd" d="M247.782 216.429C251.225 216.429 254.305 219.222 254.658 222.667C255.012 226.112 252.506 228.904 249.06 228.904C245.617 228.904 242.537 226.112 242.184 222.667C241.83 219.221 244.336 216.429 247.782 216.429Z" fill="#303030"/>
<path fill-rule="evenodd" clip-rule="evenodd" d="M304.12 251.199C304.12 251.199 305.443 248.134 307.988 247.097C310.533 246.059 319.306 244.455 321.473 244.031C323.642 243.607 329.159 245.022 329.159 251.199L327.934 252.425L304.12 251.199Z" fill="black"/>
<path fill-rule="evenodd" clip-rule="evenodd" d="M115.428 235.2L115.292 234.101L113.529 232.02C113.529 232.02 108.516 240.672 88.0986 240.672L90.1585 243.21L111.216 244.355L106.366 239.959L115.428 235.2Z" fill="white"/>
<path fill-rule="evenodd" clip-rule="evenodd" d="M96.876 241.121C96.876 241.121 113.262 238.649 115.689 233.613L117.633 235.031C117.633 235.031 116.239 239.498 109.875 241.121C103.513 242.744 102.598 242.744 102.598 242.744L96.876 241.121Z" fill="#E1E7EE"/>
<path fill-rule="evenodd" clip-rule="evenodd" d="M99.1313 240.672H116.712C117.214 240.672 117.626 241.085 117.626 241.587V250.193C117.626 250.697 117.215 251.108 116.712 251.108H99.1313C98.628 251.108 98.2168 250.697 98.2168 250.193V241.587C98.2168 241.084 98.628 240.672 99.1313 240.672Z" fill="#E1E7EE"/>
<path fill-rule="evenodd" clip-rule="evenodd" d="M76.7456 240.672H99.4521C99.7557 240.672 100 240.921 100 241.222V250.561C100 250.863 99.7548 251.109 99.4521 251.109H76.7456C76.4447 251.109 76.1973 250.862 76.1973 250.561V241.222C76.1973 240.92 76.4457 240.672 76.7456 240.672Z" fill="white"/>
<path fill-rule="evenodd" clip-rule="evenodd" d="M76.1973 249.586V249.037H90.7057C90.8556 249.037 90.9798 249.159 90.9798 249.311C90.9798 249.461 90.8556 249.586 90.7057 249.586H76.1973Z" fill="#E1E7EE"/>
<path fill-rule="evenodd" clip-rule="evenodd" d="M100 246.244V246.793H85.7605C85.6105 246.793 85.4863 246.67 85.4863 246.518C85.4863 246.366 85.6105 246.244 85.7605 246.244H100Z" fill="#E1E7EE"/>
<path fill-rule="evenodd" clip-rule="evenodd" d="M76.1973 243.681V243.131H91.3009C91.4518 243.131 91.5751 243.254 91.5751 243.405C91.5751 243.556 91.4518 243.68 91.3009 243.68L76.1973 243.681Z" fill="#E1E7EE"/>
<path fill-rule="evenodd" clip-rule="evenodd" d="M215.808 148.304C215.808 147.973 216.074 147.707 216.403 147.707C216.733 147.707 217.001 147.973 217.001 148.304V149.506H218.206C218.535 149.506 218.801 149.774 218.801 150.102C218.801 150.433 218.535 150.7 218.206 150.7H217.001V151.903C217.001 152.233 216.733 152.499 216.403 152.499C216.074 152.499 215.808 152.233 215.808 151.903V150.7H214.604C214.275 150.7 214.006 150.432 214.006 150.102C214.006 149.774 214.275 149.506 214.604 149.506H215.808V148.304Z" fill="white"/>
<path fill-rule="evenodd" clip-rule="evenodd" d="M105.135 189.661C105.135 189.331 105.403 189.064 105.733 189.064C106.062 189.064 106.328 189.332 106.328 189.661V190.865H107.532C107.861 190.865 108.13 191.133 108.13 191.461C108.13 191.79 107.861 192.058 107.532 192.058H106.328V193.262C106.328 193.592 106.062 193.859 105.733 193.859C105.403 193.859 105.135 193.591 105.135 193.262V192.058H103.931C103.602 192.058 103.336 191.79 103.336 191.461C103.336 191.133 103.602 190.865 103.931 190.865H105.135V189.661Z" fill="white"/>
<path fill-rule="evenodd" clip-rule="evenodd" d="M165.057 88.7705C165.057 88.4411 165.324 88.1743 165.653 88.1743C165.982 88.1743 166.251 88.4411 166.251 88.7705V89.9748H167.456C167.785 89.9748 168.051 90.2425 168.051 90.5718C168.051 90.9003 167.784 91.168 167.456 91.168H166.251V92.3723C166.251 92.7016 165.982 92.9694 165.653 92.9694C165.324 92.9694 165.057 92.7016 165.057 92.3723V91.168H163.853C163.524 91.168 163.255 90.9003 163.255 90.5718C163.255 90.2425 163.524 89.9748 163.853 89.9748H165.057V88.7705Z" fill="white"/>
<path fill-rule="evenodd" clip-rule="evenodd" d="M198.641 213.406C198.641 213.076 198.91 212.81 199.239 212.81C199.569 212.81 199.837 213.076 199.837 213.406V214.61H201.042C201.371 214.61 201.636 214.877 201.636 215.206C201.636 215.536 201.371 215.802 201.042 215.802H199.837V217.007C199.837 217.336 199.569 217.604 199.239 217.604C198.91 217.604 198.641 217.336 198.641 217.007V215.802H197.44C197.11 215.802 196.842 215.536 196.842 215.206C196.842 214.877 197.11 214.61 197.44 214.61H198.641V213.406Z" fill="white"/>
<path fill-rule="evenodd" clip-rule="evenodd" d="M238.756 262.955C239.31 262.955 239.809 263.182 240.172 263.543C240.535 263.905 240.759 264.405 240.759 264.957C240.759 265.511 240.535 266.009 240.172 266.373C239.809 266.734 239.309 266.958 238.756 266.958C238.205 266.958 237.705 266.734 237.342 266.373C236.981 266.009 236.757 265.51 236.757 264.957C236.757 264.404 236.981 263.904 237.342 263.543C237.705 263.182 238.205 262.955 238.756 262.955ZM239.631 264.084C239.407 263.859 239.098 263.722 238.756 263.722C238.417 263.722 238.106 263.859 237.884 264.084C237.661 264.307 237.52 264.615 237.52 264.957C237.52 265.297 237.66 265.608 237.884 265.832C238.106 266.054 238.417 266.193 238.756 266.193C239.098 266.193 239.407 266.055 239.631 265.832C239.854 265.608 239.994 265.297 239.994 264.957C239.994 264.615 239.854 264.307 239.631 264.084Z" fill="white"/>
<path fill-rule="evenodd" clip-rule="evenodd" d="M239.566 153.698C240.117 153.698 240.618 153.924 240.982 154.285C241.343 154.647 241.566 155.148 241.566 155.7C241.566 156.253 241.343 156.753 240.982 157.115C240.617 157.478 240.117 157.702 239.566 157.702C239.013 157.702 238.513 157.478 238.152 157.115C237.789 156.753 237.564 156.253 237.564 155.7C237.564 155.148 237.789 154.648 238.152 154.285C238.514 153.924 239.013 153.698 239.566 153.698ZM240.439 154.826C240.219 154.602 239.908 154.464 239.567 154.464C239.225 154.464 238.918 154.602 238.694 154.826C238.47 155.049 238.333 155.358 238.333 155.699C238.333 156.041 238.47 156.351 238.694 156.574C238.918 156.797 239.225 156.937 239.567 156.937C239.908 156.937 240.219 156.798 240.439 156.574C240.664 156.351 240.804 156.041 240.804 155.699C240.803 155.358 240.664 155.049 240.439 154.826Z" fill="white"/>
<path fill-rule="evenodd" clip-rule="evenodd" d="M99.5557 121.327C100.109 121.327 100.61 121.551 100.971 121.913C101.331 122.274 101.556 122.776 101.556 123.328C101.556 123.88 101.331 124.38 100.971 124.743C100.609 125.105 100.109 125.329 99.5557 125.329C99.0019 125.329 98.5014 125.105 98.1408 124.743C97.7801 124.38 97.5557 123.88 97.5557 123.328C97.5557 122.776 97.7801 122.275 98.1408 121.913C98.5014 121.55 99.0019 121.327 99.5557 121.327ZM100.431 122.454C100.207 122.23 99.8961 122.091 99.5557 122.091C99.2163 122.091 98.9044 122.23 98.6808 122.454C98.4573 122.676 98.3202 122.986 98.3202 123.327C98.3202 123.668 98.4573 123.977 98.6808 124.202C98.9044 124.424 99.2163 124.563 99.5557 124.563C99.8961 124.563 100.206 124.424 100.431 124.202C100.655 123.977 100.791 123.668 100.791 123.327C100.791 122.986 100.654 122.676 100.431 122.454Z" fill="white"/>
<path fill-rule="evenodd" clip-rule="evenodd" d="M111.696 244.343C112.249 244.343 112.75 244.566 113.11 244.929C113.472 245.289 113.696 245.79 113.696 246.343C113.696 246.897 113.471 247.397 113.11 247.757C112.75 248.118 112.248 248.346 111.696 248.346C111.143 248.346 110.642 248.119 110.281 247.757C109.921 247.396 109.696 246.896 109.696 246.343C109.696 245.789 109.921 245.289 110.281 244.929C110.642 244.566 111.143 244.343 111.696 244.343ZM112.57 245.467C112.347 245.246 112.036 245.106 111.696 245.106C111.356 245.106 111.045 245.245 110.821 245.467C110.597 245.691 110.461 246.002 110.461 246.342C110.461 246.684 110.597 246.993 110.821 247.217C111.045 247.44 111.357 247.577 111.696 247.577C112.036 247.577 112.347 247.441 112.57 247.217C112.795 246.993 112.931 246.684 112.931 246.342C112.931 246.002 112.795 245.691 112.57 245.467Z" fill="white"/>
<path fill-rule="evenodd" clip-rule="evenodd" d="M123.834 309.087C124.388 309.087 124.888 309.312 125.249 309.673C125.611 310.034 125.834 310.535 125.834 311.087C125.834 311.639 125.611 312.142 125.249 312.502C124.888 312.863 124.388 313.089 123.834 313.089C123.281 313.089 122.781 312.863 122.419 312.502C122.058 312.141 121.834 311.639 121.834 311.087C121.834 310.535 122.058 310.033 122.419 309.673C122.781 309.312 123.281 309.087 123.834 309.087ZM124.709 310.213C124.485 309.991 124.174 309.851 123.834 309.851C123.495 309.851 123.184 309.99 122.959 310.213C122.735 310.436 122.599 310.747 122.599 311.087C122.599 311.43 122.735 311.737 122.959 311.961C123.184 312.185 123.494 312.322 123.834 312.322C124.174 312.322 124.485 312.186 124.709 311.961C124.933 311.737 125.07 311.43 125.07 311.087C125.07 310.747 124.933 310.436 124.709 310.213Z" fill="white"/>
<path fill-rule="evenodd" clip-rule="evenodd" d="M288.88 105.362C288.88 105.032 289.148 104.765 289.478 104.765C289.807 104.765 290.074 105.032 290.074 105.362V106.566H291.278C291.609 106.566 291.875 106.833 291.875 107.162C291.875 107.493 291.609 107.759 291.278 107.759H290.074V108.964C290.074 109.293 289.808 109.561 289.478 109.561C289.147 109.561 288.88 109.293 288.88 108.964V107.759H287.678C287.347 107.759 287.08 107.493 287.08 107.162C287.08 106.833 287.346 106.566 287.678 106.566H288.88V105.362Z" fill="white"/>
<path fill-rule="evenodd" clip-rule="evenodd" d="M356.459 150.279C356.459 149.949 356.725 149.683 357.055 149.683C357.386 149.683 357.653 149.95 357.653 150.279V151.483H358.857C359.185 151.483 359.452 151.749 359.452 152.081C359.452 152.41 359.186 152.677 358.857 152.677H357.653V153.88C357.653 154.21 357.387 154.478 357.055 154.478C356.725 154.478 356.459 154.21 356.459 153.88V152.677H355.255C354.926 152.677 354.657 152.409 354.657 152.081C354.657 151.75 354.926 151.483 355.255 151.483H356.459V150.279Z" fill="white"/>
<path fill-rule="evenodd" clip-rule="evenodd" d="M273.313 85.8018C273.866 85.8018 274.367 86.0272 274.727 86.3878C275.091 86.7503 275.315 87.2508 275.315 87.8028C275.315 88.3566 275.092 88.8571 274.727 89.2177C274.366 89.5802 273.866 89.8038 273.313 89.8038C272.762 89.8038 272.261 89.5793 271.899 89.2177C271.537 88.8571 271.312 88.3566 271.312 87.8028C271.312 87.2508 271.536 86.7503 271.899 86.3878C272.261 86.0272 272.762 85.8018 273.313 85.8018ZM274.188 86.9297C273.964 86.7061 273.655 86.5672 273.313 86.5672C272.973 86.5672 272.662 86.7061 272.44 86.9297C272.217 87.1523 272.077 87.4614 272.077 87.8028C272.077 88.1441 272.216 88.4532 272.44 88.6777C272.662 88.9003 272.973 89.0402 273.313 89.0402C273.655 89.0402 273.964 88.9003 274.188 88.6777C274.411 88.4541 274.552 88.1441 274.552 87.8028C274.552 87.4614 274.411 87.1523 274.188 86.9297Z" fill="white"/>
<path fill-rule="evenodd" clip-rule="evenodd" d="M291.899 162.891C292.45 162.891 292.95 163.114 293.311 163.477C293.675 163.838 293.899 164.34 293.899 164.892C293.899 165.444 293.675 165.944 293.311 166.306C292.949 166.667 292.449 166.893 291.899 166.893C291.345 166.893 290.845 166.667 290.484 166.306C290.12 165.943 289.896 165.443 289.896 164.892C289.896 164.34 290.12 163.838 290.484 163.477C290.846 163.114 291.346 162.891 291.899 162.891ZM292.771 164.017C292.547 163.794 292.239 163.654 291.899 163.654C291.556 163.654 291.248 163.793 291.024 164.017C290.8 164.241 290.661 164.55 290.661 164.892C290.661 165.233 290.8 165.542 291.024 165.765C291.248 165.988 291.556 166.126 291.899 166.126C292.239 166.126 292.547 165.988 292.771 165.765C292.995 165.542 293.135 165.232 293.135 164.892C293.135 164.55 292.996 164.241 292.771 164.017Z" fill="white"/>
<path fill-rule="evenodd" clip-rule="evenodd" d="M165.359 403.091V299.778C165.359 299.145 164.84 298.626 164.208 298.626H163.36C162.728 298.626 162.209 299.145 162.209 299.778V403.091C162.209 403.725 162.728 404.24 163.36 404.24H164.208C164.84 404.24 165.359 403.724 165.359 403.091Z" fill="black"/>
<path fill-rule="evenodd" clip-rule="evenodd" d="M149.972 401.7V290.581C149.972 289.902 150.488 289.342 151.124 289.342H151.972C152.605 289.342 153.121 289.901 153.121 290.581V401.7C153.121 402.38 152.605 402.939 151.972 402.939H151.124C150.488 402.939 149.972 402.38 149.972 401.7Z" fill="black"/>
<path fill-rule="evenodd" clip-rule="evenodd" d="M161.998 307.921H165.17C167.539 307.921 169.475 309.857 169.475 312.226V316.396C169.475 318.764 167.539 320.701 165.17 320.701H161.998C159.63 320.701 157.693 318.765 157.693 316.396V312.226C157.693 309.857 159.63 307.921 161.998 307.921Z" fill="#252525"/>
<path fill-rule="evenodd" clip-rule="evenodd" d="M160.97 396.638H166.196C167.464 396.638 168.499 397.673 168.499 398.94V400.637C168.499 401.904 167.463 402.94 166.196 402.94H160.97C159.702 402.94 158.667 401.904 158.667 400.637V398.94C158.667 397.673 159.703 396.638 160.97 396.638Z" fill="#252525"/>
<path fill-rule="evenodd" clip-rule="evenodd" d="M149.713 399.788H177.457C179.398 399.788 180.99 401.379 180.99 403.323V405.93C180.99 407.873 179.398 409.462 177.457 409.462H149.713C147.769 409.462 146.178 407.873 146.178 405.93V403.323C146.178 401.379 147.769 399.788 149.713 399.788Z" fill="black"/>
<path fill-rule="evenodd" clip-rule="evenodd" d="M141.48 310.06C141.48 308.39 142.848 307.02 144.521 307.02H182.647C184.319 307.02 185.687 308.389 185.687 310.06C185.687 311.732 184.32 313.1 182.647 313.1H144.521C142.848 313.1 141.48 311.733 141.48 310.06Z" fill="#252525"/>
<path fill-rule="evenodd" clip-rule="evenodd" d="M133.312 305.415C133.312 302.604 135.609 300.307 138.417 300.307H188.694C191.502 300.307 193.802 302.604 193.802 305.415C193.802 308.224 191.502 310.521 188.694 310.521H138.417C135.609 310.52 133.312 308.223 133.312 305.415Z" fill="black"/>
<path fill-rule="evenodd" clip-rule="evenodd" d="M206.629 305.516H126.812C123.498 305.516 120.787 302.808 120.787 299.493C120.787 296.178 123.498 293.471 126.812 293.471H206.629C209.943 293.471 212.654 296.178 212.654 299.493C212.654 302.808 209.942 305.516 206.629 305.516Z" fill="#D84F50"/>
<path fill-rule="evenodd" clip-rule="evenodd" d="M206.629 305.516H177.473C174.16 305.516 171.451 302.808 171.451 299.493C171.451 296.178 174.16 293.471 177.473 293.471H206.629C209.944 293.471 212.654 296.178 212.654 299.493C212.654 302.808 209.94 305.516 206.629 305.516Z" fill="#A62A34"/>
<path fill-rule="evenodd" clip-rule="evenodd" d="M178.118 227.848C178.368 228.243 180.132 228.344 180.607 228.154C181.084 227.963 196.258 193.33 196.429 193.09C196.601 192.851 196.978 192.909 196.978 192.909C196.978 192.909 200.218 196.679 202.649 196.951C202.649 196.951 202.931 197.543 202.821 197.711C202.709 197.881 194.419 231.882 187.53 242.038C184.229 246.903 177.475 248.768 173.47 244.667C166.591 237.622 158.865 223.8 154.278 211.072C152.468 206.043 151.275 192.961 157.75 187.368C159.467 185.885 162.128 189.84 163.25 192.429C164.377 195.015 178.118 227.848 178.118 227.848Z" fill="white"/>
<path fill-rule="evenodd" clip-rule="evenodd" d="M201.153 196.439C201.662 196.709 202.171 196.898 202.65 196.951C202.65 196.951 202.932 197.542 202.821 197.711C202.71 197.88 194.42 231.881 187.531 242.037C184.23 246.902 177.475 248.768 173.471 244.667C166.592 237.621 158.866 223.799 154.279 211.072C153.762 209.635 153.293 207.539 153.043 205.15C153.83 203.615 154.742 202.59 155.946 202.349C158.015 201.935 157.144 194.481 156.757 188.351C157.065 188.003 157.397 187.674 157.751 187.367C159.468 185.884 162.129 189.839 163.251 192.428C163.868 193.845 168.275 204.349 172.132 213.554C171.086 218.964 169.769 226.048 169.601 228.239C169.316 231.937 174.864 241.326 176.429 242.464C177.994 243.602 181.55 245.594 184.965 240.472C188.379 235.351 196.344 211.454 196.628 208.751C196.912 206.047 195.029 196.216 195.029 196.216C195.029 196.216 197.971 196.287 201.153 196.439Z" fill="#E2ECF7"/>
<path fill-rule="evenodd" clip-rule="evenodd" d="M188.625 384.589C188.625 384.589 215.896 302.126 217.694 292.828C219.419 283.902 225.591 271.08 169.741 262.25C167.388 261.876 165.765 259.461 163.188 259.104C125.921 265.517 108.931 281.362 160.736 286.323C202.658 290.338 190.421 304.617 190.421 304.617C190.421 304.617 181.446 380.289 180.044 384.275C178.643 388.26 183.941 390.411 188.625 384.589Z" fill="black"/>
<path fill-rule="evenodd" clip-rule="evenodd" d="M161.281 254.585C163.205 255.448 166.514 262.897 168.919 263.786C178.406 267.292 190.516 271 196.252 274.885C202.375 279.033 204.898 285.095 206.766 289.926C209.219 296.271 238.011 362.554 239.689 365.336C241.364 368.118 238.796 371.685 236.794 372.7C234.794 373.715 232.059 369.984 232.059 369.984C232.059 369.984 193.291 308.758 182.769 293.431L145.541 293.483C145.541 293.483 131.123 291.168 123.285 281.006C114.85 270.065 121.809 243.388 125.524 243.031C132.572 242.357 146.729 238.932 158.029 244.459C164.877 247.811 158.167 254.613 161.281 254.585Z" fill="#0C0E0E"/>
<path fill-rule="evenodd" clip-rule="evenodd" d="M161.281 254.585C163.205 255.449 166.514 262.897 168.919 263.786C169.688 264.07 170.474 264.356 171.271 264.642C171.271 264.642 155.609 259.451 148.649 267.187C141.686 274.919 142.461 286.366 164.579 287.14C186.701 287.915 182.428 287.915 185.587 287.14C188.749 286.366 212.545 334.318 218.757 341.126C221.152 343.751 224.84 342.648 228.468 340.304C234.224 353.439 238.521 363.4 239.687 365.336C240.853 367.272 238.31 371.086 236.308 372.102C234.305 373.113 231.574 369.383 231.574 369.383C231.574 369.383 193.29 308.758 182.768 293.43L145.54 293.483C145.54 293.483 131.122 291.164 123.284 281.006C114.849 270.064 121.808 243.386 125.523 243.031C132.571 242.356 146.728 238.931 158.028 244.459C164.877 247.811 158.167 254.614 161.281 254.585Z" fill="black"/>
<path fill-rule="evenodd" clip-rule="evenodd" d="M238.335 362.526L230.102 367.052C229.812 367.492 229.976 367.8 230.476 368.635L232.41 371.868C232.41 371.868 232.324 373.976 233.036 375.327C233.746 376.68 235.94 380.651 236.866 381.363C237.791 382.075 242.628 383.355 243.694 383.214C244.761 383.072 253.513 378.789 253.913 377.673C254.314 376.556 253.202 373.334 252.278 372.481C251.353 371.626 245.239 370.007 243.981 369.203C242.725 368.396 239.576 363.422 239.576 363.422C239.576 363.422 239.117 362.558 238.335 362.526Z" fill="white"/>
<path fill-rule="evenodd" clip-rule="evenodd" d="M233.211 365.345L230.102 367.051C229.812 367.491 229.976 367.799 230.476 368.635L232.41 371.868C232.41 371.868 232.324 373.975 233.036 375.327C233.746 376.679 235.94 380.651 236.866 381.363C237.791 382.074 242.628 383.355 243.694 383.213C244.761 383.071 253.513 378.789 253.913 377.673C254.125 377.082 253.916 375.907 253.534 374.804C250.981 376.898 243.984 379.676 243.349 379.827C242.601 380.004 238.973 379.364 238.76 379.045C238.548 378.724 235.81 374.137 235.397 372.27C234.985 370.403 235.349 370.761 235.17 370.476C234.994 370.191 233.855 368.306 233.286 367.061C233.024 366.488 233.076 365.859 233.211 365.345Z" fill="#F4EFEF"/>
<path fill-rule="evenodd" clip-rule="evenodd" d="M188.865 383.868C185.738 384.671 183.469 384.6 180.308 383.163L179.562 383.48C179.072 383.755 179.225 384.134 178.972 385.071L177.568 390.324C177.568 390.324 176.293 392.195 176.116 393.722C175.94 395.245 175.505 399.774 175.874 400.811C176.24 401.846 179.556 405.058 180.532 405.382C181.504 405.707 191.041 406.353 192.013 405.512C192.988 404.672 193.896 401.283 193.609 400.117C193.325 398.952 190.195 393.525 189.605 392.264C189.015 391.001 189.392 385.203 189.392 385.203C189.392 385.203 189.502 384.229 188.865 383.868Z" fill="white"/>
<path fill-rule="evenodd" clip-rule="evenodd" d="M184.518 384.35C183.19 384.242 181.857 383.869 180.308 383.164L179.562 383.481C179.072 383.756 179.225 384.135 178.972 385.072L177.568 390.325C177.568 390.325 176.293 392.196 176.116 393.723C175.94 395.245 175.505 399.775 175.874 400.812C176.243 401.847 179.556 405.059 180.532 405.383C181.504 405.708 191.041 406.354 192.013 405.513C192.587 405.018 193.14 403.632 193.438 402.339C191.779 402.689 182.273 403.119 181.575 402.729C180.83 402.312 178.339 400.524 178.198 399.456C178.056 398.39 179.265 392.665 179.513 392.025C179.762 391.385 180.474 390.639 180.793 390.07C181.115 389.501 182.911 385.161 183.087 384.84C183.267 384.521 184.518 384.35 184.518 384.35Z" fill="#F4EFEF"/>
<path fill-rule="evenodd" clip-rule="evenodd" d="M161.809 189.583C164.243 196.27 168.077 209.014 168.331 212.22C168.663 216.404 166.748 222.92 165.312 226.773C163.876 230.626 164.126 242.621 164.59 246.636C165.054 250.649 164.906 254.722 163.212 257.259C163.212 257.259 148.433 265.611 120.76 255.49C120.76 255.49 118.507 252.461 119.215 247.681C119.922 242.901 123.776 237.73 122.074 225.625C121.555 221.934 115.192 188.23 116.112 187.43C119.972 184.074 125.804 181.765 132.119 180.742C137.937 179.799 144.222 180.006 149.127 180.867C149.414 180.917 158.356 184.867 159.091 185.49C160.266 186.485 161.715 189.644 161.715 189.644L161.809 189.583Z" fill="#F0F5FA"/>
<path fill-rule="evenodd" clip-rule="evenodd" d="M167.693 218.686C167.064 217.968 166.582 217.484 166.413 217.457C165.749 217.35 140.914 222.543 139.207 223.111C137.779 223.588 136.028 249.669 137.382 259.811C132.499 259.095 126.955 257.758 120.761 255.492C120.761 255.492 118.508 252.463 119.216 247.683C119.923 242.902 123.777 237.732 122.075 225.627C121.556 221.936 115.193 188.231 116.113 187.432C119.899 184.137 125.589 181.852 131.771 180.801L132.121 180.743L132.192 180.731C133.678 180.513 135.559 181.152 137.047 181.07L137.19 181.105C137.19 181.105 124.557 189.221 123.846 190.358C123.134 191.497 129.747 208.638 130.459 209.847C131.173 211.056 159.759 210.17 163.745 208.566C164.828 208.132 166.024 207.561 167.213 206.955C167.832 209.317 168.253 211.227 168.332 212.22C168.478 214.064 168.186 216.362 167.693 218.686Z" fill="#CED8E7"/>
<path fill-rule="evenodd" clip-rule="evenodd" d="M156.652 259.464C149.805 260.959 137.699 261.688 120.76 255.492C120.76 255.492 118.507 252.463 119.215 247.683C119.922 242.903 123.776 237.732 122.074 225.627C121.555 221.936 115.192 188.232 116.112 187.432C119.972 184.076 125.804 181.767 132.119 180.744C134.243 180.4 136.427 180.209 138.584 180.147L143.664 186.725L145.51 189.426L155.977 209.342C155.977 209.342 156.171 209.943 155.969 211.689C155.765 213.433 154.164 219.831 154.164 219.831C154.164 219.831 154.529 245.296 156.652 259.464Z" fill="white"/>
<path fill-rule="evenodd" clip-rule="evenodd" d="M154.165 219.831C147.368 221.242 140.102 222.813 139.207 223.111C137.779 223.587 136.028 249.668 137.382 259.811C132.499 259.095 126.955 257.757 120.761 255.491C120.761 255.491 118.508 252.462 119.216 247.682C119.923 242.902 123.777 237.731 122.075 225.626C121.556 221.935 115.193 188.231 116.113 187.431C119.899 184.137 125.589 181.852 131.771 180.801L132.121 180.743L132.192 180.731C133.678 180.512 135.559 181.151 137.047 181.07L137.19 181.105C137.19 181.105 124.557 189.221 123.846 190.358C123.134 191.497 129.747 208.637 130.459 209.846C130.978 210.725 146.216 210.497 156.037 209.693C156.072 210.039 156.089 210.669 155.97 211.689C155.766 213.433 154.165 219.831 154.165 219.831Z" fill="#EBF1F9"/>
<path fill-rule="evenodd" clip-rule="evenodd" d="M113.139 139.183C112.434 149.268 112.378 160.417 108.574 167.952C108.574 167.952 107.318 169.764 108.766 171.326C110.216 172.886 119.32 179.687 134.713 181.113C150.107 182.537 164.494 169.435 164.815 167.786C165.137 166.137 159.546 154.694 159.511 144.755L113.139 139.183Z" fill="black"/>
<path fill-rule="evenodd" clip-rule="evenodd" d="M134.936 165.523L134.994 169.41C134.994 169.41 134.771 177.359 134.739 178.567C134.718 179.335 133.736 180.158 132.121 180.745C132.121 180.745 134.898 186.66 144.785 187.002C149.985 185.318 149.061 180.662 149.061 180.662L149.09 180.655L149.036 180.651C148.238 180.583 147.203 180.565 146.271 179.489C144.983 178.003 145.222 171.545 146.597 169.893C147.973 168.237 134.936 165.523 134.936 165.523Z" fill="#EB6B5D"/>
<path fill-rule="evenodd" clip-rule="evenodd" d="M154.956 150.644C155.085 150.656 155.209 150.67 155.336 150.692L155.339 150.693C157.636 151.071 159.454 152.991 159.607 155.417C159.783 158.233 157.641 160.661 154.824 160.839C152.008 161.015 149.579 158.873 149.403 156.057C149.3 154.42 149.98 152.915 151.12 151.905C151.057 153.42 151.378 155.275 153.309 155.377L153.125 152.434C153.052 151.244 154.139 150.647 154.956 150.644Z" fill="#E37B64"/>
<path fill-rule="evenodd" clip-rule="evenodd" d="M120.034 152.172C119.907 152.194 119.782 152.221 119.662 152.252L119.657 152.254V152.252C117.402 152.83 115.758 154.905 115.819 157.331C115.888 160.153 118.235 162.385 121.057 162.315C123.878 162.245 126.109 159.9 126.038 157.079C125.999 155.439 125.19 153.998 123.966 153.093C124.162 154.596 124.004 156.472 122.087 156.744L122.016 153.797C121.982 152.603 120.847 152.104 120.034 152.172Z" fill="#E37B64"/>
<path fill-rule="evenodd" clip-rule="evenodd" d="M137.344 125.857L137.347 125.856C146.961 125.436 155.172 132.958 155.594 142.575L156.289 158.477C156.71 168.093 149.187 176.306 139.571 176.726C129.955 177.147 121.744 169.624 121.322 160.008L120.626 144.105C120.205 134.49 127.729 126.278 137.344 125.857Z" fill="#F4AD85"/>
<path fill-rule="evenodd" clip-rule="evenodd" d="M147.677 128.709C149.953 130.204 151.869 132.217 153.247 134.585C153.792 139.664 156.002 146.137 156.002 146.137C156.002 146.137 134.711 147.017 133.291 147.08C131.871 147.143 126.007 149.819 126.231 154.971C126.457 160.123 126.249 176.456 139.572 176.727C129.956 177.147 121.745 169.625 121.323 160.009L120.627 144.106C120.414 139.243 122.235 134.742 125.328 131.422C133.717 130.239 142.564 129.088 147.677 128.709Z" fill="#EF8871"/>
<path fill-rule="evenodd" clip-rule="evenodd" d="M123.969 151.967C124.053 153.904 123.926 156.805 121.187 156.925L121.079 154.462C121.079 154.462 120.646 152.662 118.402 152.76C111.176 145.15 111.534 132.551 118.594 125.718C125.657 118.885 141.414 117.777 144.209 118.576C147.004 119.372 150.047 123.923 150.047 123.923C150.047 123.923 152.294 121.733 154.513 122.724C156.728 123.715 164.592 137.086 164.74 140.509C164.89 143.932 157.584 151.66 157.584 151.66C155.98 151.427 156.046 152.934 156.046 152.934L155.882 149.228C155.838 146.661 155.677 144.474 153.489 144.609L147.213 144.865C146.763 144.884 146.304 144.417 146.183 143.946C146.061 143.474 145.622 140.331 145.49 139.584C145.356 138.837 145.089 138.472 144.947 138.679C144.808 138.886 144.82 141.496 144.644 143.184C144.47 144.846 143.356 145.029 143.319 145.035L128.99 145.639C128.99 145.638 129.041 151.101 123.969 151.967Z" fill="black"/>
<path fill-rule="evenodd" clip-rule="evenodd" d="M113.531 135.247C114.248 131.638 115.952 128.274 118.595 125.717C125.658 118.884 141.415 117.776 144.21 118.575C147.005 119.371 150.048 123.922 150.048 123.922C150.048 123.922 152.295 121.732 154.514 122.723C156.042 123.406 160.257 129.979 162.773 135.116C162.775 135.138 163.38 142.728 146.095 143.485C145.921 142.454 145.602 140.201 145.491 139.583C145.357 138.836 145.09 138.471 144.948 138.678C144.808 138.885 144.821 141.495 144.645 143.183C144.632 143.314 144.611 143.434 144.587 143.548C129.001 144.166 119.854 143.435 113.531 135.247Z" fill="#0C0E0E"/>
<path fill-rule="evenodd" clip-rule="evenodd" d="M117.954 126.372C118.163 126.148 118.376 125.931 118.594 125.718C120.607 123.769 123.329 122.287 126.255 121.18C130.918 126.322 144.844 139.199 157.442 126.024C157.587 126.231 157.735 126.446 157.882 126.664C155.985 130.228 151.08 136.759 140.502 137.015C127.77 137.322 120.439 130.717 117.954 126.372Z" fill="#222221"/>
<path fill-rule="evenodd" clip-rule="evenodd" d="M151.099 153.44C150.267 153.498 149.631 154.225 149.689 155.058L149.826 157.031C149.884 157.865 150.612 158.498 151.444 158.439H151.446C152.279 158.382 152.911 157.654 152.853 156.822L152.717 154.849C152.659 154.015 151.932 153.382 151.099 153.44Z" fill="black"/>
<path fill-rule="evenodd" clip-rule="evenodd" d="M135.742 154.449C134.91 154.506 134.275 155.234 134.333 156.066L134.47 158.04C134.528 158.872 135.255 159.505 136.087 159.447C136.92 159.389 137.555 158.662 137.497 157.83L137.36 155.856C137.302 155.024 136.575 154.392 135.742 154.449Z" fill="black"/>
<path fill-rule="evenodd" clip-rule="evenodd" d="M152.564 160.29C151.331 160.376 150.398 161.446 150.483 162.683C150.569 163.916 151.639 164.849 152.875 164.764C154.11 164.678 155.042 163.607 154.956 162.372C154.871 161.137 153.799 160.204 152.564 160.29Z" fill="#E8685B"/>
<path fill-rule="evenodd" clip-rule="evenodd" d="M133.324 161.623C132.088 161.708 131.155 162.779 131.242 164.015C131.327 165.25 132.398 166.181 133.634 166.096C134.867 166.01 135.8 164.939 135.716 163.705C135.629 162.469 134.559 161.537 133.324 161.623Z" fill="#E8685B"/>
<path fill-rule="evenodd" clip-rule="evenodd" d="M138.092 149.299C138.44 149.436 138.611 149.829 138.474 150.177C138.337 150.525 137.944 150.696 137.596 150.559C137.591 150.558 135.499 149.695 133.612 151.019C133.307 151.233 132.88 151.16 132.667 150.853C132.451 150.546 132.525 150.121 132.832 149.906C135.324 148.157 138.084 149.296 138.092 149.299Z" fill="black"/>
<path fill-rule="evenodd" clip-rule="evenodd" d="M153.946 148.768C154.281 148.932 154.421 149.339 154.257 149.675C154.092 150.01 153.686 150.149 153.348 149.984C153.344 149.981 151.331 148.953 149.344 150.118C149.021 150.308 148.601 150.198 148.411 149.876C148.222 149.552 148.331 149.135 148.657 148.944C151.281 147.406 153.938 148.765 153.946 148.768Z" fill="black"/>
<path fill-rule="evenodd" clip-rule="evenodd" d="M139.971 164.05C140.077 166.572 142.208 168.531 144.729 168.426C147.251 168.322 149.21 166.191 149.104 163.669H149.099C149.081 163.235 148.71 162.896 148.277 162.914L140.735 163.228C140.3 163.246 139.961 163.614 139.979 164.05H139.971Z" fill="black"/>
<path fill-rule="evenodd" clip-rule="evenodd" d="M141.82 167.534C142.632 168.135 143.643 168.473 144.728 168.427C145.616 168.391 146.433 168.104 147.113 167.637C146.726 166.715 145.67 166.055 144.434 166.061C143.251 166.065 142.244 166.674 141.82 167.534Z" fill="#D64341"/>
<path fill-rule="evenodd" clip-rule="evenodd" d="M148.021 162.925L140.932 163.22C140.854 164.008 141.248 164.785 141.783 164.935C142.434 165.119 147.558 164.772 147.903 164.351C148.071 164.15 148.068 163.521 148.021 162.925Z" fill="white"/>
<path fill-rule="evenodd" clip-rule="evenodd" d="M192.392 174.129H190.361C190.213 174.129 190.076 174.187 189.978 174.282L189.933 174.278L174.701 173.112C173.847 173.048 173.149 173.697 173.149 174.556V195.242C173.149 196.102 173.848 196.858 174.701 196.923L189.933 198.089C190.044 198.099 190.155 198.094 190.258 198.08C190.292 198.086 190.326 198.089 190.361 198.089H192.392C192.5 198.089 192.6 198.059 192.685 198.006L201.37 196.541C201.874 196.456 202.285 195.964 202.285 195.448V173.517C202.285 172.999 201.874 172.647 201.37 172.731L192.664 174.2C192.584 174.155 192.492 174.129 192.392 174.129Z" fill="white"/>
<path fill-rule="evenodd" clip-rule="evenodd" d="M202.482 173.489L192.781 175.125C192.238 175.217 191.793 175.75 191.793 176.309V200.031C191.793 200.59 192.238 200.972 192.781 200.88L202.482 199.245C203.027 199.153 203.472 198.62 203.472 198.061V174.34C203.472 173.78 203.028 173.399 202.482 173.489Z" fill="#D84F50"/>
<path fill-rule="evenodd" clip-rule="evenodd" d="M173.638 173.903L190.113 175.163C191.038 175.234 191.794 176.052 191.794 176.981V199.356C191.794 200.286 191.038 200.988 190.113 200.918L173.638 199.657C172.712 199.587 171.956 198.769 171.956 197.839V175.463C171.956 174.534 172.712 173.834 173.638 173.903Z" fill="#D84F50"/>
<path fill-rule="evenodd" clip-rule="evenodd" d="M192.773 175.001H190.573C190.244 175.001 189.973 175.271 189.973 175.602V200.317C189.973 200.647 190.244 200.917 190.573 200.917H192.773C193.102 200.917 193.374 200.647 193.374 200.317V175.602C193.374 175.271 193.103 175.001 192.773 175.001Z" fill="#BD3E43"/>
<path fill-rule="evenodd" clip-rule="evenodd" d="M173.798 188.731C173.51 188.344 173.002 186.994 172.341 186.249C171.387 185.17 170.209 185.099 170.515 186.518C170.939 188.483 171.416 192.509 171.485 193.44C171.585 194.781 171.066 195.342 171.066 195.342L171.387 197.719C171.387 197.719 173.676 200.83 174.056 200.389C174.86 199.458 176.214 197.994 177.336 197.46C178.504 196.902 179.623 196.946 182.205 194.786C182.837 194.166 183.074 193.649 183.037 193.192C183.393 192.843 183.651 192.507 183.749 192.204C184.307 190.51 183.142 190.459 183.142 190.459C183.142 190.459 183.395 189.675 183.269 188.764C183.142 187.854 182.105 187.753 182.105 187.753C182.105 187.753 182.611 186.792 182.208 186.058C181.802 185.325 180.208 186.362 180.208 186.362C180.208 186.362 181.979 184.086 180.767 183.378C179.758 182.789 175.48 187.349 174.926 187.885C174.639 188.098 174.341 188.3 174.038 188.486C173.951 188.566 173.871 188.648 173.798 188.731Z" fill="#F4AD85"/>
<path fill-rule="evenodd" clip-rule="evenodd" d="M173.902 200.426L173.932 200.431H173.935L173.96 200.432H173.966L173.987 200.429L173.992 200.428L174.011 200.421L174.015 200.419L174.032 200.41L174.04 200.405L174.056 200.389C174.859 199.458 176.213 197.994 177.336 197.46C178.503 196.902 179.623 196.946 182.204 194.786L182.233 194.756L182.254 194.734L182.261 194.728L182.287 194.699C182.859 194.117 183.07 193.627 183.035 193.191C183.178 193.053 180.455 195.501 178.931 195.943C176.634 196.607 173.47 196.06 171.526 194.553C171.31 194.385 171.163 195.415 171.072 195.657C170.573 196.995 172.546 200.11 173.902 200.426Z" fill="#EE8469"/>
<path fill-rule="evenodd" clip-rule="evenodd" d="M138.86 230.977C139.107 231.372 140.873 231.474 141.349 231.283C141.824 231.091 169.942 195.321 170.116 195.081C170.288 194.842 170.664 194.9 170.664 194.9C170.664 194.9 173.904 198.67 176.337 198.942C176.337 198.942 176.626 199.521 176.508 199.702C176.405 199.859 154.449 232.166 147.56 242.322C144.26 247.187 138.358 248.768 134.353 244.666C127.475 237.621 117.329 223.799 112.743 211.071C110.933 206.042 109.739 192.96 116.217 187.367C117.935 185.884 120.593 189.839 121.718 192.428C122.839 195.015 138.86 230.977 138.86 230.977Z" fill="white"/>
<path fill-rule="evenodd" clip-rule="evenodd" d="M171.756 196.05C172.915 197.184 174.788 198.771 176.335 198.944C176.335 198.944 176.624 199.522 176.506 199.703C176.403 199.861 154.447 232.167 147.558 242.323C144.258 247.188 138.356 248.77 134.351 244.668C127.473 237.622 117.327 223.8 112.741 211.073C111.513 207.662 110.57 200.55 112.111 194.578C112.154 198.642 113.682 202.934 114.551 205.407C116.4 210.671 129.06 236.204 133.469 240.971C137.88 245.737 143.143 241.824 144.992 239.335C146.842 236.845 170.242 203.985 171.309 201.711C171.909 200.425 171.89 197.956 171.756 196.05Z" fill="#E2ECF7"/>
<path fill-rule="evenodd" clip-rule="evenodd" d="M133.28 180.37L143.665 186.724L139.566 191.249C139.566 191.249 139.226 191.59 138.731 191.287C138.238 190.983 131.228 180.897 131.228 180.897L132.182 179.021L134.224 179.547L133.28 180.37Z" fill="white"/>
<path fill-rule="evenodd" clip-rule="evenodd" d="M145.896 186.261L148.092 180.748L146.976 180.109L147.718 179.41L149.287 180.347L149.766 189.198L145.896 186.261Z" fill="white"/>
<path fill-rule="evenodd" clip-rule="evenodd" d="M207.237 188.452C207.021 185.864 207.058 184.355 204.357 183.138C201.657 181.921 201.222 182.152 200.909 182.878C200.598 183.604 202.121 184.19 202.121 184.19C202.121 184.19 200.675 183.657 199.942 184.559C199.213 185.461 201.244 186.475 201.244 186.475C201.244 186.475 199.605 186.371 199.687 187.399C199.768 188.427 201.26 189.215 201.26 189.215C201.26 189.215 199.929 189.6 200.319 190.509C200.711 191.419 203.557 192.558 203.557 192.558L203.338 195.47C203.338 195.47 207.293 194.76 207.237 188.452Z" fill="#F4AD85"/>
<path fill-rule="evenodd" clip-rule="evenodd" d="M200.427 189.722C200.26 189.921 200.176 190.18 200.318 190.51C200.711 191.42 203.557 192.559 203.557 192.559L203.338 195.471C203.338 195.471 205.611 195.062 206.686 192.114C206.283 192.137 205.746 192.145 205.04 192.053C202.748 191.753 201.291 190.766 200.427 189.722Z" fill="#EE8469"/>
<path fill-rule="evenodd" clip-rule="evenodd" d="M317.491 253.257H398.639C400.192 253.257 401.603 253.892 402.624 254.913C403.643 255.935 404.281 257.347 404.281 258.9V400.286C404.281 401.84 403.643 403.25 402.624 404.273C401.603 405.294 400.192 405.929 398.639 405.929H317.491C315.937 405.929 314.524 405.295 313.505 404.273C312.482 403.25 311.848 401.84 311.848 400.286V258.9C311.848 257.347 312.482 255.935 313.505 254.913C314.524 253.892 315.936 253.257 317.491 253.257ZM398.639 257.125H317.491C317.003 257.125 316.561 257.326 316.24 257.648C315.916 257.97 315.716 258.412 315.716 258.899V400.286C315.716 400.773 315.917 401.216 316.24 401.537C316.562 401.858 317.003 402.058 317.491 402.058H398.639C399.125 402.058 399.569 401.858 399.89 401.537C400.21 401.215 400.412 400.773 400.412 400.286V258.9C400.412 258.413 400.209 257.97 399.89 257.648C399.569 257.326 399.125 257.125 398.639 257.125Z" fill="#DEE7F4"/>
<path fill-rule="evenodd" clip-rule="evenodd" d="M60.5624 253.257H141.71C143.264 253.257 144.677 253.892 145.696 254.913C146.719 255.935 147.353 257.347 147.353 258.9V400.286C147.353 401.84 146.719 403.25 145.696 404.273C144.677 405.294 143.264 405.929 141.71 405.929H60.5624C59.0104 405.929 57.5991 405.295 56.576 404.273C55.5567 403.25 54.9219 401.84 54.9219 400.286V258.9C54.9219 257.347 55.5567 255.935 56.576 254.913C57.5991 253.892 59.0113 253.257 60.5624 253.257ZM141.71 257.125H60.5624C60.0785 257.125 59.6323 257.326 59.3112 257.648C58.9901 257.97 58.7896 258.412 58.7896 258.899V400.286C58.7896 400.773 58.9901 401.216 59.3112 401.537C59.6323 401.858 60.0785 402.058 60.5624 402.058H141.71C142.198 402.058 142.64 401.858 142.961 401.537C143.285 401.215 143.486 400.773 143.486 400.286V258.9C143.486 258.413 143.285 257.97 142.961 257.648C142.639 257.326 142.197 257.125 141.71 257.125Z" fill="#DEE7F4"/>
<path fill-rule="evenodd" clip-rule="evenodd" d="M404.584 251.109H311.545C309.402 251.109 307.648 252.862 307.648 255.004V255.005C307.648 257.147 309.402 258.899 311.545 258.899H404.584C406.726 258.899 408.478 257.147 408.478 255.005V255.004C408.477 252.862 406.726 251.109 404.584 251.109Z" fill="#915E40"/>
<path fill-rule="evenodd" clip-rule="evenodd" d="M378.098 251.109H53.0545C50.9128 251.109 49.1602 252.862 49.1602 255.004V255.005C49.1602 257.147 50.9128 258.899 53.0545 258.899H378.097C380.238 258.899 381.99 257.147 381.99 255.005V255.004C381.99 252.862 380.239 251.109 378.098 251.109Z" fill="#BE865E"/>
<path fill-rule="evenodd" clip-rule="evenodd" d="M358.258 246.401V226.332V211.985C358.258 211.371 358.761 210.868 359.375 210.868H375.901C376.515 210.868 377.018 211.372 377.018 211.985V248.178V249.97V249.991V249.999V250.02V250.027C376.997 250.612 376.523 251.088 375.938 251.106L375.93 251.107H375.909H375.901H375.88H359.376H358.259L358.258 246.401Z" fill="#A62A34"/>
<path d="M374.95 212.671H362.212V246.401H374.95V212.671Z" fill="black"/>
<path fill-rule="evenodd" clip-rule="evenodd" d="M374.95 246.401V226.332V211.985C374.95 211.371 375.453 210.868 376.068 210.868H392.594C393.208 210.868 393.71 211.372 393.71 211.985V248.178V249.97V249.991V249.999V250.02L393.708 250.027C393.689 250.612 393.216 251.088 392.631 251.106L392.622 251.107H392.601H392.593H392.572H376.067H374.949V246.401H374.95Z" fill="#A62A34"/>
<path fill-rule="evenodd" clip-rule="evenodd" d="M358.029 210.869H359.783C360.4 210.869 360.903 211.373 360.903 211.986V246.401H373.109V211.986C373.109 211.372 373.612 210.869 374.227 210.869H375.983C376.596 210.869 377.101 211.372 377.101 211.986V248.179V249.971V249.992V250V250.021L377.098 250.028C377.079 250.613 376.605 251.089 376.02 251.107L376.012 251.108H375.99H375.982H375.962H374.226H359.783H358.05H358.029H358.022H358L357.992 251.107C357.407 251.089 356.933 250.613 356.915 250.028L356.912 250.021V250V249.992V249.971V248.179V211.986C356.912 211.371 357.414 210.869 358.029 210.869Z" fill="#D84F50"/>
<path fill-rule="evenodd" clip-rule="evenodd" d="M374.745 251.109H374.226H359.784H359.269V249.872C359.269 249.413 359.645 249.036 360.106 249.036H373.908C374.369 249.036 374.745 249.413 374.745 249.872V251.109Z" fill="white"/>
<path d="M366.105 212.671H362.212V246.401H366.105V212.671Z" fill="#252626"/>
<path d="M365.551 212.671H362.795V246.401H365.551V212.671Z" fill="white"/>
<path d="M371.215 212.671H367.324V246.401H371.215V212.671Z" fill="#252626"/>
<path d="M370.659 212.671H367.903V246.401H370.659V212.671Z" fill="white"/>
</g>
<defs>
<clipPath id="clip0_86_1613">
<rect width="460" height="439" fill="white"/>
</clipPath>
</defs>
</svg>
