<svg width="18" height="20" viewBox="0 0 18 20" fill="none" xmlns="http://www.w3.org/2000/svg">
<g clip-path="url(#clip0_86_29712)">
<path d="M11.4388 10.6366C11.5996 11.6258 11.7088 12.6233 11.7658 13.6249C11.7816 14.2486 11.6072 14.8615 11.2677 15.375C11.1879 15.6727 10.9484 15.375 10.7773 15.375C10.3552 15.375 10.1993 14.8988 9.97122 14.6051C9.74309 14.3114 9.90658 14.0456 10.0587 13.8114C10.2222 13.6884 10.2868 13.4146 10.5225 13.4146C10.7583 13.4146 10.7278 13.0772 10.6936 12.8987C10.8495 12.6486 10.7545 12.2796 10.9065 12.0057C11.1803 11.8787 11.1005 11.4343 11.1955 11.1842C11.2715 11.0057 11.1955 10.6644 11.4122 10.589C11.4122 10.589 11.4388 10.589 11.435 10.6287M11.1727 0.437468C10.8153 0.393814 10.5453 0.6478 10.245 0.790667C9.99565 0.877278 9.74175 0.94883 9.48455 1.00497C9.29824 1.40182 8.8686 1.63596 8.63667 2.00901C8.39932 2.75029 7.95755 3.40192 7.36676 3.88215C6.52269 4.33853 6.09685 5.33066 5.81929 6.26327C5.72424 6.4736 5.73945 6.78315 5.63679 6.96173C5.3022 7.06094 5.4809 6.60456 5.44288 6.38629C5.39345 6.06087 5.66721 5.85054 5.68622 5.53306C5.79946 5.3075 5.84704 5.0523 5.8231 4.79888C5.78507 4.23138 5.94857 3.54086 5.56455 3.07654C5.33642 2.93764 5.40866 2.64397 5.32502 2.41776C5.09824 2.09463 4.80949 1.82433 4.47714 1.62406C4.20339 1.59628 3.95245 1.22721 3.67109 1.39785C3.49619 1.61215 3.17301 1.60818 3.07035 1.89392C3.00572 2.25109 2.6217 2.15584 2.37076 2.24315C2.05138 2.37411 1.64075 2.24315 1.37841 2.50904C1.11606 2.77493 0.686418 3.16385 0.81569 3.61229C1.11606 4.22741 1.89169 3.91787 2.31373 4.29091C2.18043 4.70367 2.02688 5.10899 1.85367 5.50528C1.78467 6.04337 1.77446 6.58791 1.82325 7.12841C1.9031 7.66813 1.77002 8.36262 2.20347 8.7436C2.45061 8.83885 2.4354 9.14045 2.53045 9.36269C2.6255 9.58493 2.80801 9.28332 2.88405 9.49762C3.10457 9.62461 2.90686 9.89447 3.02853 10.0532C3.23143 10.0951 3.41794 10.1987 3.56463 10.3509C3.79833 10.5207 4.01603 10.7134 4.21479 10.9263C4.36688 11.2517 4.56079 10.6088 4.72808 10.8509C4.74827 10.9029 4.77878 10.9498 4.81762 10.9886C4.85646 11.0274 4.90274 11.0571 4.95339 11.0759C5.00406 11.0946 5.05795 11.102 5.11152 11.0974C5.16509 11.0928 5.21712 11.0764 5.26418 11.0493C5.57374 10.9949 5.86601 10.8628 6.11586 10.6644C6.27935 11.2716 6.15388 11.9303 6.22612 12.5574C6.32719 13.0152 6.39079 13.4812 6.41623 13.9503C6.53022 14.4125 6.5965 14.8862 6.61394 15.3631C6.73754 16.3541 6.57608 17.3611 6.15008 18.2562C6.12524 18.3933 6.06162 18.5195 5.96742 18.6185C5.87323 18.7175 5.75277 18.7849 5.62158 18.8118C5.43148 18.903 5.03605 19.0657 5.16913 19.3515C5.61018 19.7483 6.30977 19.7047 6.81545 19.5023C7.15004 19.3316 6.86108 18.907 7.03217 18.649C7.2565 17.7442 7.14624 16.7759 7.41239 15.8711C7.6183 15.4149 7.69608 14.9071 7.63671 14.4067C7.68994 14.1011 7.56827 13.732 7.75838 13.482C7.7613 13.1745 7.87069 12.8785 8.06635 12.6486C8.12831 12.1818 8.16007 11.7111 8.16141 11.2398C8.42918 11.1524 8.71117 11.1227 8.99027 11.1525C8.99027 11.4144 8.81157 11.716 8.8648 12.0097C8.92081 12.3396 8.86 12.6795 8.6937 12.9661C8.57584 13.482 8.49599 14.117 8.80397 14.5535C9.31345 15.1369 9.97882 15.5496 10.4617 16.1727C10.5004 16.2052 10.532 16.246 10.5544 16.2923C10.5768 16.3386 10.5895 16.3893 10.5917 16.4411C10.5939 16.493 10.5854 16.5447 10.5669 16.5928C10.5484 16.6409 10.5203 16.6844 10.4845 16.7203C10.4409 16.8859 10.3592 17.0379 10.2466 17.1631C10.1339 17.2882 9.99373 17.3828 9.83815 17.4386C9.63663 17.522 9.31345 17.8355 9.54918 18.0538C10.0236 18.1654 10.5189 18.1309 10.975 17.9546C11.2868 17.8355 11.1727 17.4426 11.2944 17.1966C11.4623 17.4346 11.6171 17.6824 11.7582 17.9387C11.9521 18.2403 12.2867 17.9903 12.5186 17.895C12.546 17.4538 12.4607 17.0128 12.2715 16.6172C12.165 16.3552 11.7506 16.3473 11.7696 16.0259C11.9749 15.2321 12.4844 14.6131 12.8875 13.9424C13.222 13.609 12.9711 13.113 12.9901 12.6923C12.8835 11.6112 13.1344 10.5245 13.7011 9.61271C13.8185 10.1192 13.9697 10.6165 14.1536 11.1009C14.2861 11.6689 14.5266 12.2033 14.8608 12.6724C15.0166 13.236 14.9748 13.863 15.0775 14.4464C15.2244 15.4551 15.17 16.4846 14.9178 17.4704C14.9444 17.8315 14.6174 18.0974 14.6478 18.4506C14.7391 18.776 15.1041 18.5141 15.2942 18.653C15.4603 18.7068 15.6394 18.6963 15.7986 18.6234C15.9578 18.5505 16.0865 18.4201 16.1611 18.2562C16.0818 17.9805 16.0283 17.6974 16.0014 17.4109C15.7405 16.5763 15.683 15.687 15.8341 14.8234C15.8645 14.3551 16.1345 13.7836 15.7847 13.3828C15.6896 12.9542 15.8531 12.4899 15.7543 12.0494C15.5198 10.9207 15.4927 9.75583 15.6744 8.61661C15.7352 8.45787 15.6744 8.16419 15.8379 8.07689C15.9997 8.32903 16.0723 8.63213 16.0432 8.93409C16.191 9.40212 16.2094 9.90413 16.0965 10.3826C15.8189 10.7517 15.99 11.2517 16.0242 11.6684C16.0698 11.9621 16.3626 11.7517 16.4044 11.5692C16.6599 11.0725 16.8663 10.5499 17.0204 10.0096C17.1953 9.76351 17.0204 9.47381 17.0204 9.21586C17.2903 9.18014 17.1877 8.86266 17.0432 8.72376C16.8987 8.21579 16.9329 7.62844 16.6059 7.19587C16.0889 6.63786 15.6603 5.99754 15.336 5.29892C14.99 4.15995 14.0015 3.40196 13.6669 2.25109C13.6048 1.92065 13.4786 1.60694 13.2962 1.3292C13.1138 1.05145 12.879 0.815529 12.6061 0.635894C12.3605 0.518177 12.1062 0.421296 11.8457 0.346191C11.624 0.394469 11.3989 0.42367 11.1727 0.433499" fill="#004065"/>
</g>
<defs>
<clipPath id="clip0_86_29712">
<rect width="16.4138" height="19.3103" fill="white" transform="translate(0.792969 0.344727)"/>
</clipPath>
</defs>
</svg>
