<svg width="20" height="20" viewBox="0 0 20 20" fill="none" xmlns="http://www.w3.org/2000/svg">
<g clip-path="url(#clip0_86_30160)">
<path d="M3.97157 0.668457H16.0271C17.8549 0.668457 19.3327 2.18382 19.3327 4.05807V15.9417C19.3327 17.8159 17.8549 19.3313 16.0271 19.3313H3.97157C2.14379 19.3313 0.666016 17.8159 0.666016 15.9417V4.05807C0.666016 2.18382 2.14379 0.668457 3.97157 0.668457Z" fill="#00005B"/>
<path d="M5.09961 13.7484V5.53353C5.09961 5.47771 5.12294 5.4458 5.17739 5.4458C5.30961 5.4458 5.43405 5.4458 5.61294 5.43783C5.79961 5.42985 5.99405 5.42985 6.20405 5.42188C6.41405 5.4139 6.63961 5.4139 6.88072 5.40592C7.12183 5.39795 7.35517 5.39795 7.5885 5.39795C8.22628 5.39795 8.75517 5.47771 9.19072 5.64519C9.57961 5.78078 9.93739 6.00409 10.2329 6.29919C10.4818 6.55441 10.6763 6.86545 10.8007 7.2084C10.9174 7.54338 10.9796 7.88633 10.9796 8.24523C10.9796 8.93113 10.8241 9.49739 10.5129 9.94403C10.2018 10.3907 9.76628 10.7256 9.26072 10.917C8.73183 11.1164 8.1485 11.1882 7.51072 11.1882C7.32405 11.1882 7.19961 11.1882 7.12183 11.1802C7.04405 11.1723 6.93516 11.1723 6.78739 11.1723V13.7324C6.79516 13.7883 6.75628 13.8361 6.70183 13.8441H5.19294C5.13072 13.8441 5.09961 13.8122 5.09961 13.7404V13.7484ZM6.79517 6.99306V9.67286C6.90405 9.68083 7.00516 9.68881 7.0985 9.68881H7.51072C7.81405 9.68881 8.11739 9.64095 8.40517 9.54525C8.65405 9.47347 8.87183 9.32193 9.04294 9.12254C9.20628 8.92315 9.28405 8.65198 9.28405 8.30106C9.29183 8.05381 9.22961 7.80657 9.10517 7.59123C8.97294 7.38387 8.78628 7.22436 8.56072 7.13662C8.27294 7.01699 7.96183 6.96914 7.64294 6.97711C7.44072 6.97711 7.26183 6.97711 7.11405 6.98509C6.9585 6.97711 6.84961 6.98509 6.79517 6.99306ZM12.0996 7.46362H13.4607C13.5385 7.46362 13.6007 7.51945 13.6241 7.59123C13.6474 7.65504 13.6629 7.71884 13.6707 7.79062C13.6863 7.87038 13.7018 7.95811 13.7096 8.03786C13.7174 8.1256 13.7252 8.2213 13.7252 8.32498C13.9585 8.04584 14.2385 7.81455 14.5574 7.63909C14.9152 7.43172 15.3274 7.32804 15.7396 7.32804C15.7941 7.32006 15.8407 7.35994 15.8485 7.41577V9.00291C15.8485 9.06671 15.8096 9.09064 15.7241 9.09064C15.4441 9.08266 15.1563 9.10659 14.8841 9.17039C14.6585 9.21825 14.4407 9.29003 14.2307 9.38574C14.0829 9.45752 13.9429 9.55322 13.8341 9.68083V13.7484C13.8341 13.8281 13.8029 13.86 13.7329 13.86H12.2007C12.1385 13.868 12.0841 13.8281 12.0763 13.7643V9.31396C12.0763 9.12254 12.0763 8.92315 12.0685 8.71579C12.0607 8.50842 12.0607 8.30106 12.0529 8.09369C12.0529 7.91025 12.0374 7.73479 12.0218 7.55135C12.0141 7.51148 12.0374 7.4716 12.0763 7.46362C12.0763 7.45565 12.0918 7.45565 12.0996 7.46362Z" fill="#9999FF"/>
</g>
<defs>
<clipPath id="clip0_86_30160">
<rect width="18.6667" height="18.6667" fill="white" transform="translate(0.666016 0.666504)"/>
</clipPath>
</defs>
</svg>
