<svg width="16" height="20" viewBox="0 0 16 20" fill="none" xmlns="http://www.w3.org/2000/svg">
<g clip-path="url(#clip0_86_29862)">
<path d="M15.7246 10.0018C15.7246 8.93528 14.4431 7.92455 12.4782 7.29777C12.9316 5.21069 12.7301 3.55021 11.8421 3.01859C11.6374 2.89389 11.3981 2.83482 11.1368 2.83482V3.56662C11.2816 3.56662 11.3981 3.59615 11.4957 3.65194C11.924 3.9079 12.1098 4.88253 11.9649 6.13609C11.9303 6.44456 11.8736 6.76944 11.8043 7.10088C11.1871 6.94336 10.5133 6.82194 9.8048 6.74318C9.3797 6.13609 8.93886 5.58479 8.49488 5.10239C9.5214 4.10808 10.485 3.56333 11.1399 3.56333V2.83154C10.274 2.83154 9.14039 3.47473 7.99421 4.59047C6.84803 3.4813 5.71444 2.84467 4.8485 2.84467V3.57646C5.50032 3.57646 6.46701 4.11792 7.49354 5.10568C7.0527 5.58807 6.61186 6.13609 6.19306 6.74318C5.48142 6.82194 4.80757 6.94336 4.19039 7.10416C4.11797 6.776 4.06444 6.45769 4.02665 6.1525C3.87866 4.89894 4.06129 3.92431 4.48638 3.66506C4.58085 3.606 4.70366 3.57974 4.8485 3.57974V2.84795C4.584 2.84795 4.34469 2.90702 4.13686 3.03172C3.25203 3.56333 3.05366 5.22053 3.51024 7.30105C1.55165 7.93111 0.276367 8.93856 0.276367 10.0018C0.276367 11.0683 1.55795 12.079 3.52284 12.7058C3.0694 14.7929 3.27093 16.4534 4.1589 16.985C4.36358 17.1097 4.60289 17.1688 4.8674 17.1688C5.73333 17.1688 6.86692 16.5256 8.0131 15.4098C9.15928 16.519 10.2929 17.1556 11.1588 17.1556C11.4233 17.1556 11.6626 17.0966 11.8704 16.9719C12.7553 16.4402 12.9537 14.783 12.4971 12.7025C14.4494 12.0757 15.7246 11.065 15.7246 10.0018ZM11.6248 7.81298C11.5083 8.2363 11.3635 8.67275 11.1997 9.1092C11.0706 8.84667 10.9352 8.58415 10.7872 8.32162C10.6424 8.0591 10.4881 7.80313 10.3338 7.55373C10.7809 7.62265 11.2123 7.70797 11.6248 7.81298ZM10.1827 11.3079C9.93705 11.7509 9.68514 12.1709 9.42379 12.5614C8.95461 12.6041 8.47913 12.6271 8.00051 12.6271C7.52503 12.6271 7.04955 12.6041 6.58352 12.5647C6.32217 12.1742 6.06711 11.7574 5.8215 11.3177C5.58219 10.8878 5.36492 10.4514 5.16654 10.0116C5.36177 9.5719 5.58219 9.13217 5.81835 8.70228C6.06396 8.25927 6.31587 7.83923 6.57722 7.44872C7.0464 7.40606 7.52188 7.38309 8.00051 7.38309C8.47598 7.38309 8.95146 7.40606 9.41749 7.44544C9.67885 7.83595 9.9339 8.25271 10.1795 8.69244C10.4188 9.12233 10.6361 9.55878 10.8345 9.99851C10.6361 10.4382 10.4188 10.878 10.1827 11.3079ZM11.1997 10.8813C11.3698 11.321 11.5146 11.7607 11.6343 12.1873C11.2218 12.2923 10.7872 12.3809 10.337 12.4498C10.4913 12.1972 10.6455 11.9379 10.7904 11.6721C10.9352 11.4096 11.0706 11.1438 11.1997 10.8813ZM8.0068 14.3827C7.71396 14.0677 7.42112 13.7165 7.13142 13.3326C7.41482 13.3457 7.70451 13.3556 7.99736 13.3556C8.29335 13.3556 8.58619 13.349 8.87274 13.3326C8.58934 13.7165 8.2965 14.0677 8.0068 14.3827ZM5.66406 12.4498C5.21692 12.3809 4.78553 12.2956 4.37303 12.1906C4.48953 11.7673 4.63438 11.3308 4.79812 10.8944C4.92722 11.1569 5.06263 11.4194 5.21062 11.682C5.35862 11.9445 5.50976 12.2004 5.66406 12.4498ZM7.99106 5.62088C8.2839 5.93591 8.57675 6.28704 8.86644 6.67099C8.58304 6.65786 8.29335 6.64802 8.00051 6.64802C7.70451 6.64802 7.41167 6.65458 7.12513 6.67099C7.40852 6.28704 7.70137 5.93591 7.99106 5.62088ZM5.66091 7.55373C5.50661 7.80641 5.35232 8.06566 5.20747 8.33147C5.06263 8.59399 4.92722 8.85652 4.79812 9.11905C4.62808 8.67931 4.48324 8.23958 4.36358 7.81298C4.77608 7.71125 5.21062 7.62265 5.66091 7.55373ZM2.8112 11.6623C1.6965 11.1667 0.975413 10.517 0.975413 10.0018C0.975413 9.48658 1.6965 8.83355 2.8112 8.34131C3.082 8.21989 3.37799 8.1116 3.68343 8.00987C3.86291 8.65306 4.09908 9.3225 4.39192 10.0084C4.10222 10.6909 3.86921 11.3571 3.69287 11.997C3.38114 11.8953 3.08515 11.7837 2.8112 11.6623ZM4.50528 16.3516C4.07703 16.0957 3.89125 15.121 4.0361 13.8675C4.07074 13.559 4.12742 13.2341 4.19669 12.9027C4.81387 13.0602 5.48772 13.1816 6.19621 13.2604C6.62131 13.8675 7.06215 14.4188 7.50614 14.9012C6.47961 15.8955 5.51606 16.4402 4.8611 16.4402C4.7194 16.437 4.59974 16.4074 4.50528 16.3516ZM11.9744 13.8511C12.1224 15.1046 11.9397 16.0793 11.5146 16.3385C11.4202 16.3976 11.2974 16.4238 11.1525 16.4238C10.5007 16.4238 9.534 15.8824 8.50747 14.8946C8.94831 14.4122 9.38915 13.8642 9.80795 13.2571C10.5196 13.1784 11.1934 13.0569 11.8106 12.8961C11.883 13.2276 11.9397 13.5459 11.9744 13.8511ZM13.1867 11.6623C12.9159 11.7837 12.6199 11.892 12.3144 11.9937C12.135 11.3505 11.8988 10.6811 11.6059 9.99523C11.8956 9.31266 12.1287 8.6465 12.305 8.00659C12.6167 8.10832 12.9127 8.21989 13.1898 8.34131C14.3045 8.83683 15.0256 9.48658 15.0256 10.0018C15.0225 10.517 14.3014 11.17 13.1867 11.6623Z" fill="#61DAFB"/>
<path d="M7.99762 11.5013C8.79237 11.5013 9.43665 10.8299 9.43665 10.0016C9.43665 9.17338 8.79237 8.50195 7.99762 8.50195C7.20287 8.50195 6.55859 9.17338 6.55859 10.0016C6.55859 10.8299 7.20287 11.5013 7.99762 11.5013Z" fill="#61DAFB"/>
</g>
<defs>
<clipPath id="clip0_86_29862">
<rect width="15.4483" height="18.3448" fill="white" transform="translate(0.276367 0.827637)"/>
</clipPath>
</defs>
</svg>
