<svg width="20" height="20" viewBox="0 0 20 20" fill="none" xmlns="http://www.w3.org/2000/svg">
<g clip-path="url(#clip0_86_29708)">
<path d="M18.9634 9.77525L18.2004 9.2985C18.1939 9.22366 18.1867 9.14889 18.1786 9.0742L18.8344 8.45686C18.8672 8.42611 18.8916 8.38739 18.9053 8.34439C18.9191 8.3014 18.9216 8.25557 18.9128 8.21128C18.9042 8.16696 18.8845 8.12561 18.8555 8.09119C18.8266 8.05676 18.7893 8.03041 18.7474 8.01465L17.9091 7.69827C17.8881 7.62521 17.8662 7.5524 17.8435 7.47985L18.3664 6.74685C18.3925 6.7102 18.409 6.66741 18.4142 6.62253C18.4194 6.57765 18.4131 6.53218 18.396 6.49043C18.3789 6.44869 18.3515 6.41205 18.3164 6.38401C18.2813 6.35597 18.2396 6.33745 18.1955 6.33022L17.3115 6.18511C17.2772 6.11746 17.2414 6.05082 17.2053 5.98475L17.5767 5.16188C17.5954 5.12082 17.6034 5.0756 17.5998 5.03056C17.5962 4.98551 17.5812 4.94215 17.5563 4.90462C17.5315 4.86698 17.4976 4.83638 17.4578 4.81578C17.4179 4.79517 17.3735 4.78525 17.3288 4.78696L16.4317 4.81849C16.3853 4.75991 16.3381 4.70208 16.2899 4.645L16.4961 3.76302C16.5064 3.71903 16.5054 3.67311 16.4932 3.62963C16.4809 3.58615 16.4578 3.54657 16.4261 3.51465C16.3945 3.48269 16.3553 3.45942 16.3123 3.44706C16.2692 3.43469 16.2237 3.43363 16.1802 3.44399L15.3066 3.65187C15.2498 3.60334 15.1924 3.55566 15.1343 3.50884L15.1657 2.60342C15.1674 2.55828 15.1576 2.51347 15.1372 2.47325C15.1168 2.43304 15.0865 2.39878 15.0493 2.37375C15.0121 2.34862 14.9691 2.33351 14.9245 2.32988C14.8799 2.32624 14.8351 2.33419 14.7944 2.35297L13.9793 2.72804C13.9136 2.69142 13.8474 2.65558 13.7808 2.62055L13.6367 1.72825C13.6295 1.68369 13.6111 1.64173 13.5833 1.60634C13.5555 1.57096 13.5193 1.54332 13.478 1.52604C13.4366 1.50877 13.3916 1.50243 13.3472 1.50763C13.3027 1.51283 13.2604 1.5294 13.2241 1.55576L12.4973 2.08353C12.4258 2.0606 12.3539 2.03846 12.2813 2.01746L11.9679 1.17124C11.9523 1.12884 11.9262 1.09119 11.8921 1.06189C11.858 1.03258 11.817 1.01259 11.773 1.00384C11.7291 0.99513 11.6838 0.997835 11.6413 1.0117C11.5988 1.02557 11.5604 1.05014 11.5299 1.0831L10.9183 1.74544C10.8443 1.73708 10.7702 1.72977 10.696 1.72352L10.2237 0.953177C10.2001 0.914791 10.1673 0.88311 10.1282 0.86114C10.0891 0.839169 10.0452 0.827637 10.0004 0.827637C9.95571 0.827637 9.91172 0.839169 9.87265 0.86114C9.83358 0.88311 9.80072 0.914791 9.77718 0.953177L9.30483 1.72352C9.23059 1.72976 9.15643 1.73707 9.08239 1.74544L8.47061 1.0831C8.44012 1.05002 8.40175 1.02536 8.35915 1.01148C8.31655 0.997594 8.27114 0.994943 8.22724 1.00378C8.18334 1.01261 8.14241 1.03264 8.10834 1.06195C8.07428 1.09126 8.04821 1.12888 8.03262 1.17124L7.71924 2.01746C7.64661 2.03846 7.57476 2.06075 7.50305 2.08353L6.77646 1.55576C6.74016 1.52928 6.69774 1.51264 6.65325 1.50743C6.60876 1.50222 6.56369 1.50863 6.52236 1.52602C6.48106 1.54334 6.44481 1.57099 6.41705 1.60638C6.38928 1.64176 6.37091 1.6837 6.36368 1.72825L6.21955 2.62055C6.15281 2.65545 6.08686 2.69135 6.02104 2.72804L5.20591 2.3529C5.16523 2.33411 5.12045 2.32616 5.07585 2.32981C5.03125 2.33346 4.98833 2.34859 4.95117 2.37375C4.91389 2.39877 4.8836 2.43302 4.86319 2.47323C4.84278 2.51344 4.83293 2.55827 4.8346 2.60342L4.86584 3.50884C4.8078 3.55574 4.75038 3.60343 4.69359 3.65187L3.81997 3.44406C3.77639 3.43375 3.73092 3.43483 3.68787 3.44718C3.64481 3.45953 3.60558 3.48275 3.57389 3.51465C3.54218 3.54657 3.5191 3.58615 3.50684 3.62963C3.49459 3.67311 3.49357 3.71903 3.50388 3.76302L3.70971 4.645C3.66193 4.70211 3.61471 4.75994 3.56835 4.81849L2.67122 4.78696C2.62655 4.78554 2.58224 4.79558 2.54246 4.81614C2.50267 4.83671 2.46871 4.86713 2.44375 4.90455C2.41885 4.9421 2.40388 4.98544 2.40027 5.03047C2.39665 5.0755 2.40451 5.12071 2.42308 5.16181L2.79469 5.98475C2.75855 6.05082 2.72284 6.11746 2.68819 6.18511L1.80434 6.33022C1.76017 6.33749 1.71857 6.35602 1.6835 6.38407C1.64842 6.41212 1.62102 6.44875 1.6039 6.49048C1.58678 6.53222 1.58051 6.57767 1.58568 6.62254C1.59085 6.6674 1.60729 6.71019 1.63345 6.74685L2.15635 7.47992C2.13363 7.5523 2.11155 7.62496 2.09067 7.69827L1.25233 8.01465C1.21046 8.03052 1.1733 8.05692 1.14436 8.09133C1.11543 8.12575 1.09567 8.16705 1.08696 8.21133C1.07825 8.25561 1.08088 8.30139 1.0946 8.34436C1.10832 8.38732 1.13267 8.42604 1.16536 8.45686L1.82117 9.07413C1.813 9.14866 1.80576 9.22369 1.79951 9.2985L1.03636 9.77525C0.99833 9.79901 0.966954 9.83219 0.945209 9.87163C0.923463 9.91108 0.912069 9.95548 0.912109 10.0006C0.912109 10.0926 0.959181 10.1778 1.03643 10.2258L1.79951 10.7026C1.80576 10.7776 1.813 10.8525 1.82117 10.927L1.16529 11.5444C1.13254 11.5752 1.10814 11.6139 1.09439 11.6569C1.08064 11.6999 1.07799 11.7457 1.08672 11.79C1.09544 11.8343 1.11523 11.8756 1.14422 11.91C1.1732 11.9444 1.21042 11.9707 1.25233 11.9865L2.09067 12.3029C2.11155 12.3761 2.13363 12.4489 2.15635 12.5212L1.63345 13.2544C1.60725 13.291 1.59077 13.3338 1.58559 13.3787C1.5804 13.4236 1.58669 13.4691 1.60383 13.5108C1.62098 13.5526 1.64843 13.5892 1.68356 13.6172C1.7187 13.6452 1.76035 13.6637 1.80455 13.6709L2.68826 13.816C2.72284 13.8836 2.75827 13.9503 2.79476 14.0166L2.42308 14.8393C2.40447 14.8804 2.3966 14.9256 2.40021 14.9706C2.40383 15.0157 2.41882 15.059 2.44375 15.0965C2.46853 15.1341 2.50246 15.1647 2.54228 15.1853C2.58211 15.2059 2.62651 15.2158 2.67122 15.2141L3.56792 15.1825C3.61471 15.2413 3.66178 15.299 3.70971 15.3563L3.50388 16.2384C3.49358 16.2823 3.4946 16.3282 3.50686 16.3716C3.51911 16.415 3.54219 16.4545 3.57389 16.4863C3.60549 16.5183 3.64472 16.5416 3.68781 16.554C3.7309 16.5663 3.77641 16.5673 3.81997 16.5567L4.69359 16.3491C4.75039 16.3978 4.8079 16.4451 4.86591 16.4917L4.83467 17.3974C4.83305 17.4425 4.84291 17.4873 4.86329 17.5275C4.88367 17.5677 4.9139 17.602 4.95111 17.6271C4.98832 17.6521 5.03126 17.6672 5.07586 17.6708C5.12046 17.6744 5.16523 17.6664 5.20591 17.6476L6.02104 17.2728C6.08667 17.3096 6.15285 17.3454 6.21955 17.3802L6.36368 18.272C6.3708 18.3166 6.38912 18.3586 6.41689 18.3941C6.44467 18.4295 6.48098 18.4572 6.52236 18.4744C6.56371 18.4917 6.60875 18.4981 6.65321 18.4929C6.69767 18.4877 6.74009 18.4712 6.77646 18.4448L7.50269 17.9167C7.5744 17.9396 7.64646 17.9621 7.71902 17.9831L8.03248 18.829C8.04809 18.8713 8.07419 18.9089 8.1083 18.9382C8.14241 18.9674 8.18338 18.9873 8.2273 18.996C8.27116 19.005 8.31656 19.0024 8.35915 18.9885C8.40173 18.9746 8.44006 18.9499 8.47046 18.9168L9.08225 18.2548C9.15609 18.2634 9.23035 18.2706 9.30469 18.2772L9.77704 19.0474C9.8006 19.0857 9.83346 19.1174 9.8725 19.1393C9.91155 19.1613 9.95549 19.1728 10.0002 19.1728C10.0449 19.1728 10.0889 19.1613 10.1279 19.1393C10.167 19.1174 10.1999 19.0858 10.2235 19.0474L10.6958 18.2772C10.7702 18.2706 10.8443 18.2634 10.9181 18.2548L11.5298 18.9168C11.5602 18.9499 11.5985 18.9746 11.6411 18.9884C11.6836 19.0023 11.729 19.0049 11.7729 18.996C11.8168 18.9873 11.8577 18.9674 11.8918 18.9381C11.9259 18.9089 11.952 18.8713 11.9677 18.829L12.2811 17.9831C12.3537 17.9621 12.4258 17.9396 12.4975 17.9167L13.2239 18.4448C13.2602 18.4712 13.3027 18.4878 13.3471 18.4929C13.3916 18.4981 13.4366 18.4917 13.4779 18.4744C13.5193 18.4571 13.5555 18.4294 13.5833 18.394C13.6111 18.3586 13.6294 18.3166 13.6365 18.272L13.7807 17.3802C13.8473 17.3453 13.9133 17.309 13.9791 17.2727L14.7942 17.6476C14.8349 17.6665 14.8797 17.6745 14.9243 17.6709C14.969 17.6673 15.0119 17.6523 15.0492 17.6272C15.0864 17.6021 15.1166 17.5678 15.137 17.5276C15.1574 17.4874 15.1672 17.4425 15.1656 17.3974L15.1343 16.4917C15.1924 16.4451 15.2498 16.3975 15.3063 16.3491L16.18 16.5567C16.2688 16.5778 16.3618 16.5517 16.4259 16.4863C16.4576 16.4545 16.4807 16.415 16.4929 16.3716C16.5052 16.3282 16.5062 16.2823 16.4959 16.2384L16.2902 15.3563C16.3381 15.299 16.3853 15.2413 16.4314 15.1825L17.3286 15.2141C17.3733 15.2158 17.4177 15.2059 17.4575 15.1853C17.4973 15.1648 17.5313 15.1342 17.5561 15.0966C17.581 15.0591 17.596 15.0157 17.5996 14.9706C17.6032 14.9255 17.5953 14.8803 17.5766 14.8392L17.2051 14.0167C17.2414 13.9503 17.277 13.8836 17.3114 13.8161L18.1953 13.6709C18.2395 13.6637 18.2811 13.6452 18.3162 13.6172C18.3513 13.5891 18.3787 13.5524 18.3957 13.5106C18.4128 13.4689 18.4191 13.4235 18.4139 13.3787C18.4088 13.3338 18.3924 13.291 18.3662 13.2544L17.8433 12.5213C17.8659 12.4489 17.888 12.3761 17.909 12.3029L18.7472 11.9865C18.7891 11.9708 18.8264 11.9444 18.8554 11.91C18.8843 11.8755 18.9041 11.8342 18.9127 11.7898C18.9215 11.7456 18.9189 11.6997 18.9052 11.6568C18.8914 11.6138 18.867 11.5751 18.8342 11.5444L18.1785 10.927C18.1864 10.8524 18.1938 10.7775 18.2001 10.7027L18.9632 10.2258C19.0013 10.2021 19.0327 10.169 19.0544 10.1296C19.0762 10.0901 19.0876 10.0457 19.0875 10.0006C19.0875 9.90882 19.0407 9.82347 18.9634 9.77525ZM13.8564 16.1641C13.565 16.1007 13.3797 15.8108 13.4422 15.5158C13.5046 15.2212 13.7915 15.0336 14.0828 15.097C14.3742 15.16 14.5598 15.4504 14.4973 15.7448C14.4348 16.0394 14.1476 16.2271 13.8564 16.1641ZM13.5971 14.3942C13.5338 14.3805 13.4686 14.3795 13.405 14.3913C13.3414 14.4032 13.2807 14.4275 13.2264 14.463C13.1722 14.4985 13.1254 14.5444 13.0887 14.5982C13.052 14.6519 13.0262 14.7125 13.0128 14.7763L12.7418 16.0523C11.9058 16.4353 10.9775 16.648 9.99983 16.648C8.99975 16.648 8.05122 16.4247 7.20039 16.0255L6.9296 14.7495C6.87266 14.481 6.6111 14.3099 6.34543 14.3675L5.22934 14.6095C5.02192 14.394 4.82913 14.1646 4.65227 13.923H10.0829C10.1443 13.923 10.1853 13.9117 10.1853 13.8553V11.9164C10.1853 11.86 10.1443 11.8487 10.0828 11.8487H8.49468V10.6198H10.2125C10.3692 10.6198 11.0509 10.6649 11.2688 11.5443C11.3371 11.8147 11.4869 12.6944 11.5894 12.9761C11.6915 13.2919 12.1072 13.9229 12.5502 13.9229H15.2563C15.287 13.9229 15.3198 13.9194 15.3544 13.9131C15.1667 14.1705 14.961 14.414 14.7389 14.6419L13.5971 14.3942ZM6.08622 16.1375C5.79477 16.201 5.50787 16.0134 5.44518 15.7188C5.38284 15.4236 5.56815 15.1339 5.85952 15.0705C6.15097 15.0075 6.43801 15.1951 6.50049 15.4897C6.56282 15.7842 6.37745 16.0744 6.08622 16.1375ZM4.02607 7.70601C4.14698 7.98132 4.02394 8.30401 3.75152 8.42583C3.47911 8.54801 3.16025 8.42368 3.03942 8.14815C2.91851 7.87262 3.04148 7.55051 3.31397 7.42833C3.37878 7.39931 3.44862 7.38348 3.5195 7.38173C3.59037 7.37999 3.6609 7.39236 3.72704 7.41814C3.79317 7.44392 3.85363 7.48261 3.90494 7.53199C3.95625 7.58138 3.99741 7.64056 4.02607 7.70601ZM3.39291 9.22089L4.55557 8.69942C4.67493 8.64583 4.76833 8.54661 4.81524 8.42356C4.86215 8.30051 4.85875 8.16369 4.80577 8.04317L4.56637 7.49669H5.50808V11.7811H3.60811C3.43969 11.1827 3.35448 10.5635 3.35493 9.94143C3.35493 9.69793 3.36792 9.45737 3.39291 9.22089ZM8.49496 8.80476V7.54191H10.7375C10.8534 7.54191 11.5554 7.67706 11.5554 8.20691C11.5554 8.64683 11.0169 8.80455 10.5741 8.80455H8.49496V8.80476ZM16.6449 9.94143C16.6449 10.109 16.6388 10.2748 16.6267 10.4393H15.9449C15.8767 10.4393 15.8492 10.4846 15.8492 10.552V10.8681C15.8492 11.6119 15.4336 11.7737 15.0695 11.8149C14.7227 11.8543 14.3382 11.6683 14.2909 11.4542C14.0862 10.2928 13.7454 10.0448 13.2071 9.61624C13.8752 9.18807 14.5702 8.55639 14.5702 7.71081C14.5702 6.79787 13.9501 6.2228 13.5274 5.94082C12.9345 5.54626 12.2779 5.46715 12.1007 5.46715H5.04979C6.00592 4.39011 7.30177 3.62715 8.76738 3.34954L9.59848 4.22952C9.64307 4.27676 9.69645 4.31465 9.75557 4.34103C9.81469 4.36742 9.87838 4.38177 9.943 4.38328C10.0076 4.38478 10.0719 4.37341 10.1322 4.3498C10.1924 4.3262 10.2475 4.29083 10.2942 4.24572L11.2241 3.34797C13.1726 3.71415 14.8224 4.93838 15.7732 6.618L15.1365 8.06932C15.0266 8.32049 15.1388 8.61422 15.3869 8.72551L16.6126 9.27499C16.6338 9.49463 16.6449 9.71649 16.6449 9.94143ZM9.59883 2.60091C9.81417 2.39274 10.1557 2.40099 10.3619 2.61861C10.5677 2.83689 10.5599 3.182 10.344 3.39003C10.1287 3.59827 9.78712 3.59017 9.58094 3.37211C9.48215 3.26737 9.42855 3.12736 9.43191 2.98278C9.43526 2.83821 9.49529 2.70088 9.59883 2.60091ZM15.9164 7.73245C15.9451 7.667 15.9862 7.6079 16.0375 7.55852C16.0888 7.50915 16.1493 7.47047 16.2154 7.44469C16.2815 7.41892 16.352 7.40657 16.4229 7.40833C16.4938 7.4101 16.5636 7.42595 16.6284 7.45499C16.9009 7.57695 17.0239 7.89949 16.9029 8.1748C16.8743 8.24028 16.8332 8.29942 16.7819 8.34882C16.7306 8.39823 16.6701 8.43694 16.604 8.46273C16.5378 8.48852 16.4673 8.50089 16.3964 8.49914C16.3255 8.49738 16.2556 8.48153 16.1908 8.45249C15.9187 8.33045 15.7957 8.0082 15.9164 7.73245Z" fill="black"/>
</g>
<defs>
<clipPath id="clip0_86_29708">
<rect width="18.1754" height="18.3448" fill="white" transform="translate(0.912109 0.827637)"/>
</clipPath>
</defs>
</svg>
