<svg width="16" height="18" viewBox="0 0 16 18" fill="none" xmlns="http://www.w3.org/2000/svg">
<g clip-path="url(#clip0_86_29954)">
<path d="M13.6738 3.68666C13.6619 3.59916 13.5861 3.55074 13.5235 3.5454C13.461 3.54013 12.1383 3.44094 12.1383 3.44094C12.1383 3.44094 11.2197 2.5183 11.1189 2.41617C11.018 2.31411 10.821 2.34515 10.7445 2.36793C10.7332 2.37128 10.5438 2.43044 10.2304 2.52854C9.92356 1.63521 9.38199 0.814264 8.42925 0.814264C8.40295 0.814264 8.37588 0.815342 8.34881 0.816901C8.07785 0.454375 7.7422 0.296875 7.45229 0.296875C5.2329 0.296875 4.17259 3.10377 3.84014 4.53014C2.97774 4.80049 2.36509 4.99269 2.28683 5.01756C1.80546 5.17032 1.79024 5.18567 1.72703 5.64456C1.67946 5.99199 0.419922 15.8465 0.419922 15.8465L10.2345 17.7069L15.5524 16.543C15.5524 16.543 13.6855 3.77416 13.6738 3.68666ZM9.68796 2.69827L8.85749 2.95831C8.85779 2.8991 8.85808 2.84085 8.85808 2.77714C8.85808 2.22193 8.7819 1.77491 8.65969 1.42053C9.15061 1.48286 9.47755 2.04795 9.68796 2.69827ZM8.05072 1.53062C8.1872 1.87661 8.27594 2.37314 8.27594 3.04318C8.27594 3.07746 8.27565 3.1088 8.27535 3.14051C7.73527 3.30975 7.14839 3.4935 6.56021 3.67785C6.89047 2.38836 7.50951 1.76556 8.05072 1.53062ZM7.39133 0.899127C7.48712 0.899127 7.58362 0.932029 7.67597 0.996336C6.96469 1.33495 6.20229 2.18777 5.88032 3.89085L4.52458 4.31564C4.9017 3.01663 5.79721 0.899127 7.39133 0.899127Z" fill="#95BF46"/>
<path d="M13.5239 3.54519C13.4614 3.53992 12.1387 3.44073 12.1387 3.44073C12.1387 3.44073 11.2201 2.51809 11.1193 2.41596C11.0815 2.37797 11.0306 2.35849 10.9774 2.3501L10.2354 17.7065L15.5528 16.5428C15.5528 16.5428 13.6859 3.77395 13.6742 3.68645C13.6623 3.59895 13.5865 3.55053 13.5239 3.54519Z" fill="#5E8E3E"/>
<path d="M8.42939 6.5178L7.77367 8.4911C7.77367 8.4911 7.19917 8.1809 6.49494 8.1809C5.46253 8.1809 5.41057 8.83637 5.41057 9.00154C5.41057 9.90279 7.73274 10.2481 7.73274 12.3591C7.73274 14.02 6.6915 15.0895 5.28753 15.0895C3.60278 15.0895 2.74121 14.0287 2.74121 14.0287L3.19231 12.5208C3.19231 12.5208 4.07794 13.2901 4.82523 13.2901C5.31354 13.2901 5.51217 12.9011 5.51217 12.6169C5.51217 11.4413 3.60705 11.3888 3.60705 9.45708C3.60705 7.83119 4.76055 6.25781 7.08899 6.25781C7.98616 6.25781 8.42939 6.5178 8.42939 6.5178Z" fill="white"/>
</g>
<defs>
<clipPath id="clip0_86_29954">
<rect width="15.1667" height="17.5" fill="white" transform="translate(0.416992 0.25)"/>
</clipPath>
</defs>
</svg>
