<svg width="20" height="20" viewBox="0 0 20 20" fill="none" xmlns="http://www.w3.org/2000/svg">
<g clip-path="url(#clip0_86_29743)">
<path d="M17.9515 1.78443C17.6866 2.40061 17.3507 2.98575 16.9461 3.52312C15.1756 1.79876 12.7725 0.829102 10.2689 0.829102C5.08996 0.829102 0.828125 4.98477 0.828125 10.0361C0.828125 12.5557 1.88745 14.9679 3.76089 16.7066L4.1091 17.0076C5.81089 18.4047 7.96633 19.1738 10.1904 19.1738C15.1143 19.1738 19.2536 15.4145 19.6042 10.6236C19.8617 8.27826 19.1555 5.31197 17.9515 1.78443ZM5.10222 16.7592C4.95018 16.9431 4.71723 17.0505 4.47447 17.0505C4.03063 17.0505 3.66771 16.6947 3.66771 16.2624C3.66771 15.8301 4.03308 15.4743 4.47447 15.4743C4.65838 15.4743 4.83984 15.5363 4.98206 15.651C5.32782 15.9233 5.38176 16.4224 5.10222 16.7592ZM17.9122 14.003C15.5827 17.029 10.6073 16.0092 7.41705 16.1549C7.41705 16.1549 6.8506 16.1884 6.2817 16.2791C6.2817 16.2791 6.49504 16.1907 6.77213 16.0881C9.01094 15.3286 10.0703 15.1805 11.4312 14.4998C13.9937 13.2292 16.5268 10.4492 17.054 7.55699C16.078 10.3394 13.1207 12.7301 10.4258 13.7021C8.57936 14.3661 5.24444 15.0109 5.24444 15.0109L5.10957 14.9417C2.83889 13.8645 2.77023 9.07118 6.89719 7.52355C8.70442 6.84527 10.4332 7.21785 12.3851 6.76407C14.4694 6.28163 16.8799 4.75788 17.8607 2.7708C18.9593 5.94965 20.281 10.9269 17.9122 14.003Z" fill="#77BC1F"/>
</g>
<defs>
<clipPath id="clip0_86_29743">
<rect width="18.8276" height="18.3448" fill="white" transform="translate(0.828125 0.827148)"/>
</clipPath>
</defs>
</svg>
