<svg width="29" height="29" viewBox="0 0 29 29" fill="none" xmlns="http://www.w3.org/2000/svg">
<g clip-path="url(#clip0_86_1565)">
<path d="M11.1966 2.9455L2.94554 11.1965C1.31876 12.8233 1.31876 15.4609 2.94554 17.0876L11.1966 25.3387C12.8234 26.9655 15.4609 26.9655 17.0877 25.3387L25.3387 17.0876C26.9655 15.4609 26.9655 12.8233 25.3387 11.1965L17.0877 2.9455C15.4609 1.31872 12.8234 1.31872 11.1966 2.9455Z" fill="#FFA9D4"/>
<path d="M13.4255 9.84559L10.5623 9.84448L13.4236 14.1421L10.5623 18.4397L13.4266 18.4397L16.2912 14.1432L13.4255 9.84559ZM14.8577 9.84586L17.722 14.1421L14.8577 18.4383L17.7212 18.4397L20.5852 14.1432L17.7212 9.84448L14.8577 9.84586Z" fill="white"/>
</g>
<defs>
<clipPath id="clip0_86_1565">
<rect width="20" height="20" fill="white" transform="translate(0 14.1421) rotate(-45)"/>
</clipPath>
</defs>
</svg>
