<svg width="20" height="20" viewBox="0 0 20 20" fill="none" xmlns="http://www.w3.org/2000/svg">
<g clip-path="url(#clip0_86_29924)">
<path d="M4.9053 0.827637H15.0666C15.5611 0.827637 16.0412 0.906462 16.507 1.07128C17.1806 1.31492 17.7897 1.74488 18.2483 2.30382C18.7141 2.86277 19.0222 3.5507 19.1297 4.26729C19.1727 4.53243 19.1799 4.79757 19.1799 5.06271V14.9732C19.1799 15.2885 19.1655 15.611 19.101 15.9191C18.9577 16.6286 18.6209 17.295 18.1336 17.8324C17.6535 18.3699 17.0229 18.7712 16.3422 18.9861C15.9265 19.1151 15.4966 19.1725 15.0595 19.1725C14.866 19.1725 4.87664 19.1725 4.72616 19.1653C3.99523 19.1295 3.27147 18.893 2.66236 18.4845C2.06759 18.0832 1.58031 17.5243 1.265 16.8794C0.992698 16.3276 0.856545 15.7113 0.856545 15.095V4.90506C0.842213 4.29596 0.9712 3.69402 1.23634 3.1494C1.54448 2.50447 2.02459 1.93836 2.61937 1.53707C3.22847 1.12144 3.94507 0.877798 4.67599 0.841969C4.74765 0.827637 4.82648 0.827637 4.9053 0.827637Z" fill="url(#paint0_linear_86_29924)"/>
<path d="M16.3066 15.8331C16.2421 15.7328 16.1704 15.6325 16.0916 15.5393C15.9124 15.3243 15.7046 15.138 15.4753 14.9804C15.1887 14.7869 14.8519 14.6651 14.5079 14.6507C14.2643 14.6364 14.0206 14.6794 13.7913 14.7654C13.562 14.8442 13.3399 14.9589 13.1249 15.0735C12.8741 15.2025 12.6233 15.3315 12.3581 15.439C12.0428 15.568 11.7132 15.6683 11.3764 15.74C10.9536 15.8188 10.5237 15.8475 10.1009 15.8403C9.33411 15.826 8.56735 15.7113 7.83642 15.4963C7.19149 15.3029 6.57522 15.0377 5.99477 14.7009C5.48599 14.4071 5.01304 14.0703 4.56875 13.6905C4.20329 13.3752 3.86649 13.0384 3.55119 12.6801C3.33621 12.4293 3.12839 12.1642 2.93491 11.8919C2.85609 11.7844 2.78443 11.6697 2.71994 11.5551L0.828125 9.51276V4.89073C0.828125 2.64779 2.64111 0.827637 4.88405 0.827637H8.50286L11.1829 3.5507C17.231 7.66395 15.2747 12.2 15.2747 12.2C15.2747 12.2 16.9945 14.1348 16.3066 15.8331Z" fill="url(#paint1_linear_86_29924)"/>
<path d="M11.197 3.55078C17.2451 7.66403 15.2888 12.2001 15.2888 12.2001C15.2888 12.2001 17.0086 14.1421 16.3135 15.8404C16.3135 15.8404 15.6041 14.6508 14.4146 14.6508C13.268 14.6508 12.5944 15.8404 10.287 15.8404C5.14898 15.8404 2.71973 11.548 2.71973 11.548C7.34893 14.5935 10.5091 12.4366 10.5091 12.4366C8.42382 11.2255 3.9881 5.43543 3.9881 5.43543C7.85055 8.7246 9.52021 9.59167 9.52021 9.59167C8.52414 8.76759 5.72942 4.74033 5.72942 4.74033C7.9652 7.00477 12.4081 10.165 12.4081 10.165C13.6693 6.66797 11.197 3.55078 11.197 3.55078Z" fill="white"/>
</g>
<defs>
<linearGradient id="paint0_linear_86_29924" x1="11.741" y1="0.173028" x2="8.27502" y2="19.8293" gradientUnits="userSpaceOnUse">
<stop stop-color="#FAAE42"/>
<stop offset="1" stop-color="#EF3E31"/>
</linearGradient>
<linearGradient id="paint1_linear_86_29924" x1="10.1877" y1="1.12402" x2="7.65104" y2="15.5102" gradientUnits="userSpaceOnUse">
<stop stop-color="#E39F3A"/>
<stop offset="1" stop-color="#D33929"/>
</linearGradient>
<clipPath id="clip0_86_29924">
<rect width="18.3448" height="18.3448" fill="white" transform="translate(0.828125 0.827637)"/>
</clipPath>
</defs>
</svg>
