<svg width="18" height="20" viewBox="0 0 18 20" fill="none" xmlns="http://www.w3.org/2000/svg">
<g clip-path="url(#clip0_86_29886)">
<path d="M0.792969 10.003V1.83057C0.792969 1.27828 1.24068 0.830566 1.79297 0.830566H16.2068C16.759 0.830566 17.2068 1.27828 17.2068 1.83057V18.1754C17.2068 18.7277 16.759 19.1754 16.2068 19.1754H0.792969" fill="#007ACC"/>
<path d="M4.39258 10.0351V10.7827H6.52637V17.5703H8.04054V10.7827H10.1743V10.0489C10.1743 9.63612 10.1743 9.30132 10.1579 9.29215C10.1579 9.27839 8.85713 9.27381 7.2773 9.27381L4.40489 9.28756V10.0397L4.39258 10.0351ZM13.9823 9.26922C14.4009 9.37929 14.721 9.59025 15.0082 9.92505C15.16 10.1085 15.3857 10.4295 15.4021 10.5121C15.4021 10.5396 14.6922 11.0762 14.2614 11.3743C14.245 11.388 14.1793 11.3101 14.1136 11.1908C13.9003 10.8515 13.6828 10.7047 13.3422 10.6772C12.8498 10.6405 12.5215 10.9294 12.5215 11.411C12.5215 11.5577 12.5461 11.6403 12.5954 11.7595C12.7062 12.0118 12.9113 12.1631 13.5474 12.475C14.721 13.0391 15.2298 13.4106 15.5375 13.9426C15.8863 14.5388 15.9643 15.4744 15.7304 16.176C15.4678 16.9419 14.8276 17.4602 13.9126 17.6299C13.6253 17.6849 12.9688 17.6757 12.661 17.6161C12.0045 17.4785 11.3766 17.1116 10.9909 16.6393C10.8391 16.4558 10.5478 15.9651 10.5642 15.933L10.7201 15.8229L11.3356 15.4239L11.7993 15.1212L11.906 15.2817C12.0414 15.5202 12.3451 15.8413 12.5215 15.9513C13.055 16.2586 13.769 16.2173 14.1219 15.8596C14.2737 15.7037 14.3393 15.5386 14.3393 15.3093C14.3393 15.0983 14.3106 15.002 14.2162 14.8415C14.0849 14.6397 13.8223 14.4746 13.0837 14.1077C12.2343 13.7041 11.8732 13.4473 11.5367 13.0528C11.3438 12.8144 11.1674 12.4429 11.0853 12.1356C11.0238 11.8696 11.0032 11.2184 11.0607 10.9569C11.2371 10.0397 11.8568 9.39763 12.7431 9.21419C13.0303 9.14998 13.7074 9.1775 13.9905 9.26005L13.9823 9.26922Z" fill="white"/>
</g>
<defs>
<clipPath id="clip0_86_29886">
<rect x="0.792969" y="0.830566" width="16.4138" height="18.3448" rx="8.2069" fill="white"/>
</clipPath>
</defs>
</svg>
