<svg width="24" height="20" viewBox="0 0 24 20" fill="none" xmlns="http://www.w3.org/2000/svg">
<g clip-path="url(#clip0_86_29930)">
<path d="M7.33469 0.901367C6.73892 0.902597 6.15573 1.22449 5.85586 1.7155L1.1912 9.42756C0.895901 9.91988 0.895901 10.5634 1.1912 11.0557L5.85586 18.7679C6.15573 19.2589 6.73892 19.5809 7.33469 19.582H16.664C17.2598 19.5808 17.843 19.2589 18.1428 18.7679L22.8075 11.0557C23.1028 10.5634 23.1027 9.91988 22.8075 9.42756L18.1428 1.7155C17.843 1.22441 17.2598 0.902515 16.664 0.901367L7.33469 0.901367ZM7.41939 5.41308C7.43223 5.41185 7.44567 5.41185 7.45851 5.41308H9.06763C9.10338 5.41419 9.13827 5.42388 9.16903 5.44126C9.19979 5.45864 9.22544 5.48314 9.24358 5.51248L11.9733 10.1422C11.9871 10.1652 11.9959 10.1906 11.9992 10.2168C12.0026 10.1906 12.0114 10.1652 12.0252 10.1422L14.7484 5.51248C14.7672 5.4823 14.7938 5.45728 14.8258 5.43985C14.8578 5.42243 14.894 5.41321 14.9308 5.41308H16.54C16.6824 5.41423 16.7892 5.58506 16.7224 5.70513L14.0578 10.2417L16.7224 14.772C16.7955 14.8927 16.6862 15.0714 16.54 15.0703H14.9308C14.8933 15.0695 14.8567 15.0594 14.8247 15.0408C14.7926 15.0223 14.7663 14.996 14.7484 14.9647L12.0252 10.3349C12.0114 10.312 12.0026 10.2865 11.9993 10.2603C11.9959 10.2866 11.9871 10.3119 11.9733 10.3349L9.2435 14.9647C9.22615 14.9951 9.20087 15.0208 9.17009 15.0393C9.13931 15.0578 9.10406 15.0685 9.06771 15.0703H7.45843C7.3122 15.0715 7.20294 14.8927 7.27601 14.772L9.9406 10.2417L7.27601 5.70513C7.21216 5.59556 7.29014 5.43646 7.41939 5.41308Z" fill="#3498DB"/>
</g>
<defs>
<clipPath id="clip0_86_29930">
<rect width="22.2069" height="18.8276" fill="white" transform="translate(0.896484 0.827637)"/>
</clipPath>
</defs>
</svg>
